%TF.GenerationSoftware,KiCad,Pcbnew,(6.0.6)*%
%TF.CreationDate,2022-11-26T18:27:24-08:00*%
%TF.ProjectId,AS-EXTN-UNO-01,41532d45-5854-44e2-9d55-4e4f2d30312e,rev?*%
%TF.SameCoordinates,Original*%
%TF.FileFunction,Copper,L2,Bot*%
%TF.FilePolarity,Positive*%
%FSLAX46Y46*%
G04 Gerber Fmt 4.6, Leading zero omitted, Abs format (unit mm)*
G04 Created by KiCad (PCBNEW (6.0.6)) date 2022-11-26 18:27:24*
%MOMM*%
%LPD*%
G01*
G04 APERTURE LIST*
G04 Aperture macros list*
%AMRoundRect*
0 Rectangle with rounded corners*
0 $1 Rounding radius*
0 $2 $3 $4 $5 $6 $7 $8 $9 X,Y pos of 4 corners*
0 Add a 4 corners polygon primitive as box body*
4,1,4,$2,$3,$4,$5,$6,$7,$8,$9,$2,$3,0*
0 Add four circle primitives for the rounded corners*
1,1,$1+$1,$2,$3*
1,1,$1+$1,$4,$5*
1,1,$1+$1,$6,$7*
1,1,$1+$1,$8,$9*
0 Add four rect primitives between the rounded corners*
20,1,$1+$1,$2,$3,$4,$5,0*
20,1,$1+$1,$4,$5,$6,$7,0*
20,1,$1+$1,$6,$7,$8,$9,0*
20,1,$1+$1,$8,$9,$2,$3,0*%
G04 Aperture macros list end*
%TA.AperFunction,ComponentPad*%
%ADD10C,2.000000*%
%TD*%
%TA.AperFunction,ComponentPad*%
%ADD11C,2.700000*%
%TD*%
%TA.AperFunction,ComponentPad*%
%ADD12C,1.600000*%
%TD*%
%TA.AperFunction,ComponentPad*%
%ADD13O,1.600000X1.600000*%
%TD*%
%TA.AperFunction,ComponentPad*%
%ADD14RoundRect,0.250000X0.725000X-0.600000X0.725000X0.600000X-0.725000X0.600000X-0.725000X-0.600000X0*%
%TD*%
%TA.AperFunction,ComponentPad*%
%ADD15O,1.950000X1.700000*%
%TD*%
%TA.AperFunction,ComponentPad*%
%ADD16RoundRect,0.250000X-0.600000X-0.725000X0.600000X-0.725000X0.600000X0.725000X-0.600000X0.725000X0*%
%TD*%
%TA.AperFunction,ComponentPad*%
%ADD17O,1.700000X1.950000*%
%TD*%
%TA.AperFunction,ComponentPad*%
%ADD18R,1.600000X1.600000*%
%TD*%
G04 APERTURE END LIST*
D10*
%TO.P,SW1,1,1*%
%TO.N,/HOME*%
X62051000Y-106893800D03*
X55551000Y-106893800D03*
%TO.P,SW1,2,2*%
%TO.N,GND*%
X55551000Y-111393800D03*
X62051000Y-111393800D03*
%TD*%
D11*
%TO.P,J1,1,GND*%
%TO.N,GND*%
X83523300Y-82901000D03*
%TO.P,J1,2,CLK*%
%TO.N,/CLK*%
X83523300Y-87092000D03*
%TO.P,J1,3,PS*%
%TO.N,/PS*%
X83523300Y-91283000D03*
%TO.P,J1,4,/DATA*%
%TO.N,/DATA*%
X83523300Y-95474000D03*
%TO.P,J1,5,/D4*%
%TO.N,unconnected-(J1-Pad5)*%
X87841300Y-95473600D03*
%TO.P,J1,6,/D3*%
%TO.N,unconnected-(J1-Pad6)*%
X87841300Y-91282600D03*
%TO.P,J1,7,VCC*%
%TO.N,VCC*%
X87841300Y-87091600D03*
%TD*%
D12*
%TO.P,R1,1*%
%TO.N,VCC*%
X65252600Y-101371400D03*
D13*
%TO.P,R1,2*%
%TO.N,/GC_N64_DATA*%
X57632600Y-101371400D03*
%TD*%
D14*
%TO.P,J2,1,Pin_1*%
%TO.N,VCC*%
X65819800Y-94992200D03*
D15*
%TO.P,J2,2,Pin_2*%
%TO.N,/DATA*%
X65819800Y-92492200D03*
%TO.P,J2,3,Pin_3*%
%TO.N,/PS*%
X65819800Y-89992200D03*
%TO.P,J2,4,Pin_4*%
%TO.N,/CLK*%
X65819800Y-87492200D03*
%TO.P,J2,5,Pin_5*%
%TO.N,GND*%
X65819800Y-84992200D03*
%TD*%
D16*
%TO.P,J3,1,Pin_1*%
%TO.N,VCC*%
X95868800Y-109711000D03*
D17*
%TO.P,J3,2,Pin_2*%
%TO.N,/SDA*%
X98368800Y-109711000D03*
%TO.P,J3,3,Pin_3*%
%TO.N,/SCL*%
X100868800Y-109711000D03*
%TO.P,J3,4,Pin_4*%
%TO.N,GND*%
X103368800Y-109711000D03*
%TD*%
D18*
%TO.P,A1,1,NC*%
%TO.N,unconnected-(A1-Pad1)*%
X91516200Y-69570600D03*
D13*
%TO.P,A1,2,IOREF*%
%TO.N,unconnected-(A1-Pad2)*%
X88976200Y-69570600D03*
%TO.P,A1,3,~{RESET}*%
%TO.N,unconnected-(A1-Pad3)*%
X86436200Y-69570600D03*
%TO.P,A1,4,3V3*%
%TO.N,unconnected-(A1-Pad4)*%
X83896200Y-69570600D03*
%TO.P,A1,5,+5V*%
%TO.N,VCC*%
X81356200Y-69570600D03*
%TO.P,A1,6,GND*%
%TO.N,GND*%
X78816200Y-69570600D03*
%TO.P,A1,7,GND*%
X76276200Y-69570600D03*
%TO.P,A1,8,VIN*%
%TO.N,unconnected-(A1-Pad8)*%
X73736200Y-69570600D03*
%TO.P,A1,9,A0*%
%TO.N,/CLK*%
X68656200Y-69570600D03*
%TO.P,A1,10,A1*%
%TO.N,/PS*%
X66116200Y-69570600D03*
%TO.P,A1,11,A2*%
%TO.N,/DATA*%
X63576200Y-69570600D03*
%TO.P,A1,12,A3*%
%TO.N,/GC_N64_DATA*%
X61036200Y-69570600D03*
%TO.P,A1,13,SDA/A4*%
%TO.N,unconnected-(A1-Pad13)*%
X58496200Y-69570600D03*
%TO.P,A1,14,SCL/A5*%
%TO.N,unconnected-(A1-Pad14)*%
X55956200Y-69570600D03*
%TO.P,A1,15,D0/RX*%
%TO.N,unconnected-(A1-Pad15)*%
X55956200Y-117830600D03*
%TO.P,A1,16,D1/TX*%
%TO.N,unconnected-(A1-Pad16)*%
X58496200Y-117830600D03*
%TO.P,A1,17,D2*%
%TO.N,/HOME*%
X61036200Y-117830600D03*
%TO.P,A1,18,D3*%
%TO.N,unconnected-(A1-Pad18)*%
X63576200Y-117830600D03*
%TO.P,A1,19,D4*%
%TO.N,unconnected-(A1-Pad19)*%
X66116200Y-117830600D03*
%TO.P,A1,20,D5*%
%TO.N,unconnected-(A1-Pad20)*%
X68656200Y-117830600D03*
%TO.P,A1,21,D6*%
%TO.N,unconnected-(A1-Pad21)*%
X71196200Y-117830600D03*
%TO.P,A1,22,D7*%
%TO.N,unconnected-(A1-Pad22)*%
X73736200Y-117830600D03*
%TO.P,A1,23,D8*%
%TO.N,unconnected-(A1-Pad23)*%
X77796200Y-117830600D03*
%TO.P,A1,24,D9*%
%TO.N,unconnected-(A1-Pad24)*%
X80336200Y-117830600D03*
%TO.P,A1,25,D10*%
%TO.N,unconnected-(A1-Pad25)*%
X82876200Y-117830600D03*
%TO.P,A1,26,D11*%
%TO.N,unconnected-(A1-Pad26)*%
X85416200Y-117830600D03*
%TO.P,A1,27,D12*%
%TO.N,unconnected-(A1-Pad27)*%
X87956200Y-117830600D03*
%TO.P,A1,28,D13*%
%TO.N,unconnected-(A1-Pad28)*%
X90496200Y-117830600D03*
%TO.P,A1,29,GND*%
%TO.N,GND*%
X93036200Y-117830600D03*
%TO.P,A1,30,AREF*%
%TO.N,unconnected-(A1-Pad30)*%
X95576200Y-117830600D03*
%TO.P,A1,31,SDA/A4*%
%TO.N,/SDA*%
X98116200Y-117830600D03*
%TO.P,A1,32,SCL/A5*%
%TO.N,/SCL*%
X100656200Y-117830600D03*
%TD*%
%TA.AperFunction,Conductor*%
%TO.N,GND*%
G36*
X119245421Y-67203502D02*
G01*
X119291914Y-67257158D01*
X119303300Y-67309500D01*
X119303300Y-69815977D01*
X119303298Y-69816747D01*
X119302824Y-69894321D01*
X119305291Y-69902952D01*
X119310950Y-69922753D01*
X119314528Y-69939515D01*
X119318720Y-69968787D01*
X119322434Y-69976955D01*
X119322434Y-69976956D01*
X119329348Y-69992162D01*
X119335796Y-70009686D01*
X119342851Y-70034371D01*
X119347643Y-70041965D01*
X119347644Y-70041968D01*
X119358630Y-70059380D01*
X119366769Y-70074463D01*
X119379008Y-70101382D01*
X119384869Y-70108184D01*
X119395770Y-70120835D01*
X119406873Y-70135839D01*
X119420576Y-70157558D01*
X119427301Y-70163497D01*
X119427304Y-70163501D01*
X119442738Y-70177132D01*
X119454782Y-70189324D01*
X119468227Y-70204927D01*
X119468230Y-70204929D01*
X119474087Y-70211727D01*
X119481616Y-70216607D01*
X119481617Y-70216608D01*
X119495635Y-70225694D01*
X119510509Y-70236985D01*
X119523017Y-70248031D01*
X119529751Y-70253978D01*
X119556511Y-70266542D01*
X119571491Y-70274863D01*
X119588783Y-70286071D01*
X119588788Y-70286073D01*
X119596315Y-70290952D01*
X119604908Y-70293522D01*
X119604913Y-70293524D01*
X119620920Y-70298311D01*
X119638364Y-70304972D01*
X119653476Y-70312067D01*
X119653478Y-70312068D01*
X119661600Y-70315881D01*
X119670467Y-70317262D01*
X119670468Y-70317262D01*
X119680110Y-70318763D01*
X119690817Y-70320430D01*
X119707532Y-70324213D01*
X119727266Y-70330115D01*
X119727272Y-70330116D01*
X119735866Y-70332686D01*
X119744837Y-70332741D01*
X119744838Y-70332741D01*
X119754897Y-70332802D01*
X119770306Y-70332896D01*
X119771089Y-70332929D01*
X119772186Y-70333100D01*
X119803177Y-70333100D01*
X119803947Y-70333102D01*
X119877585Y-70333552D01*
X119877586Y-70333552D01*
X119881521Y-70333576D01*
X119882865Y-70333192D01*
X119884210Y-70333100D01*
X121133100Y-70333100D01*
X121201221Y-70353102D01*
X121247714Y-70406758D01*
X121259100Y-70459100D01*
X121259100Y-78842100D01*
X121239098Y-78910221D01*
X121185442Y-78956714D01*
X121133100Y-78968100D01*
X119795023Y-78968100D01*
X119794253Y-78968098D01*
X119793437Y-78968093D01*
X119716679Y-78967624D01*
X119694318Y-78974015D01*
X119688247Y-78975750D01*
X119671485Y-78979328D01*
X119642213Y-78983520D01*
X119634045Y-78987234D01*
X119634044Y-78987234D01*
X119618838Y-78994148D01*
X119601314Y-79000596D01*
X119576629Y-79007651D01*
X119569035Y-79012443D01*
X119569032Y-79012444D01*
X119551620Y-79023430D01*
X119536537Y-79031569D01*
X119509618Y-79043808D01*
X119502816Y-79049669D01*
X119490165Y-79060570D01*
X119475161Y-79071673D01*
X119453442Y-79085376D01*
X119447503Y-79092101D01*
X119447499Y-79092104D01*
X119433868Y-79107538D01*
X119421676Y-79119582D01*
X119406073Y-79133027D01*
X119406071Y-79133030D01*
X119399273Y-79138887D01*
X119394393Y-79146416D01*
X119394392Y-79146417D01*
X119385306Y-79160435D01*
X119374015Y-79175309D01*
X119362969Y-79187817D01*
X119357022Y-79194551D01*
X119344458Y-79221311D01*
X119336137Y-79236291D01*
X119324929Y-79253583D01*
X119324927Y-79253588D01*
X119320048Y-79261115D01*
X119317478Y-79269708D01*
X119317476Y-79269713D01*
X119312689Y-79285720D01*
X119306028Y-79303164D01*
X119295119Y-79326400D01*
X119293738Y-79335267D01*
X119293738Y-79335268D01*
X119290570Y-79355615D01*
X119286787Y-79372332D01*
X119280885Y-79392066D01*
X119280884Y-79392072D01*
X119278314Y-79400666D01*
X119278259Y-79409637D01*
X119278259Y-79409638D01*
X119278104Y-79435097D01*
X119278071Y-79435889D01*
X119277900Y-79436986D01*
X119277900Y-79467977D01*
X119277898Y-79468747D01*
X119277424Y-79546321D01*
X119277808Y-79547665D01*
X119277900Y-79549010D01*
X119277900Y-99051377D01*
X119277898Y-99052147D01*
X119277424Y-99129721D01*
X119279891Y-99138352D01*
X119285550Y-99158153D01*
X119289128Y-99174915D01*
X119293320Y-99204187D01*
X119297034Y-99212355D01*
X119297034Y-99212356D01*
X119303948Y-99227562D01*
X119310396Y-99245086D01*
X119317451Y-99269771D01*
X119322243Y-99277365D01*
X119322244Y-99277368D01*
X119333230Y-99294780D01*
X119341369Y-99309863D01*
X119353608Y-99336782D01*
X119359469Y-99343584D01*
X119370370Y-99356235D01*
X119381473Y-99371239D01*
X119395176Y-99392958D01*
X119401901Y-99398897D01*
X119401904Y-99398901D01*
X119417338Y-99412532D01*
X119429382Y-99424724D01*
X119442827Y-99440327D01*
X119442830Y-99440329D01*
X119448687Y-99447127D01*
X119456216Y-99452007D01*
X119456217Y-99452008D01*
X119470235Y-99461094D01*
X119485109Y-99472385D01*
X119497617Y-99483431D01*
X119504351Y-99489378D01*
X119531111Y-99501942D01*
X119546091Y-99510263D01*
X119563383Y-99521471D01*
X119563388Y-99521473D01*
X119570915Y-99526352D01*
X119579508Y-99528922D01*
X119579513Y-99528924D01*
X119595520Y-99533711D01*
X119612964Y-99540372D01*
X119628076Y-99547467D01*
X119628078Y-99547468D01*
X119636200Y-99551281D01*
X119645067Y-99552662D01*
X119645068Y-99552662D01*
X119654710Y-99554163D01*
X119665417Y-99555830D01*
X119682132Y-99559613D01*
X119701866Y-99565515D01*
X119701872Y-99565516D01*
X119710466Y-99568086D01*
X119719437Y-99568141D01*
X119719438Y-99568141D01*
X119729497Y-99568202D01*
X119744906Y-99568296D01*
X119745689Y-99568329D01*
X119746786Y-99568500D01*
X119777777Y-99568500D01*
X119778547Y-99568502D01*
X119852185Y-99568952D01*
X119852186Y-99568952D01*
X119856121Y-99568976D01*
X119857465Y-99568592D01*
X119858810Y-99568500D01*
X125627577Y-99568500D01*
X125695698Y-99588502D01*
X125742191Y-99642158D01*
X125753577Y-99694763D01*
X125730849Y-110603610D01*
X125730820Y-110617763D01*
X125710676Y-110685841D01*
X125656923Y-110732222D01*
X125604820Y-110743500D01*
X119845823Y-110743500D01*
X119845053Y-110743498D01*
X119844237Y-110743493D01*
X119767479Y-110743024D01*
X119745118Y-110749415D01*
X119739047Y-110751150D01*
X119722285Y-110754728D01*
X119693013Y-110758920D01*
X119684845Y-110762634D01*
X119684844Y-110762634D01*
X119669638Y-110769548D01*
X119652114Y-110775996D01*
X119627429Y-110783051D01*
X119619835Y-110787843D01*
X119619832Y-110787844D01*
X119602420Y-110798830D01*
X119587337Y-110806969D01*
X119560418Y-110819208D01*
X119553616Y-110825069D01*
X119540965Y-110835970D01*
X119525961Y-110847073D01*
X119504242Y-110860776D01*
X119498303Y-110867501D01*
X119498299Y-110867504D01*
X119484668Y-110882938D01*
X119472476Y-110894982D01*
X119456873Y-110908427D01*
X119456871Y-110908430D01*
X119450073Y-110914287D01*
X119445193Y-110921816D01*
X119445192Y-110921817D01*
X119436106Y-110935835D01*
X119424815Y-110950709D01*
X119413769Y-110963217D01*
X119407822Y-110969951D01*
X119397873Y-110991141D01*
X119395258Y-110996711D01*
X119386937Y-111011691D01*
X119375729Y-111028983D01*
X119375727Y-111028988D01*
X119370848Y-111036515D01*
X119368278Y-111045108D01*
X119368276Y-111045113D01*
X119363489Y-111061120D01*
X119356828Y-111078564D01*
X119345919Y-111101800D01*
X119341549Y-111129868D01*
X119341370Y-111131015D01*
X119337587Y-111147732D01*
X119331685Y-111167466D01*
X119331684Y-111167472D01*
X119329114Y-111176066D01*
X119329059Y-111185037D01*
X119329059Y-111185038D01*
X119328904Y-111210497D01*
X119328871Y-111211289D01*
X119328700Y-111212386D01*
X119328700Y-111243377D01*
X119328698Y-111244147D01*
X119328224Y-111321721D01*
X119328608Y-111323065D01*
X119328700Y-111324410D01*
X119328700Y-120142500D01*
X119308698Y-120210621D01*
X119255042Y-120257114D01*
X119202700Y-120268500D01*
X55157324Y-120268500D01*
X55089203Y-120248498D01*
X55067017Y-120230367D01*
X53604793Y-118727525D01*
X53571624Y-118664752D01*
X53569100Y-118639658D01*
X53569100Y-117830600D01*
X54642702Y-117830600D01*
X54662657Y-118058687D01*
X54721916Y-118279843D01*
X54724239Y-118284824D01*
X54724239Y-118284825D01*
X54816351Y-118482362D01*
X54816354Y-118482367D01*
X54818677Y-118487349D01*
X54950002Y-118674900D01*
X55111900Y-118836798D01*
X55116408Y-118839955D01*
X55116411Y-118839957D01*
X55194589Y-118894698D01*
X55299451Y-118968123D01*
X55304433Y-118970446D01*
X55304438Y-118970449D01*
X55456996Y-119041587D01*
X55506957Y-119064884D01*
X55512265Y-119066306D01*
X55512267Y-119066307D01*
X55722798Y-119122719D01*
X55722800Y-119122719D01*
X55728113Y-119124143D01*
X55956200Y-119144098D01*
X56184287Y-119124143D01*
X56189600Y-119122719D01*
X56189602Y-119122719D01*
X56400133Y-119066307D01*
X56400135Y-119066306D01*
X56405443Y-119064884D01*
X56455404Y-119041587D01*
X56607962Y-118970449D01*
X56607967Y-118970446D01*
X56612949Y-118968123D01*
X56717811Y-118894698D01*
X56795989Y-118839957D01*
X56795992Y-118839955D01*
X56800500Y-118836798D01*
X56962398Y-118674900D01*
X57093723Y-118487349D01*
X57096046Y-118482367D01*
X57096049Y-118482362D01*
X57112005Y-118448143D01*
X57158922Y-118394858D01*
X57227199Y-118375397D01*
X57295159Y-118395939D01*
X57340395Y-118448143D01*
X57356351Y-118482362D01*
X57356354Y-118482367D01*
X57358677Y-118487349D01*
X57490002Y-118674900D01*
X57651900Y-118836798D01*
X57656408Y-118839955D01*
X57656411Y-118839957D01*
X57734589Y-118894698D01*
X57839451Y-118968123D01*
X57844433Y-118970446D01*
X57844438Y-118970449D01*
X57996996Y-119041587D01*
X58046957Y-119064884D01*
X58052265Y-119066306D01*
X58052267Y-119066307D01*
X58262798Y-119122719D01*
X58262800Y-119122719D01*
X58268113Y-119124143D01*
X58496200Y-119144098D01*
X58724287Y-119124143D01*
X58729600Y-119122719D01*
X58729602Y-119122719D01*
X58940133Y-119066307D01*
X58940135Y-119066306D01*
X58945443Y-119064884D01*
X58995404Y-119041587D01*
X59147962Y-118970449D01*
X59147967Y-118970446D01*
X59152949Y-118968123D01*
X59257811Y-118894698D01*
X59335989Y-118839957D01*
X59335992Y-118839955D01*
X59340500Y-118836798D01*
X59502398Y-118674900D01*
X59633723Y-118487349D01*
X59636046Y-118482367D01*
X59636049Y-118482362D01*
X59652005Y-118448143D01*
X59698922Y-118394858D01*
X59767199Y-118375397D01*
X59835159Y-118395939D01*
X59880395Y-118448143D01*
X59896351Y-118482362D01*
X59896354Y-118482367D01*
X59898677Y-118487349D01*
X60030002Y-118674900D01*
X60191900Y-118836798D01*
X60196408Y-118839955D01*
X60196411Y-118839957D01*
X60274589Y-118894698D01*
X60379451Y-118968123D01*
X60384433Y-118970446D01*
X60384438Y-118970449D01*
X60536996Y-119041587D01*
X60586957Y-119064884D01*
X60592265Y-119066306D01*
X60592267Y-119066307D01*
X60802798Y-119122719D01*
X60802800Y-119122719D01*
X60808113Y-119124143D01*
X61036200Y-119144098D01*
X61264287Y-119124143D01*
X61269600Y-119122719D01*
X61269602Y-119122719D01*
X61480133Y-119066307D01*
X61480135Y-119066306D01*
X61485443Y-119064884D01*
X61535404Y-119041587D01*
X61687962Y-118970449D01*
X61687967Y-118970446D01*
X61692949Y-118968123D01*
X61797811Y-118894698D01*
X61875989Y-118839957D01*
X61875992Y-118839955D01*
X61880500Y-118836798D01*
X62042398Y-118674900D01*
X62173723Y-118487349D01*
X62176046Y-118482367D01*
X62176049Y-118482362D01*
X62192005Y-118448143D01*
X62238922Y-118394858D01*
X62307199Y-118375397D01*
X62375159Y-118395939D01*
X62420395Y-118448143D01*
X62436351Y-118482362D01*
X62436354Y-118482367D01*
X62438677Y-118487349D01*
X62570002Y-118674900D01*
X62731900Y-118836798D01*
X62736408Y-118839955D01*
X62736411Y-118839957D01*
X62814589Y-118894698D01*
X62919451Y-118968123D01*
X62924433Y-118970446D01*
X62924438Y-118970449D01*
X63076996Y-119041587D01*
X63126957Y-119064884D01*
X63132265Y-119066306D01*
X63132267Y-119066307D01*
X63342798Y-119122719D01*
X63342800Y-119122719D01*
X63348113Y-119124143D01*
X63576200Y-119144098D01*
X63804287Y-119124143D01*
X63809600Y-119122719D01*
X63809602Y-119122719D01*
X64020133Y-119066307D01*
X64020135Y-119066306D01*
X64025443Y-119064884D01*
X64075404Y-119041587D01*
X64227962Y-118970449D01*
X64227967Y-118970446D01*
X64232949Y-118968123D01*
X64337811Y-118894698D01*
X64415989Y-118839957D01*
X64415992Y-118839955D01*
X64420500Y-118836798D01*
X64582398Y-118674900D01*
X64713723Y-118487349D01*
X64716046Y-118482367D01*
X64716049Y-118482362D01*
X64732005Y-118448143D01*
X64778922Y-118394858D01*
X64847199Y-118375397D01*
X64915159Y-118395939D01*
X64960395Y-118448143D01*
X64976351Y-118482362D01*
X64976354Y-118482367D01*
X64978677Y-118487349D01*
X65110002Y-118674900D01*
X65271900Y-118836798D01*
X65276408Y-118839955D01*
X65276411Y-118839957D01*
X65354589Y-118894698D01*
X65459451Y-118968123D01*
X65464433Y-118970446D01*
X65464438Y-118970449D01*
X65616996Y-119041587D01*
X65666957Y-119064884D01*
X65672265Y-119066306D01*
X65672267Y-119066307D01*
X65882798Y-119122719D01*
X65882800Y-119122719D01*
X65888113Y-119124143D01*
X66116200Y-119144098D01*
X66344287Y-119124143D01*
X66349600Y-119122719D01*
X66349602Y-119122719D01*
X66560133Y-119066307D01*
X66560135Y-119066306D01*
X66565443Y-119064884D01*
X66615404Y-119041587D01*
X66767962Y-118970449D01*
X66767967Y-118970446D01*
X66772949Y-118968123D01*
X66877811Y-118894698D01*
X66955989Y-118839957D01*
X66955992Y-118839955D01*
X66960500Y-118836798D01*
X67122398Y-118674900D01*
X67253723Y-118487349D01*
X67256046Y-118482367D01*
X67256049Y-118482362D01*
X67272005Y-118448143D01*
X67318922Y-118394858D01*
X67387199Y-118375397D01*
X67455159Y-118395939D01*
X67500395Y-118448143D01*
X67516351Y-118482362D01*
X67516354Y-118482367D01*
X67518677Y-118487349D01*
X67650002Y-118674900D01*
X67811900Y-118836798D01*
X67816408Y-118839955D01*
X67816411Y-118839957D01*
X67894589Y-118894698D01*
X67999451Y-118968123D01*
X68004433Y-118970446D01*
X68004438Y-118970449D01*
X68156996Y-119041587D01*
X68206957Y-119064884D01*
X68212265Y-119066306D01*
X68212267Y-119066307D01*
X68422798Y-119122719D01*
X68422800Y-119122719D01*
X68428113Y-119124143D01*
X68656200Y-119144098D01*
X68884287Y-119124143D01*
X68889600Y-119122719D01*
X68889602Y-119122719D01*
X69100133Y-119066307D01*
X69100135Y-119066306D01*
X69105443Y-119064884D01*
X69155404Y-119041587D01*
X69307962Y-118970449D01*
X69307967Y-118970446D01*
X69312949Y-118968123D01*
X69417811Y-118894698D01*
X69495989Y-118839957D01*
X69495992Y-118839955D01*
X69500500Y-118836798D01*
X69662398Y-118674900D01*
X69793723Y-118487349D01*
X69796046Y-118482367D01*
X69796049Y-118482362D01*
X69812005Y-118448143D01*
X69858922Y-118394858D01*
X69927199Y-118375397D01*
X69995159Y-118395939D01*
X70040395Y-118448143D01*
X70056351Y-118482362D01*
X70056354Y-118482367D01*
X70058677Y-118487349D01*
X70190002Y-118674900D01*
X70351900Y-118836798D01*
X70356408Y-118839955D01*
X70356411Y-118839957D01*
X70434589Y-118894698D01*
X70539451Y-118968123D01*
X70544433Y-118970446D01*
X70544438Y-118970449D01*
X70696996Y-119041587D01*
X70746957Y-119064884D01*
X70752265Y-119066306D01*
X70752267Y-119066307D01*
X70962798Y-119122719D01*
X70962800Y-119122719D01*
X70968113Y-119124143D01*
X71196200Y-119144098D01*
X71424287Y-119124143D01*
X71429600Y-119122719D01*
X71429602Y-119122719D01*
X71640133Y-119066307D01*
X71640135Y-119066306D01*
X71645443Y-119064884D01*
X71695404Y-119041587D01*
X71847962Y-118970449D01*
X71847967Y-118970446D01*
X71852949Y-118968123D01*
X71957811Y-118894698D01*
X72035989Y-118839957D01*
X72035992Y-118839955D01*
X72040500Y-118836798D01*
X72202398Y-118674900D01*
X72333723Y-118487349D01*
X72336046Y-118482367D01*
X72336049Y-118482362D01*
X72352005Y-118448143D01*
X72398922Y-118394858D01*
X72467199Y-118375397D01*
X72535159Y-118395939D01*
X72580395Y-118448143D01*
X72596351Y-118482362D01*
X72596354Y-118482367D01*
X72598677Y-118487349D01*
X72730002Y-118674900D01*
X72891900Y-118836798D01*
X72896408Y-118839955D01*
X72896411Y-118839957D01*
X72974589Y-118894698D01*
X73079451Y-118968123D01*
X73084433Y-118970446D01*
X73084438Y-118970449D01*
X73236996Y-119041587D01*
X73286957Y-119064884D01*
X73292265Y-119066306D01*
X73292267Y-119066307D01*
X73502798Y-119122719D01*
X73502800Y-119122719D01*
X73508113Y-119124143D01*
X73736200Y-119144098D01*
X73964287Y-119124143D01*
X73969600Y-119122719D01*
X73969602Y-119122719D01*
X74180133Y-119066307D01*
X74180135Y-119066306D01*
X74185443Y-119064884D01*
X74235404Y-119041587D01*
X74387962Y-118970449D01*
X74387967Y-118970446D01*
X74392949Y-118968123D01*
X74497811Y-118894698D01*
X74575989Y-118839957D01*
X74575992Y-118839955D01*
X74580500Y-118836798D01*
X74742398Y-118674900D01*
X74873723Y-118487349D01*
X74876046Y-118482367D01*
X74876049Y-118482362D01*
X74968161Y-118284825D01*
X74968161Y-118284824D01*
X74970484Y-118279843D01*
X75029743Y-118058687D01*
X75049698Y-117830600D01*
X76482702Y-117830600D01*
X76502657Y-118058687D01*
X76561916Y-118279843D01*
X76564239Y-118284824D01*
X76564239Y-118284825D01*
X76656351Y-118482362D01*
X76656354Y-118482367D01*
X76658677Y-118487349D01*
X76790002Y-118674900D01*
X76951900Y-118836798D01*
X76956408Y-118839955D01*
X76956411Y-118839957D01*
X77034589Y-118894698D01*
X77139451Y-118968123D01*
X77144433Y-118970446D01*
X77144438Y-118970449D01*
X77296996Y-119041587D01*
X77346957Y-119064884D01*
X77352265Y-119066306D01*
X77352267Y-119066307D01*
X77562798Y-119122719D01*
X77562800Y-119122719D01*
X77568113Y-119124143D01*
X77796200Y-119144098D01*
X78024287Y-119124143D01*
X78029600Y-119122719D01*
X78029602Y-119122719D01*
X78240133Y-119066307D01*
X78240135Y-119066306D01*
X78245443Y-119064884D01*
X78295404Y-119041587D01*
X78447962Y-118970449D01*
X78447967Y-118970446D01*
X78452949Y-118968123D01*
X78557811Y-118894698D01*
X78635989Y-118839957D01*
X78635992Y-118839955D01*
X78640500Y-118836798D01*
X78802398Y-118674900D01*
X78933723Y-118487349D01*
X78936046Y-118482367D01*
X78936049Y-118482362D01*
X78952005Y-118448143D01*
X78998922Y-118394858D01*
X79067199Y-118375397D01*
X79135159Y-118395939D01*
X79180395Y-118448143D01*
X79196351Y-118482362D01*
X79196354Y-118482367D01*
X79198677Y-118487349D01*
X79330002Y-118674900D01*
X79491900Y-118836798D01*
X79496408Y-118839955D01*
X79496411Y-118839957D01*
X79574589Y-118894698D01*
X79679451Y-118968123D01*
X79684433Y-118970446D01*
X79684438Y-118970449D01*
X79836996Y-119041587D01*
X79886957Y-119064884D01*
X79892265Y-119066306D01*
X79892267Y-119066307D01*
X80102798Y-119122719D01*
X80102800Y-119122719D01*
X80108113Y-119124143D01*
X80336200Y-119144098D01*
X80564287Y-119124143D01*
X80569600Y-119122719D01*
X80569602Y-119122719D01*
X80780133Y-119066307D01*
X80780135Y-119066306D01*
X80785443Y-119064884D01*
X80835404Y-119041587D01*
X80987962Y-118970449D01*
X80987967Y-118970446D01*
X80992949Y-118968123D01*
X81097811Y-118894698D01*
X81175989Y-118839957D01*
X81175992Y-118839955D01*
X81180500Y-118836798D01*
X81342398Y-118674900D01*
X81473723Y-118487349D01*
X81476046Y-118482367D01*
X81476049Y-118482362D01*
X81492005Y-118448143D01*
X81538922Y-118394858D01*
X81607199Y-118375397D01*
X81675159Y-118395939D01*
X81720395Y-118448143D01*
X81736351Y-118482362D01*
X81736354Y-118482367D01*
X81738677Y-118487349D01*
X81870002Y-118674900D01*
X82031900Y-118836798D01*
X82036408Y-118839955D01*
X82036411Y-118839957D01*
X82114589Y-118894698D01*
X82219451Y-118968123D01*
X82224433Y-118970446D01*
X82224438Y-118970449D01*
X82376996Y-119041587D01*
X82426957Y-119064884D01*
X82432265Y-119066306D01*
X82432267Y-119066307D01*
X82642798Y-119122719D01*
X82642800Y-119122719D01*
X82648113Y-119124143D01*
X82876200Y-119144098D01*
X83104287Y-119124143D01*
X83109600Y-119122719D01*
X83109602Y-119122719D01*
X83320133Y-119066307D01*
X83320135Y-119066306D01*
X83325443Y-119064884D01*
X83375404Y-119041587D01*
X83527962Y-118970449D01*
X83527967Y-118970446D01*
X83532949Y-118968123D01*
X83637811Y-118894698D01*
X83715989Y-118839957D01*
X83715992Y-118839955D01*
X83720500Y-118836798D01*
X83882398Y-118674900D01*
X84013723Y-118487349D01*
X84016046Y-118482367D01*
X84016049Y-118482362D01*
X84032005Y-118448143D01*
X84078922Y-118394858D01*
X84147199Y-118375397D01*
X84215159Y-118395939D01*
X84260395Y-118448143D01*
X84276351Y-118482362D01*
X84276354Y-118482367D01*
X84278677Y-118487349D01*
X84410002Y-118674900D01*
X84571900Y-118836798D01*
X84576408Y-118839955D01*
X84576411Y-118839957D01*
X84654589Y-118894698D01*
X84759451Y-118968123D01*
X84764433Y-118970446D01*
X84764438Y-118970449D01*
X84916996Y-119041587D01*
X84966957Y-119064884D01*
X84972265Y-119066306D01*
X84972267Y-119066307D01*
X85182798Y-119122719D01*
X85182800Y-119122719D01*
X85188113Y-119124143D01*
X85416200Y-119144098D01*
X85644287Y-119124143D01*
X85649600Y-119122719D01*
X85649602Y-119122719D01*
X85860133Y-119066307D01*
X85860135Y-119066306D01*
X85865443Y-119064884D01*
X85915404Y-119041587D01*
X86067962Y-118970449D01*
X86067967Y-118970446D01*
X86072949Y-118968123D01*
X86177811Y-118894698D01*
X86255989Y-118839957D01*
X86255992Y-118839955D01*
X86260500Y-118836798D01*
X86422398Y-118674900D01*
X86553723Y-118487349D01*
X86556046Y-118482367D01*
X86556049Y-118482362D01*
X86572005Y-118448143D01*
X86618922Y-118394858D01*
X86687199Y-118375397D01*
X86755159Y-118395939D01*
X86800395Y-118448143D01*
X86816351Y-118482362D01*
X86816354Y-118482367D01*
X86818677Y-118487349D01*
X86950002Y-118674900D01*
X87111900Y-118836798D01*
X87116408Y-118839955D01*
X87116411Y-118839957D01*
X87194589Y-118894698D01*
X87299451Y-118968123D01*
X87304433Y-118970446D01*
X87304438Y-118970449D01*
X87456996Y-119041587D01*
X87506957Y-119064884D01*
X87512265Y-119066306D01*
X87512267Y-119066307D01*
X87722798Y-119122719D01*
X87722800Y-119122719D01*
X87728113Y-119124143D01*
X87956200Y-119144098D01*
X88184287Y-119124143D01*
X88189600Y-119122719D01*
X88189602Y-119122719D01*
X88400133Y-119066307D01*
X88400135Y-119066306D01*
X88405443Y-119064884D01*
X88455404Y-119041587D01*
X88607962Y-118970449D01*
X88607967Y-118970446D01*
X88612949Y-118968123D01*
X88717811Y-118894698D01*
X88795989Y-118839957D01*
X88795992Y-118839955D01*
X88800500Y-118836798D01*
X88962398Y-118674900D01*
X89093723Y-118487349D01*
X89096046Y-118482367D01*
X89096049Y-118482362D01*
X89112005Y-118448143D01*
X89158922Y-118394858D01*
X89227199Y-118375397D01*
X89295159Y-118395939D01*
X89340395Y-118448143D01*
X89356351Y-118482362D01*
X89356354Y-118482367D01*
X89358677Y-118487349D01*
X89490002Y-118674900D01*
X89651900Y-118836798D01*
X89656408Y-118839955D01*
X89656411Y-118839957D01*
X89734589Y-118894698D01*
X89839451Y-118968123D01*
X89844433Y-118970446D01*
X89844438Y-118970449D01*
X89996996Y-119041587D01*
X90046957Y-119064884D01*
X90052265Y-119066306D01*
X90052267Y-119066307D01*
X90262798Y-119122719D01*
X90262800Y-119122719D01*
X90268113Y-119124143D01*
X90496200Y-119144098D01*
X90724287Y-119124143D01*
X90729600Y-119122719D01*
X90729602Y-119122719D01*
X90940133Y-119066307D01*
X90940135Y-119066306D01*
X90945443Y-119064884D01*
X90995404Y-119041587D01*
X91147962Y-118970449D01*
X91147967Y-118970446D01*
X91152949Y-118968123D01*
X91257811Y-118894698D01*
X91335989Y-118839957D01*
X91335992Y-118839955D01*
X91340500Y-118836798D01*
X91502398Y-118674900D01*
X91633723Y-118487349D01*
X91636046Y-118482367D01*
X91636049Y-118482362D01*
X91652281Y-118447551D01*
X91699198Y-118394266D01*
X91767475Y-118374805D01*
X91835435Y-118395347D01*
X91880671Y-118447551D01*
X91896786Y-118482111D01*
X91902269Y-118491607D01*
X92027228Y-118670067D01*
X92034284Y-118678475D01*
X92188325Y-118832516D01*
X92196733Y-118839572D01*
X92375193Y-118964531D01*
X92384689Y-118970014D01*
X92582147Y-119062090D01*
X92592439Y-119065836D01*
X92764703Y-119111994D01*
X92778799Y-119111658D01*
X92782200Y-119103716D01*
X92782200Y-119098567D01*
X93290200Y-119098567D01*
X93294173Y-119112098D01*
X93302722Y-119113327D01*
X93479961Y-119065836D01*
X93490253Y-119062090D01*
X93687711Y-118970014D01*
X93697207Y-118964531D01*
X93875667Y-118839572D01*
X93884075Y-118832516D01*
X94038116Y-118678475D01*
X94045172Y-118670067D01*
X94170131Y-118491607D01*
X94175614Y-118482111D01*
X94191729Y-118447551D01*
X94238646Y-118394266D01*
X94306923Y-118374805D01*
X94374883Y-118395347D01*
X94420119Y-118447551D01*
X94436351Y-118482362D01*
X94436354Y-118482367D01*
X94438677Y-118487349D01*
X94570002Y-118674900D01*
X94731900Y-118836798D01*
X94736408Y-118839955D01*
X94736411Y-118839957D01*
X94814589Y-118894698D01*
X94919451Y-118968123D01*
X94924433Y-118970446D01*
X94924438Y-118970449D01*
X95076996Y-119041587D01*
X95126957Y-119064884D01*
X95132265Y-119066306D01*
X95132267Y-119066307D01*
X95342798Y-119122719D01*
X95342800Y-119122719D01*
X95348113Y-119124143D01*
X95576200Y-119144098D01*
X95804287Y-119124143D01*
X95809600Y-119122719D01*
X95809602Y-119122719D01*
X96020133Y-119066307D01*
X96020135Y-119066306D01*
X96025443Y-119064884D01*
X96075404Y-119041587D01*
X96227962Y-118970449D01*
X96227967Y-118970446D01*
X96232949Y-118968123D01*
X96337811Y-118894698D01*
X96415989Y-118839957D01*
X96415992Y-118839955D01*
X96420500Y-118836798D01*
X96582398Y-118674900D01*
X96713723Y-118487349D01*
X96716046Y-118482367D01*
X96716049Y-118482362D01*
X96732005Y-118448143D01*
X96778922Y-118394858D01*
X96847199Y-118375397D01*
X96915159Y-118395939D01*
X96960395Y-118448143D01*
X96976351Y-118482362D01*
X96976354Y-118482367D01*
X96978677Y-118487349D01*
X97110002Y-118674900D01*
X97271900Y-118836798D01*
X97276408Y-118839955D01*
X97276411Y-118839957D01*
X97354589Y-118894698D01*
X97459451Y-118968123D01*
X97464433Y-118970446D01*
X97464438Y-118970449D01*
X97616996Y-119041587D01*
X97666957Y-119064884D01*
X97672265Y-119066306D01*
X97672267Y-119066307D01*
X97882798Y-119122719D01*
X97882800Y-119122719D01*
X97888113Y-119124143D01*
X98116200Y-119144098D01*
X98344287Y-119124143D01*
X98349600Y-119122719D01*
X98349602Y-119122719D01*
X98560133Y-119066307D01*
X98560135Y-119066306D01*
X98565443Y-119064884D01*
X98615404Y-119041587D01*
X98767962Y-118970449D01*
X98767967Y-118970446D01*
X98772949Y-118968123D01*
X98877811Y-118894698D01*
X98955989Y-118839957D01*
X98955992Y-118839955D01*
X98960500Y-118836798D01*
X99122398Y-118674900D01*
X99253723Y-118487349D01*
X99256046Y-118482367D01*
X99256049Y-118482362D01*
X99272005Y-118448143D01*
X99318922Y-118394858D01*
X99387199Y-118375397D01*
X99455159Y-118395939D01*
X99500395Y-118448143D01*
X99516351Y-118482362D01*
X99516354Y-118482367D01*
X99518677Y-118487349D01*
X99650002Y-118674900D01*
X99811900Y-118836798D01*
X99816408Y-118839955D01*
X99816411Y-118839957D01*
X99894589Y-118894698D01*
X99999451Y-118968123D01*
X100004433Y-118970446D01*
X100004438Y-118970449D01*
X100156996Y-119041587D01*
X100206957Y-119064884D01*
X100212265Y-119066306D01*
X100212267Y-119066307D01*
X100422798Y-119122719D01*
X100422800Y-119122719D01*
X100428113Y-119124143D01*
X100656200Y-119144098D01*
X100884287Y-119124143D01*
X100889600Y-119122719D01*
X100889602Y-119122719D01*
X101100133Y-119066307D01*
X101100135Y-119066306D01*
X101105443Y-119064884D01*
X101155404Y-119041587D01*
X101307962Y-118970449D01*
X101307967Y-118970446D01*
X101312949Y-118968123D01*
X101417811Y-118894698D01*
X101495989Y-118839957D01*
X101495992Y-118839955D01*
X101500500Y-118836798D01*
X101662398Y-118674900D01*
X101793723Y-118487349D01*
X101796046Y-118482367D01*
X101796049Y-118482362D01*
X101888161Y-118284825D01*
X101888161Y-118284824D01*
X101890484Y-118279843D01*
X101949743Y-118058687D01*
X101969698Y-117830600D01*
X101949743Y-117602513D01*
X101890484Y-117381357D01*
X101796166Y-117179089D01*
X101796049Y-117178838D01*
X101796046Y-117178833D01*
X101793723Y-117173851D01*
X101662398Y-116986300D01*
X101500500Y-116824402D01*
X101495992Y-116821245D01*
X101495989Y-116821243D01*
X101417811Y-116766502D01*
X101312949Y-116693077D01*
X101307967Y-116690754D01*
X101307962Y-116690751D01*
X101110425Y-116598639D01*
X101110424Y-116598639D01*
X101105443Y-116596316D01*
X101100135Y-116594894D01*
X101100133Y-116594893D01*
X100889602Y-116538481D01*
X100889600Y-116538481D01*
X100884287Y-116537057D01*
X100656200Y-116517102D01*
X100428113Y-116537057D01*
X100422800Y-116538481D01*
X100422798Y-116538481D01*
X100212267Y-116594893D01*
X100212265Y-116594894D01*
X100206957Y-116596316D01*
X100201976Y-116598639D01*
X100201975Y-116598639D01*
X100004438Y-116690751D01*
X100004433Y-116690754D01*
X99999451Y-116693077D01*
X99894589Y-116766502D01*
X99816411Y-116821243D01*
X99816408Y-116821245D01*
X99811900Y-116824402D01*
X99650002Y-116986300D01*
X99518677Y-117173851D01*
X99516354Y-117178833D01*
X99516351Y-117178838D01*
X99500395Y-117213057D01*
X99453478Y-117266342D01*
X99385201Y-117285803D01*
X99317241Y-117265261D01*
X99272005Y-117213057D01*
X99256049Y-117178838D01*
X99256046Y-117178833D01*
X99253723Y-117173851D01*
X99122398Y-116986300D01*
X98960500Y-116824402D01*
X98955992Y-116821245D01*
X98955989Y-116821243D01*
X98877811Y-116766502D01*
X98772949Y-116693077D01*
X98767967Y-116690754D01*
X98767962Y-116690751D01*
X98570425Y-116598639D01*
X98570424Y-116598639D01*
X98565443Y-116596316D01*
X98560135Y-116594894D01*
X98560133Y-116594893D01*
X98349602Y-116538481D01*
X98349600Y-116538481D01*
X98344287Y-116537057D01*
X98116200Y-116517102D01*
X97888113Y-116537057D01*
X97882800Y-116538481D01*
X97882798Y-116538481D01*
X97672267Y-116594893D01*
X97672265Y-116594894D01*
X97666957Y-116596316D01*
X97661976Y-116598639D01*
X97661975Y-116598639D01*
X97464438Y-116690751D01*
X97464433Y-116690754D01*
X97459451Y-116693077D01*
X97354589Y-116766502D01*
X97276411Y-116821243D01*
X97276408Y-116821245D01*
X97271900Y-116824402D01*
X97110002Y-116986300D01*
X96978677Y-117173851D01*
X96976354Y-117178833D01*
X96976351Y-117178838D01*
X96960395Y-117213057D01*
X96913478Y-117266342D01*
X96845201Y-117285803D01*
X96777241Y-117265261D01*
X96732005Y-117213057D01*
X96716049Y-117178838D01*
X96716046Y-117178833D01*
X96713723Y-117173851D01*
X96582398Y-116986300D01*
X96420500Y-116824402D01*
X96415992Y-116821245D01*
X96415989Y-116821243D01*
X96337811Y-116766502D01*
X96232949Y-116693077D01*
X96227967Y-116690754D01*
X96227962Y-116690751D01*
X96030425Y-116598639D01*
X96030424Y-116598639D01*
X96025443Y-116596316D01*
X96020135Y-116594894D01*
X96020133Y-116594893D01*
X95809602Y-116538481D01*
X95809600Y-116538481D01*
X95804287Y-116537057D01*
X95576200Y-116517102D01*
X95348113Y-116537057D01*
X95342800Y-116538481D01*
X95342798Y-116538481D01*
X95132267Y-116594893D01*
X95132265Y-116594894D01*
X95126957Y-116596316D01*
X95121976Y-116598639D01*
X95121975Y-116598639D01*
X94924438Y-116690751D01*
X94924433Y-116690754D01*
X94919451Y-116693077D01*
X94814589Y-116766502D01*
X94736411Y-116821243D01*
X94736408Y-116821245D01*
X94731900Y-116824402D01*
X94570002Y-116986300D01*
X94438677Y-117173851D01*
X94436354Y-117178833D01*
X94436351Y-117178838D01*
X94420119Y-117213649D01*
X94373202Y-117266934D01*
X94304925Y-117286395D01*
X94236965Y-117265853D01*
X94191729Y-117213649D01*
X94175614Y-117179089D01*
X94170131Y-117169593D01*
X94045172Y-116991133D01*
X94038116Y-116982725D01*
X93884075Y-116828684D01*
X93875667Y-116821628D01*
X93697207Y-116696669D01*
X93687711Y-116691186D01*
X93490253Y-116599110D01*
X93479961Y-116595364D01*
X93307697Y-116549206D01*
X93293601Y-116549542D01*
X93290200Y-116557484D01*
X93290200Y-119098567D01*
X92782200Y-119098567D01*
X92782200Y-116562633D01*
X92778227Y-116549102D01*
X92769678Y-116547873D01*
X92592439Y-116595364D01*
X92582147Y-116599110D01*
X92384689Y-116691186D01*
X92375193Y-116696669D01*
X92196733Y-116821628D01*
X92188325Y-116828684D01*
X92034284Y-116982725D01*
X92027228Y-116991133D01*
X91902269Y-117169593D01*
X91896786Y-117179089D01*
X91880671Y-117213649D01*
X91833754Y-117266934D01*
X91765477Y-117286395D01*
X91697517Y-117265853D01*
X91652281Y-117213649D01*
X91636049Y-117178838D01*
X91636046Y-117178833D01*
X91633723Y-117173851D01*
X91502398Y-116986300D01*
X91340500Y-116824402D01*
X91335992Y-116821245D01*
X91335989Y-116821243D01*
X91257811Y-116766502D01*
X91152949Y-116693077D01*
X91147967Y-116690754D01*
X91147962Y-116690751D01*
X90950425Y-116598639D01*
X90950424Y-116598639D01*
X90945443Y-116596316D01*
X90940135Y-116594894D01*
X90940133Y-116594893D01*
X90729602Y-116538481D01*
X90729600Y-116538481D01*
X90724287Y-116537057D01*
X90496200Y-116517102D01*
X90268113Y-116537057D01*
X90262800Y-116538481D01*
X90262798Y-116538481D01*
X90052267Y-116594893D01*
X90052265Y-116594894D01*
X90046957Y-116596316D01*
X90041976Y-116598639D01*
X90041975Y-116598639D01*
X89844438Y-116690751D01*
X89844433Y-116690754D01*
X89839451Y-116693077D01*
X89734589Y-116766502D01*
X89656411Y-116821243D01*
X89656408Y-116821245D01*
X89651900Y-116824402D01*
X89490002Y-116986300D01*
X89358677Y-117173851D01*
X89356354Y-117178833D01*
X89356351Y-117178838D01*
X89340395Y-117213057D01*
X89293478Y-117266342D01*
X89225201Y-117285803D01*
X89157241Y-117265261D01*
X89112005Y-117213057D01*
X89096049Y-117178838D01*
X89096046Y-117178833D01*
X89093723Y-117173851D01*
X88962398Y-116986300D01*
X88800500Y-116824402D01*
X88795992Y-116821245D01*
X88795989Y-116821243D01*
X88717811Y-116766502D01*
X88612949Y-116693077D01*
X88607967Y-116690754D01*
X88607962Y-116690751D01*
X88410425Y-116598639D01*
X88410424Y-116598639D01*
X88405443Y-116596316D01*
X88400135Y-116594894D01*
X88400133Y-116594893D01*
X88189602Y-116538481D01*
X88189600Y-116538481D01*
X88184287Y-116537057D01*
X87956200Y-116517102D01*
X87728113Y-116537057D01*
X87722800Y-116538481D01*
X87722798Y-116538481D01*
X87512267Y-116594893D01*
X87512265Y-116594894D01*
X87506957Y-116596316D01*
X87501976Y-116598639D01*
X87501975Y-116598639D01*
X87304438Y-116690751D01*
X87304433Y-116690754D01*
X87299451Y-116693077D01*
X87194589Y-116766502D01*
X87116411Y-116821243D01*
X87116408Y-116821245D01*
X87111900Y-116824402D01*
X86950002Y-116986300D01*
X86818677Y-117173851D01*
X86816354Y-117178833D01*
X86816351Y-117178838D01*
X86800395Y-117213057D01*
X86753478Y-117266342D01*
X86685201Y-117285803D01*
X86617241Y-117265261D01*
X86572005Y-117213057D01*
X86556049Y-117178838D01*
X86556046Y-117178833D01*
X86553723Y-117173851D01*
X86422398Y-116986300D01*
X86260500Y-116824402D01*
X86255992Y-116821245D01*
X86255989Y-116821243D01*
X86177811Y-116766502D01*
X86072949Y-116693077D01*
X86067967Y-116690754D01*
X86067962Y-116690751D01*
X85870425Y-116598639D01*
X85870424Y-116598639D01*
X85865443Y-116596316D01*
X85860135Y-116594894D01*
X85860133Y-116594893D01*
X85649602Y-116538481D01*
X85649600Y-116538481D01*
X85644287Y-116537057D01*
X85416200Y-116517102D01*
X85188113Y-116537057D01*
X85182800Y-116538481D01*
X85182798Y-116538481D01*
X84972267Y-116594893D01*
X84972265Y-116594894D01*
X84966957Y-116596316D01*
X84961976Y-116598639D01*
X84961975Y-116598639D01*
X84764438Y-116690751D01*
X84764433Y-116690754D01*
X84759451Y-116693077D01*
X84654589Y-116766502D01*
X84576411Y-116821243D01*
X84576408Y-116821245D01*
X84571900Y-116824402D01*
X84410002Y-116986300D01*
X84278677Y-117173851D01*
X84276354Y-117178833D01*
X84276351Y-117178838D01*
X84260395Y-117213057D01*
X84213478Y-117266342D01*
X84145201Y-117285803D01*
X84077241Y-117265261D01*
X84032005Y-117213057D01*
X84016049Y-117178838D01*
X84016046Y-117178833D01*
X84013723Y-117173851D01*
X83882398Y-116986300D01*
X83720500Y-116824402D01*
X83715992Y-116821245D01*
X83715989Y-116821243D01*
X83637811Y-116766502D01*
X83532949Y-116693077D01*
X83527967Y-116690754D01*
X83527962Y-116690751D01*
X83330425Y-116598639D01*
X83330424Y-116598639D01*
X83325443Y-116596316D01*
X83320135Y-116594894D01*
X83320133Y-116594893D01*
X83109602Y-116538481D01*
X83109600Y-116538481D01*
X83104287Y-116537057D01*
X82876200Y-116517102D01*
X82648113Y-116537057D01*
X82642800Y-116538481D01*
X82642798Y-116538481D01*
X82432267Y-116594893D01*
X82432265Y-116594894D01*
X82426957Y-116596316D01*
X82421976Y-116598639D01*
X82421975Y-116598639D01*
X82224438Y-116690751D01*
X82224433Y-116690754D01*
X82219451Y-116693077D01*
X82114589Y-116766502D01*
X82036411Y-116821243D01*
X82036408Y-116821245D01*
X82031900Y-116824402D01*
X81870002Y-116986300D01*
X81738677Y-117173851D01*
X81736354Y-117178833D01*
X81736351Y-117178838D01*
X81720395Y-117213057D01*
X81673478Y-117266342D01*
X81605201Y-117285803D01*
X81537241Y-117265261D01*
X81492005Y-117213057D01*
X81476049Y-117178838D01*
X81476046Y-117178833D01*
X81473723Y-117173851D01*
X81342398Y-116986300D01*
X81180500Y-116824402D01*
X81175992Y-116821245D01*
X81175989Y-116821243D01*
X81097811Y-116766502D01*
X80992949Y-116693077D01*
X80987967Y-116690754D01*
X80987962Y-116690751D01*
X80790425Y-116598639D01*
X80790424Y-116598639D01*
X80785443Y-116596316D01*
X80780135Y-116594894D01*
X80780133Y-116594893D01*
X80569602Y-116538481D01*
X80569600Y-116538481D01*
X80564287Y-116537057D01*
X80336200Y-116517102D01*
X80108113Y-116537057D01*
X80102800Y-116538481D01*
X80102798Y-116538481D01*
X79892267Y-116594893D01*
X79892265Y-116594894D01*
X79886957Y-116596316D01*
X79881976Y-116598639D01*
X79881975Y-116598639D01*
X79684438Y-116690751D01*
X79684433Y-116690754D01*
X79679451Y-116693077D01*
X79574589Y-116766502D01*
X79496411Y-116821243D01*
X79496408Y-116821245D01*
X79491900Y-116824402D01*
X79330002Y-116986300D01*
X79198677Y-117173851D01*
X79196354Y-117178833D01*
X79196351Y-117178838D01*
X79180395Y-117213057D01*
X79133478Y-117266342D01*
X79065201Y-117285803D01*
X78997241Y-117265261D01*
X78952005Y-117213057D01*
X78936049Y-117178838D01*
X78936046Y-117178833D01*
X78933723Y-117173851D01*
X78802398Y-116986300D01*
X78640500Y-116824402D01*
X78635992Y-116821245D01*
X78635989Y-116821243D01*
X78557811Y-116766502D01*
X78452949Y-116693077D01*
X78447967Y-116690754D01*
X78447962Y-116690751D01*
X78250425Y-116598639D01*
X78250424Y-116598639D01*
X78245443Y-116596316D01*
X78240135Y-116594894D01*
X78240133Y-116594893D01*
X78029602Y-116538481D01*
X78029600Y-116538481D01*
X78024287Y-116537057D01*
X77796200Y-116517102D01*
X77568113Y-116537057D01*
X77562800Y-116538481D01*
X77562798Y-116538481D01*
X77352267Y-116594893D01*
X77352265Y-116594894D01*
X77346957Y-116596316D01*
X77341976Y-116598639D01*
X77341975Y-116598639D01*
X77144438Y-116690751D01*
X77144433Y-116690754D01*
X77139451Y-116693077D01*
X77034589Y-116766502D01*
X76956411Y-116821243D01*
X76956408Y-116821245D01*
X76951900Y-116824402D01*
X76790002Y-116986300D01*
X76658677Y-117173851D01*
X76656354Y-117178833D01*
X76656351Y-117178838D01*
X76656234Y-117179089D01*
X76561916Y-117381357D01*
X76502657Y-117602513D01*
X76482702Y-117830600D01*
X75049698Y-117830600D01*
X75029743Y-117602513D01*
X74970484Y-117381357D01*
X74876166Y-117179089D01*
X74876049Y-117178838D01*
X74876046Y-117178833D01*
X74873723Y-117173851D01*
X74742398Y-116986300D01*
X74580500Y-116824402D01*
X74575992Y-116821245D01*
X74575989Y-116821243D01*
X74497811Y-116766502D01*
X74392949Y-116693077D01*
X74387967Y-116690754D01*
X74387962Y-116690751D01*
X74190425Y-116598639D01*
X74190424Y-116598639D01*
X74185443Y-116596316D01*
X74180135Y-116594894D01*
X74180133Y-116594893D01*
X73969602Y-116538481D01*
X73969600Y-116538481D01*
X73964287Y-116537057D01*
X73736200Y-116517102D01*
X73508113Y-116537057D01*
X73502800Y-116538481D01*
X73502798Y-116538481D01*
X73292267Y-116594893D01*
X73292265Y-116594894D01*
X73286957Y-116596316D01*
X73281976Y-116598639D01*
X73281975Y-116598639D01*
X73084438Y-116690751D01*
X73084433Y-116690754D01*
X73079451Y-116693077D01*
X72974589Y-116766502D01*
X72896411Y-116821243D01*
X72896408Y-116821245D01*
X72891900Y-116824402D01*
X72730002Y-116986300D01*
X72598677Y-117173851D01*
X72596354Y-117178833D01*
X72596351Y-117178838D01*
X72580395Y-117213057D01*
X72533478Y-117266342D01*
X72465201Y-117285803D01*
X72397241Y-117265261D01*
X72352005Y-117213057D01*
X72336049Y-117178838D01*
X72336046Y-117178833D01*
X72333723Y-117173851D01*
X72202398Y-116986300D01*
X72040500Y-116824402D01*
X72035992Y-116821245D01*
X72035989Y-116821243D01*
X71957811Y-116766502D01*
X71852949Y-116693077D01*
X71847967Y-116690754D01*
X71847962Y-116690751D01*
X71650425Y-116598639D01*
X71650424Y-116598639D01*
X71645443Y-116596316D01*
X71640135Y-116594894D01*
X71640133Y-116594893D01*
X71429602Y-116538481D01*
X71429600Y-116538481D01*
X71424287Y-116537057D01*
X71196200Y-116517102D01*
X70968113Y-116537057D01*
X70962800Y-116538481D01*
X70962798Y-116538481D01*
X70752267Y-116594893D01*
X70752265Y-116594894D01*
X70746957Y-116596316D01*
X70741976Y-116598639D01*
X70741975Y-116598639D01*
X70544438Y-116690751D01*
X70544433Y-116690754D01*
X70539451Y-116693077D01*
X70434589Y-116766502D01*
X70356411Y-116821243D01*
X70356408Y-116821245D01*
X70351900Y-116824402D01*
X70190002Y-116986300D01*
X70058677Y-117173851D01*
X70056354Y-117178833D01*
X70056351Y-117178838D01*
X70040395Y-117213057D01*
X69993478Y-117266342D01*
X69925201Y-117285803D01*
X69857241Y-117265261D01*
X69812005Y-117213057D01*
X69796049Y-117178838D01*
X69796046Y-117178833D01*
X69793723Y-117173851D01*
X69662398Y-116986300D01*
X69500500Y-116824402D01*
X69495992Y-116821245D01*
X69495989Y-116821243D01*
X69417811Y-116766502D01*
X69312949Y-116693077D01*
X69307967Y-116690754D01*
X69307962Y-116690751D01*
X69110425Y-116598639D01*
X69110424Y-116598639D01*
X69105443Y-116596316D01*
X69100135Y-116594894D01*
X69100133Y-116594893D01*
X68889602Y-116538481D01*
X68889600Y-116538481D01*
X68884287Y-116537057D01*
X68656200Y-116517102D01*
X68428113Y-116537057D01*
X68422800Y-116538481D01*
X68422798Y-116538481D01*
X68212267Y-116594893D01*
X68212265Y-116594894D01*
X68206957Y-116596316D01*
X68201976Y-116598639D01*
X68201975Y-116598639D01*
X68004438Y-116690751D01*
X68004433Y-116690754D01*
X67999451Y-116693077D01*
X67894589Y-116766502D01*
X67816411Y-116821243D01*
X67816408Y-116821245D01*
X67811900Y-116824402D01*
X67650002Y-116986300D01*
X67518677Y-117173851D01*
X67516354Y-117178833D01*
X67516351Y-117178838D01*
X67500395Y-117213057D01*
X67453478Y-117266342D01*
X67385201Y-117285803D01*
X67317241Y-117265261D01*
X67272005Y-117213057D01*
X67256049Y-117178838D01*
X67256046Y-117178833D01*
X67253723Y-117173851D01*
X67122398Y-116986300D01*
X66960500Y-116824402D01*
X66955992Y-116821245D01*
X66955989Y-116821243D01*
X66877811Y-116766502D01*
X66772949Y-116693077D01*
X66767967Y-116690754D01*
X66767962Y-116690751D01*
X66570425Y-116598639D01*
X66570424Y-116598639D01*
X66565443Y-116596316D01*
X66560135Y-116594894D01*
X66560133Y-116594893D01*
X66349602Y-116538481D01*
X66349600Y-116538481D01*
X66344287Y-116537057D01*
X66116200Y-116517102D01*
X65888113Y-116537057D01*
X65882800Y-116538481D01*
X65882798Y-116538481D01*
X65672267Y-116594893D01*
X65672265Y-116594894D01*
X65666957Y-116596316D01*
X65661976Y-116598639D01*
X65661975Y-116598639D01*
X65464438Y-116690751D01*
X65464433Y-116690754D01*
X65459451Y-116693077D01*
X65354589Y-116766502D01*
X65276411Y-116821243D01*
X65276408Y-116821245D01*
X65271900Y-116824402D01*
X65110002Y-116986300D01*
X64978677Y-117173851D01*
X64976354Y-117178833D01*
X64976351Y-117178838D01*
X64960395Y-117213057D01*
X64913478Y-117266342D01*
X64845201Y-117285803D01*
X64777241Y-117265261D01*
X64732005Y-117213057D01*
X64716049Y-117178838D01*
X64716046Y-117178833D01*
X64713723Y-117173851D01*
X64582398Y-116986300D01*
X64420500Y-116824402D01*
X64415992Y-116821245D01*
X64415989Y-116821243D01*
X64337811Y-116766502D01*
X64232949Y-116693077D01*
X64227967Y-116690754D01*
X64227962Y-116690751D01*
X64030425Y-116598639D01*
X64030424Y-116598639D01*
X64025443Y-116596316D01*
X64020135Y-116594894D01*
X64020133Y-116594893D01*
X63809602Y-116538481D01*
X63809600Y-116538481D01*
X63804287Y-116537057D01*
X63576200Y-116517102D01*
X63348113Y-116537057D01*
X63342800Y-116538481D01*
X63342798Y-116538481D01*
X63132267Y-116594893D01*
X63132265Y-116594894D01*
X63126957Y-116596316D01*
X63121976Y-116598639D01*
X63121975Y-116598639D01*
X62924438Y-116690751D01*
X62924433Y-116690754D01*
X62919451Y-116693077D01*
X62814589Y-116766502D01*
X62736411Y-116821243D01*
X62736408Y-116821245D01*
X62731900Y-116824402D01*
X62570002Y-116986300D01*
X62438677Y-117173851D01*
X62436354Y-117178833D01*
X62436351Y-117178838D01*
X62420395Y-117213057D01*
X62373478Y-117266342D01*
X62305201Y-117285803D01*
X62237241Y-117265261D01*
X62192005Y-117213057D01*
X62176049Y-117178838D01*
X62176046Y-117178833D01*
X62173723Y-117173851D01*
X62042398Y-116986300D01*
X61880500Y-116824402D01*
X61875992Y-116821245D01*
X61875989Y-116821243D01*
X61797811Y-116766502D01*
X61692949Y-116693077D01*
X61687967Y-116690754D01*
X61687962Y-116690751D01*
X61490425Y-116598639D01*
X61490424Y-116598639D01*
X61485443Y-116596316D01*
X61480135Y-116594894D01*
X61480133Y-116594893D01*
X61269602Y-116538481D01*
X61269600Y-116538481D01*
X61264287Y-116537057D01*
X61036200Y-116517102D01*
X60808113Y-116537057D01*
X60802800Y-116538481D01*
X60802798Y-116538481D01*
X60592267Y-116594893D01*
X60592265Y-116594894D01*
X60586957Y-116596316D01*
X60581976Y-116598639D01*
X60581975Y-116598639D01*
X60384438Y-116690751D01*
X60384433Y-116690754D01*
X60379451Y-116693077D01*
X60274589Y-116766502D01*
X60196411Y-116821243D01*
X60196408Y-116821245D01*
X60191900Y-116824402D01*
X60030002Y-116986300D01*
X59898677Y-117173851D01*
X59896354Y-117178833D01*
X59896351Y-117178838D01*
X59880395Y-117213057D01*
X59833478Y-117266342D01*
X59765201Y-117285803D01*
X59697241Y-117265261D01*
X59652005Y-117213057D01*
X59636049Y-117178838D01*
X59636046Y-117178833D01*
X59633723Y-117173851D01*
X59502398Y-116986300D01*
X59340500Y-116824402D01*
X59335992Y-116821245D01*
X59335989Y-116821243D01*
X59257811Y-116766502D01*
X59152949Y-116693077D01*
X59147967Y-116690754D01*
X59147962Y-116690751D01*
X58950425Y-116598639D01*
X58950424Y-116598639D01*
X58945443Y-116596316D01*
X58940135Y-116594894D01*
X58940133Y-116594893D01*
X58729602Y-116538481D01*
X58729600Y-116538481D01*
X58724287Y-116537057D01*
X58496200Y-116517102D01*
X58268113Y-116537057D01*
X58262800Y-116538481D01*
X58262798Y-116538481D01*
X58052267Y-116594893D01*
X58052265Y-116594894D01*
X58046957Y-116596316D01*
X58041976Y-116598639D01*
X58041975Y-116598639D01*
X57844438Y-116690751D01*
X57844433Y-116690754D01*
X57839451Y-116693077D01*
X57734589Y-116766502D01*
X57656411Y-116821243D01*
X57656408Y-116821245D01*
X57651900Y-116824402D01*
X57490002Y-116986300D01*
X57358677Y-117173851D01*
X57356354Y-117178833D01*
X57356351Y-117178838D01*
X57340395Y-117213057D01*
X57293478Y-117266342D01*
X57225201Y-117285803D01*
X57157241Y-117265261D01*
X57112005Y-117213057D01*
X57096049Y-117178838D01*
X57096046Y-117178833D01*
X57093723Y-117173851D01*
X56962398Y-116986300D01*
X56800500Y-116824402D01*
X56795992Y-116821245D01*
X56795989Y-116821243D01*
X56717811Y-116766502D01*
X56612949Y-116693077D01*
X56607967Y-116690754D01*
X56607962Y-116690751D01*
X56410425Y-116598639D01*
X56410424Y-116598639D01*
X56405443Y-116596316D01*
X56400135Y-116594894D01*
X56400133Y-116594893D01*
X56189602Y-116538481D01*
X56189600Y-116538481D01*
X56184287Y-116537057D01*
X55956200Y-116517102D01*
X55728113Y-116537057D01*
X55722800Y-116538481D01*
X55722798Y-116538481D01*
X55512267Y-116594893D01*
X55512265Y-116594894D01*
X55506957Y-116596316D01*
X55501976Y-116598639D01*
X55501975Y-116598639D01*
X55304438Y-116690751D01*
X55304433Y-116690754D01*
X55299451Y-116693077D01*
X55194589Y-116766502D01*
X55116411Y-116821243D01*
X55116408Y-116821245D01*
X55111900Y-116824402D01*
X54950002Y-116986300D01*
X54818677Y-117173851D01*
X54816354Y-117178833D01*
X54816351Y-117178838D01*
X54816234Y-117179089D01*
X54721916Y-117381357D01*
X54662657Y-117602513D01*
X54642702Y-117830600D01*
X53569100Y-117830600D01*
X53569100Y-112626470D01*
X54683160Y-112626470D01*
X54688887Y-112634120D01*
X54860042Y-112739005D01*
X54868837Y-112743487D01*
X55078988Y-112830534D01*
X55088373Y-112833583D01*
X55309554Y-112886685D01*
X55319301Y-112888228D01*
X55546070Y-112906075D01*
X55555930Y-112906075D01*
X55782699Y-112888228D01*
X55792446Y-112886685D01*
X56013627Y-112833583D01*
X56023012Y-112830534D01*
X56233163Y-112743487D01*
X56241958Y-112739005D01*
X56409445Y-112636368D01*
X56418400Y-112626470D01*
X61183160Y-112626470D01*
X61188887Y-112634120D01*
X61360042Y-112739005D01*
X61368837Y-112743487D01*
X61578988Y-112830534D01*
X61588373Y-112833583D01*
X61809554Y-112886685D01*
X61819301Y-112888228D01*
X62046070Y-112906075D01*
X62055930Y-112906075D01*
X62282699Y-112888228D01*
X62292446Y-112886685D01*
X62513627Y-112833583D01*
X62523012Y-112830534D01*
X62733163Y-112743487D01*
X62741958Y-112739005D01*
X62909445Y-112636368D01*
X62918907Y-112625910D01*
X62915124Y-112617134D01*
X62063812Y-111765822D01*
X62049868Y-111758208D01*
X62048035Y-111758339D01*
X62041420Y-111762590D01*
X61189920Y-112614090D01*
X61183160Y-112626470D01*
X56418400Y-112626470D01*
X56418907Y-112625910D01*
X56415124Y-112617134D01*
X55563812Y-111765822D01*
X55549868Y-111758208D01*
X55548035Y-111758339D01*
X55541420Y-111762590D01*
X54689920Y-112614090D01*
X54683160Y-112626470D01*
X53569100Y-112626470D01*
X53569100Y-111398730D01*
X54038725Y-111398730D01*
X54056572Y-111625499D01*
X54058115Y-111635246D01*
X54111217Y-111856427D01*
X54114266Y-111865812D01*
X54201313Y-112075963D01*
X54205795Y-112084758D01*
X54308432Y-112252245D01*
X54318890Y-112261707D01*
X54327666Y-112257924D01*
X55178978Y-111406612D01*
X55185356Y-111394932D01*
X55915408Y-111394932D01*
X55915539Y-111396765D01*
X55919790Y-111403380D01*
X56771290Y-112254880D01*
X56783670Y-112261640D01*
X56791320Y-112255913D01*
X56896205Y-112084758D01*
X56900687Y-112075963D01*
X56987734Y-111865812D01*
X56990783Y-111856427D01*
X57043885Y-111635246D01*
X57045428Y-111625499D01*
X57063275Y-111398730D01*
X60538725Y-111398730D01*
X60556572Y-111625499D01*
X60558115Y-111635246D01*
X60611217Y-111856427D01*
X60614266Y-111865812D01*
X60701313Y-112075963D01*
X60705795Y-112084758D01*
X60808432Y-112252245D01*
X60818890Y-112261707D01*
X60827666Y-112257924D01*
X61678978Y-111406612D01*
X61685356Y-111394932D01*
X62415408Y-111394932D01*
X62415539Y-111396765D01*
X62419790Y-111403380D01*
X63271290Y-112254880D01*
X63283670Y-112261640D01*
X63291320Y-112255913D01*
X63396205Y-112084758D01*
X63400687Y-112075963D01*
X63487734Y-111865812D01*
X63490783Y-111856427D01*
X63543885Y-111635246D01*
X63545428Y-111625499D01*
X63563275Y-111398730D01*
X63563275Y-111388870D01*
X63545428Y-111162101D01*
X63543885Y-111152354D01*
X63490783Y-110931173D01*
X63487734Y-110921788D01*
X63400687Y-110711637D01*
X63396205Y-110702842D01*
X63293568Y-110535355D01*
X63283110Y-110525893D01*
X63274334Y-110529676D01*
X62423022Y-111380988D01*
X62415408Y-111394932D01*
X61685356Y-111394932D01*
X61686592Y-111392668D01*
X61686461Y-111390835D01*
X61682210Y-111384220D01*
X60830710Y-110532720D01*
X60818330Y-110525960D01*
X60810680Y-110531687D01*
X60705795Y-110702842D01*
X60701313Y-110711637D01*
X60614266Y-110921788D01*
X60611217Y-110931173D01*
X60558115Y-111152354D01*
X60556572Y-111162101D01*
X60538725Y-111388870D01*
X60538725Y-111398730D01*
X57063275Y-111398730D01*
X57063275Y-111388870D01*
X57045428Y-111162101D01*
X57043885Y-111152354D01*
X56990783Y-110931173D01*
X56987734Y-110921788D01*
X56900687Y-110711637D01*
X56896205Y-110702842D01*
X56793568Y-110535355D01*
X56783110Y-110525893D01*
X56774334Y-110529676D01*
X55923022Y-111380988D01*
X55915408Y-111394932D01*
X55185356Y-111394932D01*
X55186592Y-111392668D01*
X55186461Y-111390835D01*
X55182210Y-111384220D01*
X54330710Y-110532720D01*
X54318330Y-110525960D01*
X54310680Y-110531687D01*
X54205795Y-110702842D01*
X54201313Y-110711637D01*
X54114266Y-110921788D01*
X54111217Y-110931173D01*
X54058115Y-111152354D01*
X54056572Y-111162101D01*
X54038725Y-111388870D01*
X54038725Y-111398730D01*
X53569100Y-111398730D01*
X53569100Y-110161690D01*
X54683093Y-110161690D01*
X54686876Y-110170466D01*
X55538188Y-111021778D01*
X55552132Y-111029392D01*
X55553965Y-111029261D01*
X55560580Y-111025010D01*
X56412080Y-110173510D01*
X56418534Y-110161690D01*
X61183093Y-110161690D01*
X61186876Y-110170466D01*
X62038188Y-111021778D01*
X62052132Y-111029392D01*
X62053965Y-111029261D01*
X62060580Y-111025010D01*
X62599190Y-110486400D01*
X94510300Y-110486400D01*
X94510637Y-110489646D01*
X94510637Y-110489650D01*
X94519675Y-110576752D01*
X94521274Y-110592166D01*
X94523455Y-110598702D01*
X94523455Y-110598704D01*
X94558833Y-110704744D01*
X94577250Y-110759946D01*
X94670322Y-110910348D01*
X94795497Y-111035305D01*
X94801727Y-111039145D01*
X94801728Y-111039146D01*
X94938890Y-111123694D01*
X94946062Y-111128115D01*
X94980399Y-111139504D01*
X95107411Y-111181632D01*
X95107413Y-111181632D01*
X95113939Y-111183797D01*
X95120775Y-111184497D01*
X95120778Y-111184498D01*
X95156463Y-111188154D01*
X95218400Y-111194500D01*
X96519200Y-111194500D01*
X96522446Y-111194163D01*
X96522450Y-111194163D01*
X96618108Y-111184238D01*
X96618112Y-111184237D01*
X96624966Y-111183526D01*
X96631502Y-111181345D01*
X96631504Y-111181345D01*
X96782360Y-111131015D01*
X96792746Y-111127550D01*
X96943148Y-111034478D01*
X97068105Y-110909303D01*
X97157881Y-110763660D01*
X97210652Y-110716168D01*
X97280724Y-110704744D01*
X97345848Y-110733018D01*
X97356310Y-110742805D01*
X97394703Y-110783051D01*
X97465376Y-110857135D01*
X97650342Y-110994754D01*
X97655093Y-110997170D01*
X97655097Y-110997172D01*
X97718212Y-111029261D01*
X97855851Y-111099240D01*
X97860945Y-111100822D01*
X97860948Y-111100823D01*
X98026383Y-111152192D01*
X98076027Y-111167607D01*
X98081316Y-111168308D01*
X98299289Y-111197198D01*
X98299294Y-111197198D01*
X98304574Y-111197898D01*
X98309903Y-111197698D01*
X98309905Y-111197698D01*
X98419766Y-111193573D01*
X98534958Y-111189249D01*
X98557602Y-111184498D01*
X98755372Y-111143002D01*
X98760591Y-111141907D01*
X98765550Y-111139949D01*
X98765552Y-111139948D01*
X98970056Y-111059185D01*
X98970058Y-111059184D01*
X98975021Y-111057224D01*
X98980325Y-111054006D01*
X99167557Y-110940390D01*
X99167556Y-110940390D01*
X99172117Y-110937623D01*
X99198784Y-110914483D01*
X99342212Y-110790023D01*
X99342214Y-110790021D01*
X99346245Y-110786523D01*
X99414859Y-110702842D01*
X99489040Y-110612373D01*
X99489044Y-110612367D01*
X99492424Y-110608245D01*
X99510352Y-110576750D01*
X99561432Y-110527445D01*
X99631062Y-110513583D01*
X99697133Y-110539566D01*
X99724373Y-110568716D01*
X99806241Y-110690319D01*
X99809920Y-110694176D01*
X99809922Y-110694178D01*
X99846974Y-110733018D01*
X99965376Y-110857135D01*
X100150342Y-110994754D01*
X100155093Y-110997170D01*
X100155097Y-110997172D01*
X100218212Y-111029261D01*
X100355851Y-111099240D01*
X100360945Y-111100822D01*
X100360948Y-111100823D01*
X100526383Y-111152192D01*
X100576027Y-111167607D01*
X100581316Y-111168308D01*
X100799289Y-111197198D01*
X100799294Y-111197198D01*
X100804574Y-111197898D01*
X100809903Y-111197698D01*
X100809905Y-111197698D01*
X100919766Y-111193573D01*
X101034958Y-111189249D01*
X101057602Y-111184498D01*
X101255372Y-111143002D01*
X101260591Y-111141907D01*
X101265550Y-111139949D01*
X101265552Y-111139948D01*
X101470056Y-111059185D01*
X101470058Y-111059184D01*
X101475021Y-111057224D01*
X101480325Y-111054006D01*
X101667557Y-110940390D01*
X101667556Y-110940390D01*
X101672117Y-110937623D01*
X101698784Y-110914483D01*
X101842212Y-110790023D01*
X101842214Y-110790021D01*
X101846245Y-110786523D01*
X101914859Y-110702842D01*
X101989040Y-110612373D01*
X101989044Y-110612367D01*
X101992424Y-110608245D01*
X102005481Y-110585308D01*
X102010629Y-110576265D01*
X102061712Y-110526959D01*
X102131342Y-110513098D01*
X102197413Y-110539082D01*
X102224651Y-110568232D01*
X102303652Y-110685578D01*
X102310319Y-110693870D01*
X102462028Y-110852900D01*
X102469986Y-110859941D01*
X102646325Y-110991141D01*
X102655362Y-110996745D01*
X102851284Y-111096357D01*
X102861135Y-111100357D01*
X103071040Y-111165534D01*
X103081424Y-111167817D01*
X103096843Y-111169861D01*
X103111007Y-111167665D01*
X103114800Y-111154478D01*
X103114800Y-111152192D01*
X103622800Y-111152192D01*
X103626773Y-111165723D01*
X103637380Y-111167248D01*
X103755221Y-111142523D01*
X103765417Y-111139463D01*
X103969829Y-111058737D01*
X103979361Y-111054006D01*
X104167262Y-110939984D01*
X104175852Y-110933720D01*
X104341852Y-110789673D01*
X104349272Y-110782042D01*
X104488626Y-110612089D01*
X104494650Y-110603322D01*
X104603376Y-110412318D01*
X104607841Y-110402654D01*
X104682831Y-110196059D01*
X104685602Y-110185792D01*
X104722304Y-109982826D01*
X104720885Y-109969586D01*
X104706250Y-109965000D01*
X103640915Y-109965000D01*
X103625676Y-109969475D01*
X103624471Y-109970865D01*
X103622800Y-109978548D01*
X103622800Y-111152192D01*
X103114800Y-111152192D01*
X103114800Y-109438885D01*
X103622800Y-109438885D01*
X103627275Y-109454124D01*
X103628665Y-109455329D01*
X103636348Y-109457000D01*
X104702649Y-109457000D01*
X104717327Y-109452690D01*
X104719390Y-109440807D01*
X104712676Y-109361675D01*
X104710886Y-109351203D01*
X104655670Y-109138465D01*
X104652135Y-109128425D01*
X104561863Y-108928030D01*
X104556694Y-108918744D01*
X104433950Y-108736425D01*
X104427281Y-108728130D01*
X104275572Y-108569100D01*
X104267614Y-108562059D01*
X104091275Y-108430859D01*
X104082238Y-108425255D01*
X103886316Y-108325643D01*
X103876465Y-108321643D01*
X103666560Y-108256466D01*
X103656176Y-108254183D01*
X103640757Y-108252139D01*
X103626593Y-108254335D01*
X103622800Y-108267522D01*
X103622800Y-109438885D01*
X103114800Y-109438885D01*
X103114800Y-108269808D01*
X103110827Y-108256277D01*
X103100220Y-108254752D01*
X102982379Y-108279477D01*
X102972183Y-108282537D01*
X102767771Y-108363263D01*
X102758239Y-108367994D01*
X102570338Y-108482016D01*
X102561748Y-108488280D01*
X102395748Y-108632327D01*
X102388328Y-108639958D01*
X102248974Y-108809911D01*
X102242952Y-108818674D01*
X102227562Y-108845711D01*
X102176480Y-108895018D01*
X102106849Y-108908880D01*
X102040778Y-108882897D01*
X102013539Y-108853747D01*
X101977669Y-108800468D01*
X101931359Y-108731681D01*
X101872718Y-108670209D01*
X101843525Y-108639608D01*
X101772224Y-108564865D01*
X101587258Y-108427246D01*
X101582507Y-108424830D01*
X101582503Y-108424828D01*
X101464388Y-108364776D01*
X101381749Y-108322760D01*
X101376655Y-108321178D01*
X101376652Y-108321177D01*
X101166671Y-108255976D01*
X101161573Y-108254393D01*
X101156284Y-108253692D01*
X100938311Y-108224802D01*
X100938306Y-108224802D01*
X100933026Y-108224102D01*
X100927697Y-108224302D01*
X100927695Y-108224302D01*
X100817834Y-108228426D01*
X100702642Y-108232751D01*
X100697423Y-108233846D01*
X100675366Y-108238474D01*
X100477009Y-108280093D01*
X100472050Y-108282051D01*
X100472048Y-108282052D01*
X100267544Y-108362815D01*
X100267542Y-108362816D01*
X100262579Y-108364776D01*
X100258020Y-108367543D01*
X100258017Y-108367544D01*
X100162913Y-108425255D01*
X100065483Y-108484377D01*
X100061453Y-108487874D01*
X99968284Y-108568722D01*
X99891355Y-108635477D01*
X99887968Y-108639608D01*
X99748560Y-108809627D01*
X99748556Y-108809633D01*
X99745176Y-108813755D01*
X99727248Y-108845250D01*
X99676168Y-108894555D01*
X99606538Y-108908417D01*
X99540467Y-108882434D01*
X99513227Y-108853284D01*
X99486614Y-108813755D01*
X99431359Y-108731681D01*
X99372718Y-108670209D01*
X99343525Y-108639608D01*
X99272224Y-108564865D01*
X99087258Y-108427246D01*
X99082507Y-108424830D01*
X99082503Y-108424828D01*
X98964388Y-108364776D01*
X98881749Y-108322760D01*
X98876655Y-108321178D01*
X98876652Y-108321177D01*
X98666671Y-108255976D01*
X98661573Y-108254393D01*
X98656284Y-108253692D01*
X98438311Y-108224802D01*
X98438306Y-108224802D01*
X98433026Y-108224102D01*
X98427697Y-108224302D01*
X98427695Y-108224302D01*
X98317834Y-108228426D01*
X98202642Y-108232751D01*
X98197423Y-108233846D01*
X98175366Y-108238474D01*
X97977009Y-108280093D01*
X97972050Y-108282051D01*
X97972048Y-108282052D01*
X97767544Y-108362815D01*
X97767542Y-108362816D01*
X97762579Y-108364776D01*
X97758020Y-108367543D01*
X97758017Y-108367544D01*
X97662913Y-108425255D01*
X97565483Y-108484377D01*
X97561453Y-108487874D01*
X97468284Y-108568722D01*
X97391355Y-108635477D01*
X97362130Y-108671120D01*
X97303471Y-108711114D01*
X97232501Y-108713046D01*
X97171752Y-108676302D01*
X97157552Y-108657532D01*
X97071132Y-108517880D01*
X97067278Y-108511652D01*
X96942103Y-108386695D01*
X96911765Y-108367994D01*
X96797768Y-108297725D01*
X96797766Y-108297724D01*
X96791538Y-108293885D01*
X96678153Y-108256277D01*
X96630189Y-108240368D01*
X96630187Y-108240368D01*
X96623661Y-108238203D01*
X96616825Y-108237503D01*
X96616822Y-108237502D01*
X96573769Y-108233091D01*
X96519200Y-108227500D01*
X95218400Y-108227500D01*
X95215154Y-108227837D01*
X95215150Y-108227837D01*
X95119492Y-108237762D01*
X95119488Y-108237763D01*
X95112634Y-108238474D01*
X95106098Y-108240655D01*
X95106096Y-108240655D01*
X94973994Y-108284728D01*
X94944854Y-108294450D01*
X94794452Y-108387522D01*
X94669495Y-108512697D01*
X94665655Y-108518927D01*
X94665654Y-108518928D01*
X94591266Y-108639608D01*
X94576685Y-108663262D01*
X94555272Y-108727822D01*
X94525232Y-108818390D01*
X94521003Y-108831139D01*
X94520303Y-108837975D01*
X94520302Y-108837978D01*
X94518138Y-108859102D01*
X94510300Y-108935600D01*
X94510300Y-110486400D01*
X62599190Y-110486400D01*
X62912080Y-110173510D01*
X62918840Y-110161130D01*
X62913113Y-110153480D01*
X62741958Y-110048595D01*
X62733163Y-110044113D01*
X62523012Y-109957066D01*
X62513627Y-109954017D01*
X62292446Y-109900915D01*
X62282699Y-109899372D01*
X62055930Y-109881525D01*
X62046070Y-109881525D01*
X61819301Y-109899372D01*
X61809554Y-109900915D01*
X61588373Y-109954017D01*
X61578988Y-109957066D01*
X61368837Y-110044113D01*
X61360042Y-110048595D01*
X61192555Y-110151232D01*
X61183093Y-110161690D01*
X56418534Y-110161690D01*
X56418840Y-110161130D01*
X56413113Y-110153480D01*
X56241958Y-110048595D01*
X56233163Y-110044113D01*
X56023012Y-109957066D01*
X56013627Y-109954017D01*
X55792446Y-109900915D01*
X55782699Y-109899372D01*
X55555930Y-109881525D01*
X55546070Y-109881525D01*
X55319301Y-109899372D01*
X55309554Y-109900915D01*
X55088373Y-109954017D01*
X55078988Y-109957066D01*
X54868837Y-110044113D01*
X54860042Y-110048595D01*
X54692555Y-110151232D01*
X54683093Y-110161690D01*
X53569100Y-110161690D01*
X53569100Y-107590760D01*
X53569612Y-107579414D01*
X53570174Y-107573201D01*
X53572241Y-107564468D01*
X53569271Y-107507473D01*
X53569100Y-107500917D01*
X53569100Y-107481687D01*
X53568464Y-107477244D01*
X53568062Y-107474434D01*
X53566960Y-107463129D01*
X53565128Y-107427974D01*
X53564661Y-107419008D01*
X53561035Y-107408644D01*
X53555238Y-107384891D01*
X53554953Y-107382901D01*
X53554953Y-107382899D01*
X53553680Y-107374013D01*
X53549965Y-107365843D01*
X53549964Y-107365839D01*
X53535386Y-107333778D01*
X53531154Y-107323234D01*
X53519526Y-107289996D01*
X53519525Y-107289994D01*
X53516561Y-107281522D01*
X53510169Y-107272589D01*
X53497941Y-107251424D01*
X53493392Y-107241418D01*
X53464541Y-107207935D01*
X53457520Y-107199002D01*
X53454273Y-107194463D01*
X53454270Y-107194460D01*
X53451438Y-107190501D01*
X53448027Y-107187022D01*
X53448023Y-107187017D01*
X53438424Y-107177225D01*
X53432948Y-107171268D01*
X53404173Y-107137874D01*
X53398313Y-107131073D01*
X53390780Y-107126190D01*
X53384016Y-107120290D01*
X53384268Y-107120001D01*
X53374467Y-107111991D01*
X53160554Y-106893800D01*
X54037835Y-106893800D01*
X54056465Y-107130511D01*
X54057619Y-107135318D01*
X54057620Y-107135324D01*
X54088177Y-107262601D01*
X54111895Y-107361394D01*
X54113788Y-107365965D01*
X54113789Y-107365967D01*
X54161722Y-107481687D01*
X54202760Y-107580763D01*
X54205346Y-107584983D01*
X54324241Y-107779002D01*
X54324245Y-107779008D01*
X54326824Y-107783216D01*
X54481031Y-107963769D01*
X54661584Y-108117976D01*
X54665792Y-108120555D01*
X54665798Y-108120559D01*
X54834765Y-108224102D01*
X54864037Y-108242040D01*
X54868607Y-108243933D01*
X54868611Y-108243935D01*
X55078833Y-108331011D01*
X55083406Y-108332905D01*
X55163609Y-108352160D01*
X55309476Y-108387180D01*
X55309482Y-108387181D01*
X55314289Y-108388335D01*
X55551000Y-108406965D01*
X55787711Y-108388335D01*
X55792518Y-108387181D01*
X55792524Y-108387180D01*
X55938391Y-108352160D01*
X56018594Y-108332905D01*
X56023167Y-108331011D01*
X56233389Y-108243935D01*
X56233393Y-108243933D01*
X56237963Y-108242040D01*
X56267235Y-108224102D01*
X56436202Y-108120559D01*
X56436208Y-108120555D01*
X56440416Y-108117976D01*
X56620969Y-107963769D01*
X56775176Y-107783216D01*
X56777755Y-107779008D01*
X56777759Y-107779002D01*
X56896654Y-107584983D01*
X56899240Y-107580763D01*
X56940279Y-107481687D01*
X56988211Y-107365967D01*
X56988212Y-107365965D01*
X56990105Y-107361394D01*
X57013823Y-107262601D01*
X57044380Y-107135324D01*
X57044381Y-107135318D01*
X57045535Y-107130511D01*
X57064165Y-106893800D01*
X60537835Y-106893800D01*
X60556465Y-107130511D01*
X60557619Y-107135318D01*
X60557620Y-107135324D01*
X60588177Y-107262601D01*
X60611895Y-107361394D01*
X60613788Y-107365965D01*
X60613789Y-107365967D01*
X60661722Y-107481687D01*
X60702760Y-107580763D01*
X60705346Y-107584983D01*
X60824241Y-107779002D01*
X60824245Y-107779008D01*
X60826824Y-107783216D01*
X60981031Y-107963769D01*
X61161584Y-108117976D01*
X61165792Y-108120555D01*
X61165798Y-108120559D01*
X61334765Y-108224102D01*
X61364037Y-108242040D01*
X61368607Y-108243933D01*
X61368611Y-108243935D01*
X61578833Y-108331011D01*
X61583406Y-108332905D01*
X61663609Y-108352160D01*
X61809476Y-108387180D01*
X61809482Y-108387181D01*
X61814289Y-108388335D01*
X62051000Y-108406965D01*
X62287711Y-108388335D01*
X62292518Y-108387181D01*
X62292524Y-108387180D01*
X62438391Y-108352160D01*
X62518594Y-108332905D01*
X62523167Y-108331011D01*
X62733389Y-108243935D01*
X62733393Y-108243933D01*
X62737963Y-108242040D01*
X62767235Y-108224102D01*
X62936202Y-108120559D01*
X62936208Y-108120555D01*
X62940416Y-108117976D01*
X63120969Y-107963769D01*
X63275176Y-107783216D01*
X63277755Y-107779008D01*
X63277759Y-107779002D01*
X63396654Y-107584983D01*
X63399240Y-107580763D01*
X63440279Y-107481687D01*
X63488211Y-107365967D01*
X63488212Y-107365965D01*
X63490105Y-107361394D01*
X63513823Y-107262601D01*
X63544380Y-107135324D01*
X63544381Y-107135318D01*
X63545535Y-107130511D01*
X63564165Y-106893800D01*
X63545535Y-106657089D01*
X63490105Y-106426206D01*
X63399240Y-106206837D01*
X63396654Y-106202617D01*
X63277759Y-106008598D01*
X63277755Y-106008592D01*
X63275176Y-106004384D01*
X63120969Y-105823831D01*
X62940416Y-105669624D01*
X62936208Y-105667045D01*
X62936202Y-105667041D01*
X62742183Y-105548146D01*
X62737963Y-105545560D01*
X62733393Y-105543667D01*
X62733389Y-105543665D01*
X62523167Y-105456589D01*
X62523165Y-105456588D01*
X62518594Y-105454695D01*
X62438391Y-105435440D01*
X62292524Y-105400420D01*
X62292518Y-105400419D01*
X62287711Y-105399265D01*
X62051000Y-105380635D01*
X61814289Y-105399265D01*
X61809482Y-105400419D01*
X61809476Y-105400420D01*
X61663609Y-105435440D01*
X61583406Y-105454695D01*
X61578835Y-105456588D01*
X61578833Y-105456589D01*
X61368611Y-105543665D01*
X61368607Y-105543667D01*
X61364037Y-105545560D01*
X61359817Y-105548146D01*
X61165798Y-105667041D01*
X61165792Y-105667045D01*
X61161584Y-105669624D01*
X60981031Y-105823831D01*
X60826824Y-106004384D01*
X60824245Y-106008592D01*
X60824241Y-106008598D01*
X60705346Y-106202617D01*
X60702760Y-106206837D01*
X60611895Y-106426206D01*
X60556465Y-106657089D01*
X60537835Y-106893800D01*
X57064165Y-106893800D01*
X57045535Y-106657089D01*
X56990105Y-106426206D01*
X56899240Y-106206837D01*
X56896654Y-106202617D01*
X56777759Y-106008598D01*
X56777755Y-106008592D01*
X56775176Y-106004384D01*
X56620969Y-105823831D01*
X56440416Y-105669624D01*
X56436208Y-105667045D01*
X56436202Y-105667041D01*
X56242183Y-105548146D01*
X56237963Y-105545560D01*
X56233393Y-105543667D01*
X56233389Y-105543665D01*
X56023167Y-105456589D01*
X56023165Y-105456588D01*
X56018594Y-105454695D01*
X55938391Y-105435440D01*
X55792524Y-105400420D01*
X55792518Y-105400419D01*
X55787711Y-105399265D01*
X55551000Y-105380635D01*
X55314289Y-105399265D01*
X55309482Y-105400419D01*
X55309476Y-105400420D01*
X55163609Y-105435440D01*
X55083406Y-105454695D01*
X55078835Y-105456588D01*
X55078833Y-105456589D01*
X54868611Y-105543665D01*
X54868607Y-105543667D01*
X54864037Y-105545560D01*
X54859817Y-105548146D01*
X54665798Y-105667041D01*
X54665792Y-105667045D01*
X54661584Y-105669624D01*
X54481031Y-105823831D01*
X54326824Y-106004384D01*
X54324245Y-106008592D01*
X54324241Y-106008598D01*
X54205346Y-106202617D01*
X54202760Y-106206837D01*
X54111895Y-106426206D01*
X54056465Y-106657089D01*
X54037835Y-106893800D01*
X53160554Y-106893800D01*
X52923766Y-106652276D01*
X51065126Y-104756463D01*
X51031720Y-104693818D01*
X51029100Y-104668255D01*
X51029100Y-101371400D01*
X56319102Y-101371400D01*
X56339057Y-101599487D01*
X56398316Y-101820643D01*
X56400639Y-101825624D01*
X56400639Y-101825625D01*
X56492751Y-102023162D01*
X56492754Y-102023167D01*
X56495077Y-102028149D01*
X56626402Y-102215700D01*
X56788300Y-102377598D01*
X56792808Y-102380755D01*
X56792811Y-102380757D01*
X56870989Y-102435498D01*
X56975851Y-102508923D01*
X56980833Y-102511246D01*
X56980838Y-102511249D01*
X57178375Y-102603361D01*
X57183357Y-102605684D01*
X57188665Y-102607106D01*
X57188667Y-102607107D01*
X57399198Y-102663519D01*
X57399200Y-102663519D01*
X57404513Y-102664943D01*
X57632600Y-102684898D01*
X57860687Y-102664943D01*
X57866000Y-102663519D01*
X57866002Y-102663519D01*
X58076533Y-102607107D01*
X58076535Y-102607106D01*
X58081843Y-102605684D01*
X58086825Y-102603361D01*
X58284362Y-102511249D01*
X58284367Y-102511246D01*
X58289349Y-102508923D01*
X58394211Y-102435498D01*
X58472389Y-102380757D01*
X58472392Y-102380755D01*
X58476900Y-102377598D01*
X58638798Y-102215700D01*
X58770123Y-102028149D01*
X58772446Y-102023167D01*
X58772449Y-102023162D01*
X58864561Y-101825625D01*
X58864561Y-101825624D01*
X58866884Y-101820643D01*
X58926143Y-101599487D01*
X58946098Y-101371400D01*
X63939102Y-101371400D01*
X63959057Y-101599487D01*
X64018316Y-101820643D01*
X64020639Y-101825624D01*
X64020639Y-101825625D01*
X64112751Y-102023162D01*
X64112754Y-102023167D01*
X64115077Y-102028149D01*
X64246402Y-102215700D01*
X64408300Y-102377598D01*
X64412808Y-102380755D01*
X64412811Y-102380757D01*
X64490989Y-102435498D01*
X64595851Y-102508923D01*
X64600833Y-102511246D01*
X64600838Y-102511249D01*
X64798375Y-102603361D01*
X64803357Y-102605684D01*
X64808665Y-102607106D01*
X64808667Y-102607107D01*
X65019198Y-102663519D01*
X65019200Y-102663519D01*
X65024513Y-102664943D01*
X65252600Y-102684898D01*
X65480687Y-102664943D01*
X65486000Y-102663519D01*
X65486002Y-102663519D01*
X65696533Y-102607107D01*
X65696535Y-102607106D01*
X65701843Y-102605684D01*
X65706825Y-102603361D01*
X65904362Y-102511249D01*
X65904367Y-102511246D01*
X65909349Y-102508923D01*
X66014211Y-102435498D01*
X66092389Y-102380757D01*
X66092392Y-102380755D01*
X66096900Y-102377598D01*
X66258798Y-102215700D01*
X66390123Y-102028149D01*
X66392446Y-102023167D01*
X66392449Y-102023162D01*
X66484561Y-101825625D01*
X66484561Y-101825624D01*
X66486884Y-101820643D01*
X66546143Y-101599487D01*
X66566098Y-101371400D01*
X66546143Y-101143313D01*
X66486884Y-100922157D01*
X66484561Y-100917175D01*
X66392449Y-100719638D01*
X66392446Y-100719633D01*
X66390123Y-100714651D01*
X66258798Y-100527100D01*
X66096900Y-100365202D01*
X66092392Y-100362045D01*
X66092389Y-100362043D01*
X66014211Y-100307302D01*
X65909349Y-100233877D01*
X65904367Y-100231554D01*
X65904362Y-100231551D01*
X65706825Y-100139439D01*
X65706824Y-100139439D01*
X65701843Y-100137116D01*
X65696535Y-100135694D01*
X65696533Y-100135693D01*
X65486002Y-100079281D01*
X65486000Y-100079281D01*
X65480687Y-100077857D01*
X65252600Y-100057902D01*
X65024513Y-100077857D01*
X65019200Y-100079281D01*
X65019198Y-100079281D01*
X64808667Y-100135693D01*
X64808665Y-100135694D01*
X64803357Y-100137116D01*
X64798376Y-100139439D01*
X64798375Y-100139439D01*
X64600838Y-100231551D01*
X64600833Y-100231554D01*
X64595851Y-100233877D01*
X64490989Y-100307302D01*
X64412811Y-100362043D01*
X64412808Y-100362045D01*
X64408300Y-100365202D01*
X64246402Y-100527100D01*
X64115077Y-100714651D01*
X64112754Y-100719633D01*
X64112751Y-100719638D01*
X64020639Y-100917175D01*
X64018316Y-100922157D01*
X63959057Y-101143313D01*
X63939102Y-101371400D01*
X58946098Y-101371400D01*
X58926143Y-101143313D01*
X58866884Y-100922157D01*
X58864561Y-100917175D01*
X58772449Y-100719638D01*
X58772446Y-100719633D01*
X58770123Y-100714651D01*
X58638798Y-100527100D01*
X58476900Y-100365202D01*
X58472392Y-100362045D01*
X58472389Y-100362043D01*
X58394211Y-100307302D01*
X58289349Y-100233877D01*
X58284367Y-100231554D01*
X58284362Y-100231551D01*
X58086825Y-100139439D01*
X58086824Y-100139439D01*
X58081843Y-100137116D01*
X58076535Y-100135694D01*
X58076533Y-100135693D01*
X57866002Y-100079281D01*
X57866000Y-100079281D01*
X57860687Y-100077857D01*
X57632600Y-100057902D01*
X57404513Y-100077857D01*
X57399200Y-100079281D01*
X57399198Y-100079281D01*
X57188667Y-100135693D01*
X57188665Y-100135694D01*
X57183357Y-100137116D01*
X57178376Y-100139439D01*
X57178375Y-100139439D01*
X56980838Y-100231551D01*
X56980833Y-100231554D01*
X56975851Y-100233877D01*
X56870989Y-100307302D01*
X56792811Y-100362043D01*
X56792808Y-100362045D01*
X56788300Y-100365202D01*
X56626402Y-100527100D01*
X56495077Y-100714651D01*
X56492754Y-100719633D01*
X56492751Y-100719638D01*
X56400639Y-100917175D01*
X56398316Y-100922157D01*
X56339057Y-101143313D01*
X56319102Y-101371400D01*
X51029100Y-101371400D01*
X51029100Y-92427974D01*
X64332902Y-92427974D01*
X64333102Y-92433303D01*
X64333102Y-92433305D01*
X64333638Y-92447582D01*
X64341551Y-92658358D01*
X64388893Y-92883991D01*
X64473576Y-93098421D01*
X64476343Y-93102980D01*
X64476344Y-93102983D01*
X64538798Y-93205903D01*
X64593177Y-93295517D01*
X64596674Y-93299547D01*
X64683238Y-93399303D01*
X64744277Y-93469645D01*
X64779920Y-93498870D01*
X64819914Y-93557529D01*
X64821846Y-93628499D01*
X64785102Y-93689248D01*
X64766332Y-93703448D01*
X64671523Y-93762118D01*
X64620452Y-93793722D01*
X64495495Y-93918897D01*
X64491655Y-93925127D01*
X64491654Y-93925128D01*
X64420215Y-94041024D01*
X64402685Y-94069462D01*
X64400381Y-94076409D01*
X64351724Y-94223107D01*
X64347003Y-94237339D01*
X64336300Y-94341800D01*
X64336300Y-95642600D01*
X64347274Y-95748366D01*
X64403250Y-95916146D01*
X64496322Y-96066548D01*
X64621497Y-96191505D01*
X64627727Y-96195345D01*
X64627728Y-96195346D01*
X64764890Y-96279894D01*
X64772062Y-96284315D01*
X64851805Y-96310764D01*
X64933411Y-96337832D01*
X64933413Y-96337832D01*
X64939939Y-96339997D01*
X64946775Y-96340697D01*
X64946778Y-96340698D01*
X64989831Y-96345109D01*
X65044400Y-96350700D01*
X66595200Y-96350700D01*
X66598446Y-96350363D01*
X66598450Y-96350363D01*
X66694108Y-96340438D01*
X66694112Y-96340437D01*
X66700966Y-96339726D01*
X66707502Y-96337545D01*
X66707504Y-96337545D01*
X66839606Y-96293472D01*
X66868746Y-96283750D01*
X67019148Y-96190678D01*
X67144105Y-96065503D01*
X67220484Y-95941594D01*
X67233075Y-95921168D01*
X67233076Y-95921166D01*
X67236915Y-95914938D01*
X67292597Y-95747061D01*
X67303300Y-95642600D01*
X67303300Y-95415474D01*
X81660972Y-95415474D01*
X81661147Y-95419926D01*
X81670024Y-95645850D01*
X81671305Y-95678462D01*
X81718590Y-95937371D01*
X81801884Y-96187034D01*
X81848284Y-96279894D01*
X81883500Y-96350372D01*
X81919525Y-96422470D01*
X82069165Y-96638982D01*
X82247820Y-96832249D01*
X82451923Y-96998415D01*
X82455731Y-97000708D01*
X82455733Y-97000709D01*
X82673588Y-97131868D01*
X82673592Y-97131870D01*
X82677404Y-97134165D01*
X82813326Y-97191721D01*
X82915659Y-97235054D01*
X82915664Y-97235056D01*
X82919762Y-97236791D01*
X82924060Y-97237930D01*
X82924064Y-97237932D01*
X83046962Y-97270518D01*
X83174162Y-97304244D01*
X83435529Y-97335179D01*
X83698647Y-97328978D01*
X83705448Y-97327846D01*
X83953876Y-97286496D01*
X83953880Y-97286495D01*
X83958266Y-97285765D01*
X83962507Y-97284424D01*
X83962510Y-97284423D01*
X84204961Y-97207746D01*
X84204963Y-97207745D01*
X84209207Y-97206403D01*
X84213218Y-97204477D01*
X84213223Y-97204475D01*
X84442443Y-97094405D01*
X84442444Y-97094404D01*
X84446462Y-97092475D01*
X84556487Y-97018958D01*
X84661589Y-96948732D01*
X84661593Y-96948729D01*
X84665297Y-96946254D01*
X84668614Y-96943283D01*
X84668618Y-96943280D01*
X84858029Y-96773629D01*
X84858030Y-96773628D01*
X84861347Y-96770657D01*
X85030698Y-96569189D01*
X85169974Y-96345869D01*
X85171949Y-96341403D01*
X85274595Y-96109219D01*
X85276393Y-96105152D01*
X85347834Y-95851843D01*
X85362654Y-95741508D01*
X85382443Y-95594176D01*
X85382444Y-95594168D01*
X85382870Y-95590994D01*
X85382971Y-95587783D01*
X85386446Y-95477222D01*
X85386446Y-95477217D01*
X85386547Y-95474000D01*
X85382375Y-95415074D01*
X85978972Y-95415074D01*
X85989305Y-95678062D01*
X85990105Y-95682442D01*
X86021826Y-95856128D01*
X86036590Y-95936971D01*
X86037999Y-95941194D01*
X86092700Y-96105152D01*
X86119884Y-96186634D01*
X86169844Y-96286619D01*
X86199250Y-96345469D01*
X86237525Y-96422070D01*
X86387165Y-96638582D01*
X86565820Y-96831849D01*
X86769923Y-96998015D01*
X86773731Y-97000308D01*
X86773733Y-97000309D01*
X86991588Y-97131468D01*
X86991592Y-97131470D01*
X86995404Y-97133765D01*
X87131326Y-97191321D01*
X87233659Y-97234654D01*
X87233664Y-97234656D01*
X87237762Y-97236391D01*
X87242060Y-97237530D01*
X87242064Y-97237532D01*
X87364962Y-97270117D01*
X87492162Y-97303844D01*
X87753529Y-97334779D01*
X88016647Y-97328578D01*
X88021045Y-97327846D01*
X88271876Y-97286096D01*
X88271880Y-97286095D01*
X88276266Y-97285365D01*
X88280507Y-97284024D01*
X88280510Y-97284023D01*
X88522961Y-97207346D01*
X88522963Y-97207345D01*
X88527207Y-97206003D01*
X88531218Y-97204077D01*
X88531223Y-97204075D01*
X88760443Y-97094005D01*
X88760444Y-97094004D01*
X88764462Y-97092075D01*
X88901201Y-97000709D01*
X88979589Y-96948332D01*
X88979593Y-96948329D01*
X88983297Y-96945854D01*
X88986614Y-96942883D01*
X88986618Y-96942880D01*
X89176029Y-96773229D01*
X89176030Y-96773228D01*
X89179347Y-96770257D01*
X89348698Y-96568789D01*
X89487974Y-96345469D01*
X89490084Y-96340698D01*
X89592595Y-96108819D01*
X89594393Y-96104752D01*
X89665834Y-95851443D01*
X89688480Y-95682842D01*
X89700443Y-95593776D01*
X89700444Y-95593768D01*
X89700870Y-95590594D01*
X89704547Y-95473600D01*
X89685959Y-95211066D01*
X89674553Y-95158085D01*
X89631501Y-94958123D01*
X89630564Y-94953771D01*
X89611518Y-94902143D01*
X89541010Y-94711024D01*
X89539469Y-94706847D01*
X89414491Y-94475222D01*
X89258124Y-94263518D01*
X89239086Y-94244178D01*
X89076618Y-94079139D01*
X89073487Y-94075958D01*
X89069947Y-94073257D01*
X89069941Y-94073251D01*
X88867806Y-93918986D01*
X88867802Y-93918983D01*
X88864265Y-93916284D01*
X88634632Y-93787684D01*
X88389170Y-93692722D01*
X88384845Y-93691719D01*
X88384840Y-93691718D01*
X88206356Y-93650348D01*
X88132776Y-93633293D01*
X87870567Y-93610583D01*
X87866132Y-93610827D01*
X87866128Y-93610827D01*
X87612216Y-93624800D01*
X87612209Y-93624801D01*
X87607773Y-93625045D01*
X87480566Y-93650348D01*
X87354011Y-93675521D01*
X87354006Y-93675522D01*
X87349639Y-93676391D01*
X87345436Y-93677867D01*
X87105523Y-93762118D01*
X87105520Y-93762119D01*
X87101315Y-93763596D01*
X87097362Y-93765649D01*
X87097356Y-93765652D01*
X86965915Y-93833931D01*
X86867756Y-93884921D01*
X86864141Y-93887504D01*
X86864135Y-93887508D01*
X86811492Y-93925128D01*
X86653622Y-94037944D01*
X86650395Y-94041022D01*
X86650393Y-94041024D01*
X86613354Y-94076358D01*
X86463185Y-94219611D01*
X86300245Y-94426300D01*
X86269554Y-94479138D01*
X86170287Y-94650038D01*
X86170284Y-94650044D01*
X86168053Y-94653885D01*
X86069247Y-94897825D01*
X86068176Y-94902138D01*
X86068174Y-94902143D01*
X86024297Y-95078783D01*
X86005798Y-95153254D01*
X85978972Y-95415074D01*
X85382375Y-95415074D01*
X85367959Y-95211466D01*
X85366936Y-95206712D01*
X85313501Y-94958523D01*
X85312564Y-94954171D01*
X85293518Y-94902543D01*
X85223010Y-94711424D01*
X85221469Y-94707247D01*
X85096491Y-94475622D01*
X84940124Y-94263918D01*
X84913960Y-94237339D01*
X84758618Y-94079539D01*
X84755487Y-94076358D01*
X84751947Y-94073657D01*
X84751941Y-94073651D01*
X84549806Y-93919386D01*
X84549802Y-93919383D01*
X84546265Y-93916684D01*
X84316632Y-93788084D01*
X84071170Y-93693122D01*
X84066845Y-93692119D01*
X84066840Y-93692118D01*
X83926094Y-93659495D01*
X83814776Y-93633693D01*
X83552567Y-93610983D01*
X83548132Y-93611227D01*
X83548128Y-93611227D01*
X83294216Y-93625200D01*
X83294209Y-93625201D01*
X83289773Y-93625445D01*
X83164577Y-93650348D01*
X83036011Y-93675921D01*
X83036006Y-93675922D01*
X83031639Y-93676791D01*
X83027436Y-93678267D01*
X82787523Y-93762518D01*
X82787520Y-93762519D01*
X82783315Y-93763996D01*
X82779362Y-93766049D01*
X82779356Y-93766052D01*
X82647915Y-93834331D01*
X82549756Y-93885321D01*
X82546141Y-93887904D01*
X82546135Y-93887908D01*
X82442885Y-93961692D01*
X82335622Y-94038344D01*
X82332395Y-94041422D01*
X82332393Y-94041424D01*
X82148828Y-94216536D01*
X82145185Y-94220011D01*
X81982245Y-94426700D01*
X81954061Y-94475222D01*
X81852287Y-94650438D01*
X81852284Y-94650444D01*
X81850053Y-94654285D01*
X81751247Y-94898225D01*
X81687798Y-95153654D01*
X81660972Y-95415474D01*
X67303300Y-95415474D01*
X67303300Y-94341800D01*
X67295592Y-94267510D01*
X67293038Y-94242892D01*
X67293037Y-94242888D01*
X67292326Y-94236034D01*
X67286981Y-94220011D01*
X67240115Y-94079539D01*
X67236350Y-94068254D01*
X67143278Y-93917852D01*
X67018103Y-93792895D01*
X66872460Y-93703119D01*
X66824968Y-93650348D01*
X66813544Y-93580276D01*
X66841818Y-93515152D01*
X66851605Y-93504690D01*
X66962078Y-93399303D01*
X66965935Y-93395624D01*
X67103554Y-93210658D01*
X67137611Y-93143674D01*
X67187000Y-93046532D01*
X67208040Y-93005149D01*
X67244121Y-92888952D01*
X67274824Y-92790071D01*
X67276407Y-92784973D01*
X67277108Y-92779684D01*
X67305998Y-92561711D01*
X67305998Y-92561706D01*
X67306698Y-92556426D01*
X67298049Y-92326042D01*
X67250707Y-92100409D01*
X67178756Y-91918219D01*
X67167985Y-91890944D01*
X67167984Y-91890942D01*
X67166024Y-91885979D01*
X67083628Y-91750194D01*
X67049190Y-91693443D01*
X67046423Y-91688883D01*
X67025810Y-91665128D01*
X66898823Y-91518788D01*
X66898821Y-91518786D01*
X66895323Y-91514755D01*
X66853770Y-91480684D01*
X66721173Y-91371960D01*
X66721167Y-91371956D01*
X66717045Y-91368576D01*
X66685550Y-91350648D01*
X66636245Y-91299568D01*
X66622383Y-91229938D01*
X66624532Y-91224474D01*
X81660972Y-91224474D01*
X81661147Y-91228926D01*
X81667853Y-91399594D01*
X81671305Y-91487462D01*
X81718590Y-91746371D01*
X81801884Y-91996034D01*
X81854037Y-92100409D01*
X81900967Y-92194329D01*
X81919525Y-92231470D01*
X81922054Y-92235129D01*
X82055337Y-92427974D01*
X82069165Y-92447982D01*
X82247820Y-92641249D01*
X82451923Y-92807415D01*
X82455731Y-92809708D01*
X82455733Y-92809709D01*
X82673588Y-92940868D01*
X82673592Y-92940870D01*
X82677404Y-92943165D01*
X82811746Y-93000052D01*
X82915659Y-93044054D01*
X82915664Y-93044056D01*
X82919762Y-93045791D01*
X82924060Y-93046930D01*
X82924064Y-93046932D01*
X83046962Y-93079518D01*
X83174162Y-93113244D01*
X83435529Y-93144179D01*
X83698647Y-93137978D01*
X83705448Y-93136846D01*
X83953876Y-93095496D01*
X83953880Y-93095495D01*
X83958266Y-93094765D01*
X83962507Y-93093424D01*
X83962510Y-93093423D01*
X84204961Y-93016746D01*
X84204963Y-93016745D01*
X84209207Y-93015403D01*
X84213218Y-93013477D01*
X84213223Y-93013475D01*
X84442443Y-92903405D01*
X84442444Y-92903404D01*
X84446462Y-92901475D01*
X84556487Y-92827958D01*
X84661589Y-92757732D01*
X84661593Y-92757729D01*
X84665297Y-92755254D01*
X84668614Y-92752283D01*
X84668618Y-92752280D01*
X84858029Y-92582629D01*
X84858030Y-92582628D01*
X84861347Y-92579657D01*
X85030698Y-92378189D01*
X85059896Y-92331373D01*
X85167620Y-92158643D01*
X85169974Y-92154869D01*
X85171949Y-92150403D01*
X85274595Y-91918219D01*
X85276393Y-91914152D01*
X85347834Y-91660843D01*
X85367911Y-91511368D01*
X85382443Y-91403176D01*
X85382444Y-91403168D01*
X85382870Y-91399994D01*
X85382971Y-91396783D01*
X85386446Y-91286222D01*
X85386446Y-91286217D01*
X85386547Y-91283000D01*
X85382375Y-91224074D01*
X85978972Y-91224074D01*
X85979147Y-91228526D01*
X85987194Y-91433322D01*
X85989305Y-91487062D01*
X85990105Y-91491442D01*
X86021826Y-91665128D01*
X86036590Y-91745971D01*
X86037999Y-91750194D01*
X86092700Y-91914152D01*
X86119884Y-91995634D01*
X86121877Y-91999622D01*
X86224357Y-92204716D01*
X86237525Y-92231070D01*
X86240054Y-92234729D01*
X86377298Y-92433305D01*
X86387165Y-92447582D01*
X86565820Y-92640849D01*
X86769923Y-92807015D01*
X86773731Y-92809308D01*
X86773733Y-92809309D01*
X86991588Y-92940468D01*
X86991592Y-92940470D01*
X86995404Y-92942765D01*
X87130691Y-93000052D01*
X87233659Y-93043654D01*
X87233664Y-93043656D01*
X87237762Y-93045391D01*
X87242060Y-93046530D01*
X87242064Y-93046532D01*
X87364962Y-93079117D01*
X87492162Y-93112844D01*
X87753529Y-93143779D01*
X88016647Y-93137578D01*
X88021045Y-93136846D01*
X88271876Y-93095096D01*
X88271880Y-93095095D01*
X88276266Y-93094365D01*
X88280507Y-93093024D01*
X88280510Y-93093023D01*
X88522961Y-93016346D01*
X88522963Y-93016345D01*
X88527207Y-93015003D01*
X88531218Y-93013077D01*
X88531223Y-93013075D01*
X88760443Y-92903005D01*
X88760444Y-92903004D01*
X88764462Y-92901075D01*
X88901201Y-92809709D01*
X88979589Y-92757332D01*
X88979593Y-92757329D01*
X88983297Y-92754854D01*
X88986614Y-92751883D01*
X88986618Y-92751880D01*
X89176029Y-92582229D01*
X89176030Y-92582228D01*
X89179347Y-92579257D01*
X89348698Y-92377789D01*
X89384226Y-92320823D01*
X89485620Y-92158243D01*
X89487974Y-92154469D01*
X89509567Y-92105628D01*
X89592595Y-91917819D01*
X89594393Y-91913752D01*
X89665834Y-91660443D01*
X89675954Y-91585097D01*
X89700443Y-91402776D01*
X89700444Y-91402768D01*
X89700870Y-91399594D01*
X89704547Y-91282600D01*
X89685959Y-91020066D01*
X89675104Y-90969645D01*
X89631501Y-90767123D01*
X89630564Y-90762771D01*
X89612919Y-90714940D01*
X89541010Y-90520024D01*
X89539469Y-90515847D01*
X89533697Y-90505149D01*
X89416604Y-90288138D01*
X89414491Y-90284222D01*
X89258124Y-90072518D01*
X89247486Y-90061711D01*
X89167466Y-89980425D01*
X89073487Y-89884958D01*
X89069947Y-89882257D01*
X89069941Y-89882251D01*
X88867806Y-89727986D01*
X88867802Y-89727983D01*
X88864265Y-89725284D01*
X88634632Y-89596684D01*
X88389170Y-89501722D01*
X88384845Y-89500719D01*
X88384840Y-89500718D01*
X88244094Y-89468095D01*
X88132776Y-89442293D01*
X87870567Y-89419583D01*
X87866132Y-89419827D01*
X87866128Y-89419827D01*
X87612216Y-89433800D01*
X87612209Y-89433801D01*
X87607773Y-89434045D01*
X87479669Y-89459527D01*
X87354011Y-89484521D01*
X87354006Y-89484522D01*
X87349639Y-89485391D01*
X87345436Y-89486867D01*
X87105523Y-89571118D01*
X87105520Y-89571119D01*
X87101315Y-89572596D01*
X87097362Y-89574649D01*
X87097356Y-89574652D01*
X87037726Y-89605628D01*
X86867756Y-89693921D01*
X86864141Y-89696504D01*
X86864135Y-89696508D01*
X86819527Y-89728386D01*
X86653622Y-89846944D01*
X86650395Y-89850022D01*
X86650393Y-89850024D01*
X86613354Y-89885358D01*
X86463185Y-90028611D01*
X86300245Y-90235300D01*
X86240661Y-90337881D01*
X86170287Y-90459038D01*
X86170284Y-90459044D01*
X86168053Y-90462885D01*
X86069247Y-90706825D01*
X86068176Y-90711138D01*
X86068174Y-90711143D01*
X86024297Y-90887783D01*
X86005798Y-90962254D01*
X85978972Y-91224074D01*
X85382375Y-91224074D01*
X85379597Y-91184832D01*
X85368274Y-91024915D01*
X85367959Y-91020466D01*
X85366936Y-91015712D01*
X85313501Y-90767523D01*
X85312564Y-90763171D01*
X85293518Y-90711543D01*
X85223010Y-90520424D01*
X85221469Y-90516247D01*
X85096491Y-90284622D01*
X84940124Y-90072918D01*
X84896508Y-90028611D01*
X84758618Y-89888539D01*
X84755487Y-89885358D01*
X84751947Y-89882657D01*
X84751941Y-89882651D01*
X84549806Y-89728386D01*
X84549802Y-89728383D01*
X84546265Y-89725684D01*
X84316632Y-89597084D01*
X84071170Y-89502122D01*
X84066845Y-89501119D01*
X84066840Y-89501118D01*
X83926094Y-89468495D01*
X83814776Y-89442693D01*
X83552567Y-89419983D01*
X83548132Y-89420227D01*
X83548128Y-89420227D01*
X83294216Y-89434200D01*
X83294209Y-89434201D01*
X83289773Y-89434445D01*
X83161669Y-89459927D01*
X83036011Y-89484921D01*
X83036006Y-89484922D01*
X83031639Y-89485791D01*
X83027436Y-89487267D01*
X82787523Y-89571518D01*
X82787520Y-89571519D01*
X82783315Y-89572996D01*
X82779362Y-89575049D01*
X82779356Y-89575052D01*
X82720496Y-89605628D01*
X82549756Y-89694321D01*
X82546141Y-89696904D01*
X82546135Y-89696908D01*
X82442885Y-89770692D01*
X82335622Y-89847344D01*
X82332395Y-89850422D01*
X82332393Y-89850424D01*
X82148828Y-90025536D01*
X82145185Y-90029011D01*
X81982245Y-90235700D01*
X81954061Y-90284222D01*
X81852287Y-90459438D01*
X81852284Y-90459444D01*
X81850053Y-90463285D01*
X81751247Y-90707225D01*
X81750176Y-90711538D01*
X81750174Y-90711543D01*
X81738488Y-90758590D01*
X81687798Y-90962654D01*
X81660972Y-91224474D01*
X66624532Y-91224474D01*
X66648366Y-91163867D01*
X66677516Y-91136627D01*
X66713442Y-91112440D01*
X66799119Y-91054759D01*
X66830404Y-91024915D01*
X66900201Y-90958331D01*
X66965935Y-90895624D01*
X67103554Y-90710658D01*
X67107398Y-90703099D01*
X67163142Y-90593456D01*
X67208040Y-90505149D01*
X67221164Y-90462885D01*
X67274824Y-90290071D01*
X67276407Y-90284973D01*
X67283454Y-90231804D01*
X67305998Y-90061711D01*
X67305998Y-90061706D01*
X67306698Y-90056426D01*
X67298049Y-89826042D01*
X67250707Y-89600409D01*
X67248748Y-89595448D01*
X67167985Y-89390944D01*
X67167984Y-89390942D01*
X67166024Y-89385979D01*
X67046423Y-89188883D01*
X66959555Y-89088776D01*
X66898823Y-89018788D01*
X66898821Y-89018786D01*
X66895323Y-89014755D01*
X66812663Y-88946978D01*
X66721173Y-88871960D01*
X66721167Y-88871956D01*
X66717045Y-88868576D01*
X66685550Y-88850648D01*
X66636245Y-88799568D01*
X66622383Y-88729938D01*
X66648366Y-88663867D01*
X66677516Y-88636627D01*
X66693198Y-88626070D01*
X66799119Y-88554759D01*
X66965935Y-88395624D01*
X67103554Y-88210658D01*
X67115487Y-88187189D01*
X67163142Y-88093456D01*
X67208040Y-88005149D01*
X67222121Y-87959803D01*
X67274824Y-87790071D01*
X67276407Y-87784973D01*
X67285221Y-87718469D01*
X67305998Y-87561711D01*
X67305998Y-87561706D01*
X67306698Y-87556426D01*
X67298049Y-87326042D01*
X67250707Y-87100409D01*
X67224273Y-87033474D01*
X81660972Y-87033474D01*
X81661147Y-87037926D01*
X81667853Y-87208594D01*
X81671305Y-87296462D01*
X81718590Y-87555371D01*
X81801884Y-87805034D01*
X81803877Y-87809022D01*
X81881250Y-87963869D01*
X81919525Y-88040470D01*
X81922054Y-88044129D01*
X82037149Y-88210658D01*
X82069165Y-88256982D01*
X82247820Y-88450249D01*
X82451923Y-88616415D01*
X82455731Y-88618708D01*
X82455733Y-88618709D01*
X82673588Y-88749868D01*
X82673592Y-88749870D01*
X82677404Y-88752165D01*
X82792467Y-88800888D01*
X82915659Y-88853054D01*
X82915664Y-88853056D01*
X82919762Y-88854791D01*
X82924060Y-88855930D01*
X82924064Y-88855932D01*
X83046962Y-88888518D01*
X83174162Y-88922244D01*
X83435529Y-88953179D01*
X83698647Y-88946978D01*
X83780691Y-88933322D01*
X83953876Y-88904496D01*
X83953880Y-88904495D01*
X83958266Y-88903765D01*
X83962507Y-88902424D01*
X83962510Y-88902423D01*
X84204961Y-88825746D01*
X84204963Y-88825745D01*
X84209207Y-88824403D01*
X84213218Y-88822477D01*
X84213223Y-88822475D01*
X84442443Y-88712405D01*
X84442444Y-88712404D01*
X84446462Y-88710475D01*
X84561289Y-88633750D01*
X84661589Y-88566732D01*
X84661593Y-88566729D01*
X84665297Y-88564254D01*
X84668614Y-88561283D01*
X84668618Y-88561280D01*
X84858029Y-88391629D01*
X84858030Y-88391628D01*
X84861347Y-88388657D01*
X85030698Y-88187189D01*
X85169974Y-87963869D01*
X85171949Y-87959403D01*
X85274595Y-87727219D01*
X85276393Y-87723152D01*
X85347834Y-87469843D01*
X85367850Y-87320823D01*
X85382443Y-87212176D01*
X85382444Y-87212168D01*
X85382870Y-87208994D01*
X85382971Y-87205783D01*
X85386446Y-87095222D01*
X85386446Y-87095217D01*
X85386547Y-87092000D01*
X85382375Y-87033074D01*
X85978972Y-87033074D01*
X85989305Y-87296062D01*
X85990105Y-87300442D01*
X86021826Y-87474128D01*
X86036590Y-87554971D01*
X86037999Y-87559194D01*
X86092700Y-87723152D01*
X86119884Y-87804634D01*
X86178952Y-87922847D01*
X86199250Y-87963469D01*
X86237525Y-88040070D01*
X86240054Y-88043729D01*
X86358385Y-88214940D01*
X86387165Y-88256582D01*
X86565820Y-88449849D01*
X86769923Y-88616015D01*
X86773731Y-88618308D01*
X86773733Y-88618309D01*
X86991588Y-88749468D01*
X86991592Y-88749470D01*
X86995404Y-88751765D01*
X87108294Y-88799568D01*
X87233659Y-88852654D01*
X87233664Y-88852656D01*
X87237762Y-88854391D01*
X87242060Y-88855530D01*
X87242064Y-88855532D01*
X87364962Y-88888117D01*
X87492162Y-88921844D01*
X87753529Y-88952779D01*
X88016647Y-88946578D01*
X88118403Y-88929641D01*
X88271876Y-88904096D01*
X88271880Y-88904095D01*
X88276266Y-88903365D01*
X88280507Y-88902024D01*
X88280510Y-88902023D01*
X88522961Y-88825346D01*
X88522963Y-88825345D01*
X88527207Y-88824003D01*
X88531218Y-88822077D01*
X88531223Y-88822075D01*
X88760443Y-88712005D01*
X88760444Y-88712004D01*
X88764462Y-88710075D01*
X88901201Y-88618709D01*
X88979589Y-88566332D01*
X88979593Y-88566329D01*
X88983297Y-88563854D01*
X88986614Y-88560883D01*
X88986618Y-88560880D01*
X89176029Y-88391229D01*
X89176030Y-88391228D01*
X89179347Y-88388257D01*
X89348698Y-88186789D01*
X89487974Y-87963469D01*
X89520918Y-87888952D01*
X89592595Y-87726819D01*
X89594393Y-87722752D01*
X89665834Y-87469443D01*
X89688480Y-87300842D01*
X89700443Y-87211776D01*
X89700444Y-87211768D01*
X89700870Y-87208594D01*
X89704547Y-87091600D01*
X89685959Y-86829066D01*
X89674553Y-86776085D01*
X89631501Y-86576123D01*
X89630564Y-86571771D01*
X89611518Y-86520143D01*
X89541010Y-86329024D01*
X89539469Y-86324847D01*
X89537355Y-86320929D01*
X89416604Y-86097138D01*
X89414491Y-86093222D01*
X89258124Y-85881518D01*
X89073487Y-85693958D01*
X89069947Y-85691257D01*
X89069941Y-85691251D01*
X88867806Y-85536986D01*
X88867802Y-85536983D01*
X88864265Y-85534284D01*
X88634632Y-85405684D01*
X88389170Y-85310722D01*
X88384845Y-85309719D01*
X88384840Y-85309718D01*
X88244094Y-85277095D01*
X88132776Y-85251293D01*
X87870567Y-85228583D01*
X87866132Y-85228827D01*
X87866128Y-85228827D01*
X87612216Y-85242800D01*
X87612209Y-85242801D01*
X87607773Y-85243045D01*
X87501636Y-85264157D01*
X87354011Y-85293521D01*
X87354006Y-85293522D01*
X87349639Y-85294391D01*
X87345436Y-85295867D01*
X87105523Y-85380118D01*
X87105520Y-85380119D01*
X87101315Y-85381596D01*
X87097362Y-85383649D01*
X87097356Y-85383652D01*
X86965915Y-85451931D01*
X86867756Y-85502921D01*
X86864141Y-85505504D01*
X86864135Y-85505508D01*
X86819527Y-85537386D01*
X86653622Y-85655944D01*
X86650395Y-85659022D01*
X86650393Y-85659024D01*
X86503396Y-85799252D01*
X86463185Y-85837611D01*
X86300245Y-86044300D01*
X86248317Y-86133700D01*
X86170287Y-86268038D01*
X86170284Y-86268044D01*
X86168053Y-86271885D01*
X86166383Y-86276008D01*
X86137442Y-86347461D01*
X86069247Y-86515825D01*
X86068176Y-86520138D01*
X86068174Y-86520143D01*
X86051126Y-86588776D01*
X86005798Y-86771254D01*
X85978972Y-87033074D01*
X85382375Y-87033074D01*
X85367959Y-86829466D01*
X85366936Y-86824712D01*
X85313501Y-86576523D01*
X85312564Y-86572171D01*
X85293518Y-86520543D01*
X85223010Y-86329424D01*
X85221469Y-86325247D01*
X85119545Y-86136349D01*
X85098604Y-86097538D01*
X85096491Y-86093622D01*
X84940124Y-85881918D01*
X84896508Y-85837611D01*
X84758618Y-85697539D01*
X84755487Y-85694358D01*
X84751947Y-85691657D01*
X84751941Y-85691651D01*
X84549806Y-85537386D01*
X84549802Y-85537383D01*
X84546265Y-85534684D01*
X84316632Y-85406084D01*
X84071170Y-85311122D01*
X84066845Y-85310119D01*
X84066840Y-85310118D01*
X83868549Y-85264157D01*
X83814776Y-85251693D01*
X83552567Y-85228983D01*
X83548132Y-85229227D01*
X83548128Y-85229227D01*
X83294216Y-85243200D01*
X83294209Y-85243201D01*
X83289773Y-85243445D01*
X83185647Y-85264157D01*
X83036011Y-85293921D01*
X83036006Y-85293922D01*
X83031639Y-85294791D01*
X83027436Y-85296267D01*
X82787523Y-85380518D01*
X82787520Y-85380519D01*
X82783315Y-85381996D01*
X82779362Y-85384049D01*
X82779356Y-85384052D01*
X82647915Y-85452331D01*
X82549756Y-85503321D01*
X82546141Y-85505904D01*
X82546135Y-85505908D01*
X82442885Y-85579692D01*
X82335622Y-85656344D01*
X82332395Y-85659422D01*
X82332393Y-85659424D01*
X82148828Y-85834536D01*
X82145185Y-85838011D01*
X81982245Y-86044700D01*
X81954061Y-86093222D01*
X81852287Y-86268438D01*
X81852284Y-86268444D01*
X81850053Y-86272285D01*
X81848383Y-86276408D01*
X81819604Y-86347461D01*
X81751247Y-86516225D01*
X81750176Y-86520538D01*
X81750174Y-86520543D01*
X81708358Y-86688883D01*
X81687798Y-86771654D01*
X81660972Y-87033474D01*
X67224273Y-87033474D01*
X67166024Y-86885979D01*
X67094027Y-86767331D01*
X67049190Y-86693443D01*
X67046423Y-86688883D01*
X66959555Y-86588776D01*
X66898823Y-86518788D01*
X66898821Y-86518786D01*
X66895323Y-86514755D01*
X66853770Y-86480684D01*
X66721173Y-86371960D01*
X66721167Y-86371956D01*
X66717045Y-86368576D01*
X66712402Y-86365933D01*
X66685065Y-86350371D01*
X66635759Y-86299288D01*
X66621898Y-86229658D01*
X66647882Y-86163587D01*
X66677032Y-86136349D01*
X66794378Y-86057348D01*
X66802670Y-86050681D01*
X66961700Y-85898972D01*
X66968741Y-85891014D01*
X67099941Y-85714675D01*
X67105545Y-85705638D01*
X67205157Y-85509716D01*
X67209157Y-85499865D01*
X67274334Y-85289960D01*
X67276617Y-85279576D01*
X67278661Y-85264157D01*
X67276465Y-85249993D01*
X67263278Y-85246200D01*
X64378608Y-85246200D01*
X64365077Y-85250173D01*
X64363552Y-85260780D01*
X64388277Y-85378621D01*
X64391337Y-85388817D01*
X64472063Y-85593229D01*
X64476794Y-85602761D01*
X64590816Y-85790662D01*
X64597080Y-85799252D01*
X64741127Y-85965252D01*
X64748758Y-85972672D01*
X64918711Y-86112026D01*
X64927474Y-86118048D01*
X64954511Y-86133438D01*
X65003818Y-86184520D01*
X65017680Y-86254151D01*
X64991697Y-86320222D01*
X64962547Y-86347461D01*
X64958225Y-86350371D01*
X64840481Y-86429641D01*
X64673665Y-86588776D01*
X64536046Y-86773742D01*
X64533630Y-86778493D01*
X64533628Y-86778497D01*
X64483803Y-86876497D01*
X64431560Y-86979251D01*
X64429978Y-86984345D01*
X64429977Y-86984348D01*
X64367915Y-87184220D01*
X64363193Y-87199427D01*
X64362492Y-87204716D01*
X64347104Y-87320823D01*
X64332902Y-87427974D01*
X64341551Y-87658358D01*
X64388893Y-87883991D01*
X64390851Y-87888950D01*
X64390852Y-87888952D01*
X64420439Y-87963869D01*
X64473576Y-88098421D01*
X64593177Y-88295517D01*
X64596674Y-88299547D01*
X64683238Y-88399303D01*
X64744277Y-88469645D01*
X64748408Y-88473032D01*
X64918427Y-88612440D01*
X64918433Y-88612444D01*
X64922555Y-88615824D01*
X64954050Y-88633752D01*
X65003355Y-88684832D01*
X65017217Y-88754462D01*
X64991234Y-88820533D01*
X64962084Y-88847773D01*
X64840481Y-88929641D01*
X64836624Y-88933320D01*
X64836622Y-88933322D01*
X64822726Y-88946578D01*
X64673665Y-89088776D01*
X64536046Y-89273742D01*
X64431560Y-89479251D01*
X64429978Y-89484345D01*
X64429977Y-89484348D01*
X64364903Y-89693921D01*
X64363193Y-89699427D01*
X64362492Y-89704716D01*
X64338129Y-89888539D01*
X64332902Y-89927974D01*
X64341551Y-90158358D01*
X64388893Y-90383991D01*
X64390851Y-90388950D01*
X64390852Y-90388952D01*
X64418689Y-90459438D01*
X64473576Y-90598421D01*
X64476343Y-90602980D01*
X64476344Y-90602983D01*
X64542220Y-90711543D01*
X64593177Y-90795517D01*
X64596674Y-90799547D01*
X64738211Y-90962654D01*
X64744277Y-90969645D01*
X64748408Y-90973032D01*
X64918427Y-91112440D01*
X64918433Y-91112444D01*
X64922555Y-91115824D01*
X64954050Y-91133752D01*
X65003355Y-91184832D01*
X65017217Y-91254462D01*
X64991234Y-91320533D01*
X64962084Y-91347773D01*
X64840481Y-91429641D01*
X64673665Y-91588776D01*
X64536046Y-91773742D01*
X64431560Y-91979251D01*
X64429978Y-91984345D01*
X64429977Y-91984348D01*
X64378415Y-92150403D01*
X64363193Y-92199427D01*
X64362492Y-92204716D01*
X64339049Y-92381597D01*
X64332902Y-92427974D01*
X51029100Y-92427974D01*
X51029100Y-84720243D01*
X64360939Y-84720243D01*
X64363135Y-84734407D01*
X64376322Y-84738200D01*
X65547685Y-84738200D01*
X65562924Y-84733725D01*
X65564129Y-84732335D01*
X65565800Y-84724652D01*
X65565800Y-84720085D01*
X66073800Y-84720085D01*
X66078275Y-84735324D01*
X66079665Y-84736529D01*
X66087348Y-84738200D01*
X67260992Y-84738200D01*
X67274523Y-84734227D01*
X67276048Y-84723620D01*
X67251323Y-84605779D01*
X67248263Y-84595583D01*
X67167537Y-84391171D01*
X67163612Y-84383263D01*
X82406204Y-84383263D01*
X82413594Y-84393566D01*
X82448755Y-84422192D01*
X82456031Y-84427305D01*
X82673814Y-84558421D01*
X82681728Y-84562454D01*
X82915823Y-84661581D01*
X82924228Y-84664458D01*
X83169950Y-84729610D01*
X83178682Y-84731276D01*
X83431135Y-84761155D01*
X83440003Y-84761573D01*
X83694143Y-84755584D01*
X83702998Y-84754747D01*
X83953759Y-84713009D01*
X83962393Y-84710936D01*
X84204777Y-84634280D01*
X84213039Y-84631009D01*
X84442195Y-84520970D01*
X84449919Y-84516564D01*
X84632518Y-84394556D01*
X84640806Y-84384638D01*
X84633549Y-84370459D01*
X83536112Y-83273022D01*
X83522168Y-83265408D01*
X83520335Y-83265539D01*
X83513720Y-83269790D01*
X82413370Y-84370140D01*
X82406204Y-84383263D01*
X67163612Y-84383263D01*
X67162806Y-84381639D01*
X67048784Y-84193738D01*
X67042520Y-84185148D01*
X66898473Y-84019148D01*
X66890842Y-84011728D01*
X66720889Y-83872374D01*
X66712122Y-83866350D01*
X66521118Y-83757624D01*
X66511454Y-83753159D01*
X66304859Y-83678169D01*
X66294592Y-83675398D01*
X66091626Y-83638696D01*
X66078386Y-83640115D01*
X66073800Y-83654750D01*
X66073800Y-84720085D01*
X65565800Y-84720085D01*
X65565800Y-83658351D01*
X65561490Y-83643673D01*
X65549607Y-83641610D01*
X65470475Y-83648324D01*
X65460003Y-83650114D01*
X65247265Y-83705330D01*
X65237225Y-83708865D01*
X65036830Y-83799137D01*
X65027544Y-83804306D01*
X64845225Y-83927050D01*
X64836930Y-83933719D01*
X64677900Y-84085428D01*
X64670859Y-84093386D01*
X64539659Y-84269725D01*
X64534055Y-84278762D01*
X64434443Y-84474684D01*
X64430443Y-84484535D01*
X64365266Y-84694440D01*
X64362983Y-84704824D01*
X64360939Y-84720243D01*
X51029100Y-84720243D01*
X51029100Y-82846942D01*
X81661648Y-82846942D01*
X81671628Y-83100960D01*
X81672602Y-83109784D01*
X81718278Y-83359875D01*
X81720482Y-83368462D01*
X81800936Y-83609613D01*
X81804340Y-83617831D01*
X81917967Y-83845235D01*
X81922485Y-83852874D01*
X82030594Y-84009296D01*
X82040912Y-84017647D01*
X82054567Y-84010523D01*
X83151278Y-82913812D01*
X83157656Y-82902132D01*
X83887708Y-82902132D01*
X83887839Y-82903965D01*
X83892090Y-82910580D01*
X84993327Y-84011817D01*
X85006728Y-84019135D01*
X85016629Y-84012149D01*
X85027427Y-83999305D01*
X85032653Y-83992110D01*
X85167167Y-83776425D01*
X85171338Y-83768547D01*
X85274117Y-83536065D01*
X85277133Y-83527688D01*
X85346132Y-83283034D01*
X85347936Y-83274326D01*
X85381943Y-83021145D01*
X85382471Y-83014752D01*
X85385945Y-82904222D01*
X85385818Y-82897779D01*
X85367778Y-82642986D01*
X85366525Y-82634183D01*
X85313020Y-82385662D01*
X85310541Y-82377129D01*
X85222554Y-82138630D01*
X85218899Y-82130535D01*
X85098181Y-81906807D01*
X85093422Y-81899309D01*
X85015304Y-81793545D01*
X85004176Y-81785103D01*
X84991583Y-81791927D01*
X83895322Y-82888188D01*
X83887708Y-82902132D01*
X83157656Y-82902132D01*
X83158892Y-82899868D01*
X83158761Y-82898035D01*
X83154510Y-82891420D01*
X82054723Y-81791633D01*
X82041882Y-81784621D01*
X82031193Y-81792416D01*
X81985415Y-81850485D01*
X81980422Y-81857833D01*
X81852740Y-82077655D01*
X81848832Y-82085629D01*
X81753397Y-82321247D01*
X81750648Y-82329709D01*
X81689367Y-82576413D01*
X81687838Y-82585174D01*
X81661927Y-82838059D01*
X81661648Y-82846942D01*
X51029100Y-82846942D01*
X51029100Y-81419533D01*
X82407189Y-81419533D01*
X82414169Y-81432659D01*
X83510488Y-82528978D01*
X83524432Y-82536592D01*
X83526265Y-82536461D01*
X83532880Y-82532210D01*
X84632429Y-81432661D01*
X84639283Y-81420109D01*
X84631076Y-81409039D01*
X84549530Y-81346805D01*
X84542101Y-81341925D01*
X84320305Y-81217713D01*
X84312271Y-81213932D01*
X84075165Y-81122203D01*
X84066692Y-81119596D01*
X83819036Y-81062193D01*
X83810260Y-81060803D01*
X83556991Y-81038868D01*
X83548120Y-81038728D01*
X83294276Y-81052698D01*
X83285474Y-81053810D01*
X83036132Y-81103408D01*
X83027579Y-81105748D01*
X82787721Y-81189978D01*
X82779555Y-81193512D01*
X82553969Y-81310696D01*
X82546397Y-81315335D01*
X82415592Y-81408810D01*
X82407189Y-81419533D01*
X51029100Y-81419533D01*
X51029100Y-72297217D01*
X51049102Y-72229096D01*
X51066005Y-72208122D01*
X53369908Y-69904220D01*
X53379445Y-69896600D01*
X53379131Y-69896231D01*
X53385964Y-69890416D01*
X53393558Y-69885624D01*
X53429185Y-69845283D01*
X53434531Y-69839597D01*
X53445982Y-69828146D01*
X53452266Y-69819762D01*
X53458640Y-69811933D01*
X53489978Y-69776449D01*
X53493792Y-69768325D01*
X53495420Y-69765847D01*
X53504422Y-69750866D01*
X53505835Y-69748285D01*
X53511216Y-69741105D01*
X53527844Y-69696750D01*
X53531764Y-69687448D01*
X53548067Y-69652723D01*
X53551881Y-69644600D01*
X53553262Y-69635734D01*
X53554118Y-69632933D01*
X53558562Y-69615996D01*
X53559195Y-69613116D01*
X53562344Y-69604716D01*
X53564473Y-69576075D01*
X53564880Y-69570600D01*
X54642702Y-69570600D01*
X54662657Y-69798687D01*
X54664081Y-69804000D01*
X54664081Y-69804002D01*
X54716783Y-70000685D01*
X54721916Y-70019843D01*
X54724239Y-70024824D01*
X54724239Y-70024825D01*
X54816351Y-70222362D01*
X54816354Y-70222367D01*
X54818677Y-70227349D01*
X54950002Y-70414900D01*
X55111900Y-70576798D01*
X55116408Y-70579955D01*
X55116411Y-70579957D01*
X55157742Y-70608897D01*
X55299451Y-70708123D01*
X55304433Y-70710446D01*
X55304438Y-70710449D01*
X55500965Y-70802090D01*
X55506957Y-70804884D01*
X55512265Y-70806306D01*
X55512267Y-70806307D01*
X55722798Y-70862719D01*
X55722800Y-70862719D01*
X55728113Y-70864143D01*
X55956200Y-70884098D01*
X56184287Y-70864143D01*
X56189600Y-70862719D01*
X56189602Y-70862719D01*
X56400133Y-70806307D01*
X56400135Y-70806306D01*
X56405443Y-70804884D01*
X56411435Y-70802090D01*
X56607962Y-70710449D01*
X56607967Y-70710446D01*
X56612949Y-70708123D01*
X56754658Y-70608897D01*
X56795989Y-70579957D01*
X56795992Y-70579955D01*
X56800500Y-70576798D01*
X56962398Y-70414900D01*
X57093723Y-70227349D01*
X57096046Y-70222367D01*
X57096049Y-70222362D01*
X57112005Y-70188143D01*
X57158922Y-70134858D01*
X57227199Y-70115397D01*
X57295159Y-70135939D01*
X57340395Y-70188143D01*
X57356351Y-70222362D01*
X57356354Y-70222367D01*
X57358677Y-70227349D01*
X57490002Y-70414900D01*
X57651900Y-70576798D01*
X57656408Y-70579955D01*
X57656411Y-70579957D01*
X57697742Y-70608897D01*
X57839451Y-70708123D01*
X57844433Y-70710446D01*
X57844438Y-70710449D01*
X58040965Y-70802090D01*
X58046957Y-70804884D01*
X58052265Y-70806306D01*
X58052267Y-70806307D01*
X58262798Y-70862719D01*
X58262800Y-70862719D01*
X58268113Y-70864143D01*
X58496200Y-70884098D01*
X58724287Y-70864143D01*
X58729600Y-70862719D01*
X58729602Y-70862719D01*
X58940133Y-70806307D01*
X58940135Y-70806306D01*
X58945443Y-70804884D01*
X58951435Y-70802090D01*
X59147962Y-70710449D01*
X59147967Y-70710446D01*
X59152949Y-70708123D01*
X59294658Y-70608897D01*
X59335989Y-70579957D01*
X59335992Y-70579955D01*
X59340500Y-70576798D01*
X59502398Y-70414900D01*
X59633723Y-70227349D01*
X59636046Y-70222367D01*
X59636049Y-70222362D01*
X59652005Y-70188143D01*
X59698922Y-70134858D01*
X59767199Y-70115397D01*
X59835159Y-70135939D01*
X59880395Y-70188143D01*
X59896351Y-70222362D01*
X59896354Y-70222367D01*
X59898677Y-70227349D01*
X60030002Y-70414900D01*
X60191900Y-70576798D01*
X60196408Y-70579955D01*
X60196411Y-70579957D01*
X60237742Y-70608897D01*
X60379451Y-70708123D01*
X60384433Y-70710446D01*
X60384438Y-70710449D01*
X60580965Y-70802090D01*
X60586957Y-70804884D01*
X60592265Y-70806306D01*
X60592267Y-70806307D01*
X60802798Y-70862719D01*
X60802800Y-70862719D01*
X60808113Y-70864143D01*
X61036200Y-70884098D01*
X61264287Y-70864143D01*
X61269600Y-70862719D01*
X61269602Y-70862719D01*
X61480133Y-70806307D01*
X61480135Y-70806306D01*
X61485443Y-70804884D01*
X61491435Y-70802090D01*
X61687962Y-70710449D01*
X61687967Y-70710446D01*
X61692949Y-70708123D01*
X61834658Y-70608897D01*
X61875989Y-70579957D01*
X61875992Y-70579955D01*
X61880500Y-70576798D01*
X62042398Y-70414900D01*
X62173723Y-70227349D01*
X62176046Y-70222367D01*
X62176049Y-70222362D01*
X62192005Y-70188143D01*
X62238922Y-70134858D01*
X62307199Y-70115397D01*
X62375159Y-70135939D01*
X62420395Y-70188143D01*
X62436351Y-70222362D01*
X62436354Y-70222367D01*
X62438677Y-70227349D01*
X62570002Y-70414900D01*
X62731900Y-70576798D01*
X62736408Y-70579955D01*
X62736411Y-70579957D01*
X62777742Y-70608897D01*
X62919451Y-70708123D01*
X62924433Y-70710446D01*
X62924438Y-70710449D01*
X63120965Y-70802090D01*
X63126957Y-70804884D01*
X63132265Y-70806306D01*
X63132267Y-70806307D01*
X63342798Y-70862719D01*
X63342800Y-70862719D01*
X63348113Y-70864143D01*
X63576200Y-70884098D01*
X63804287Y-70864143D01*
X63809600Y-70862719D01*
X63809602Y-70862719D01*
X64020133Y-70806307D01*
X64020135Y-70806306D01*
X64025443Y-70804884D01*
X64031435Y-70802090D01*
X64227962Y-70710449D01*
X64227967Y-70710446D01*
X64232949Y-70708123D01*
X64374658Y-70608897D01*
X64415989Y-70579957D01*
X64415992Y-70579955D01*
X64420500Y-70576798D01*
X64582398Y-70414900D01*
X64713723Y-70227349D01*
X64716046Y-70222367D01*
X64716049Y-70222362D01*
X64732005Y-70188143D01*
X64778922Y-70134858D01*
X64847199Y-70115397D01*
X64915159Y-70135939D01*
X64960395Y-70188143D01*
X64976351Y-70222362D01*
X64976354Y-70222367D01*
X64978677Y-70227349D01*
X65110002Y-70414900D01*
X65271900Y-70576798D01*
X65276408Y-70579955D01*
X65276411Y-70579957D01*
X65317742Y-70608897D01*
X65459451Y-70708123D01*
X65464433Y-70710446D01*
X65464438Y-70710449D01*
X65660965Y-70802090D01*
X65666957Y-70804884D01*
X65672265Y-70806306D01*
X65672267Y-70806307D01*
X65882798Y-70862719D01*
X65882800Y-70862719D01*
X65888113Y-70864143D01*
X66116200Y-70884098D01*
X66344287Y-70864143D01*
X66349600Y-70862719D01*
X66349602Y-70862719D01*
X66560133Y-70806307D01*
X66560135Y-70806306D01*
X66565443Y-70804884D01*
X66571435Y-70802090D01*
X66767962Y-70710449D01*
X66767967Y-70710446D01*
X66772949Y-70708123D01*
X66914658Y-70608897D01*
X66955989Y-70579957D01*
X66955992Y-70579955D01*
X66960500Y-70576798D01*
X67122398Y-70414900D01*
X67253723Y-70227349D01*
X67256046Y-70222367D01*
X67256049Y-70222362D01*
X67272005Y-70188143D01*
X67318922Y-70134858D01*
X67387199Y-70115397D01*
X67455159Y-70135939D01*
X67500395Y-70188143D01*
X67516351Y-70222362D01*
X67516354Y-70222367D01*
X67518677Y-70227349D01*
X67650002Y-70414900D01*
X67811900Y-70576798D01*
X67816408Y-70579955D01*
X67816411Y-70579957D01*
X67857742Y-70608897D01*
X67999451Y-70708123D01*
X68004433Y-70710446D01*
X68004438Y-70710449D01*
X68200965Y-70802090D01*
X68206957Y-70804884D01*
X68212265Y-70806306D01*
X68212267Y-70806307D01*
X68422798Y-70862719D01*
X68422800Y-70862719D01*
X68428113Y-70864143D01*
X68656200Y-70884098D01*
X68884287Y-70864143D01*
X68889600Y-70862719D01*
X68889602Y-70862719D01*
X69100133Y-70806307D01*
X69100135Y-70806306D01*
X69105443Y-70804884D01*
X69111435Y-70802090D01*
X69307962Y-70710449D01*
X69307967Y-70710446D01*
X69312949Y-70708123D01*
X69454658Y-70608897D01*
X69495989Y-70579957D01*
X69495992Y-70579955D01*
X69500500Y-70576798D01*
X69662398Y-70414900D01*
X69793723Y-70227349D01*
X69796046Y-70222367D01*
X69796049Y-70222362D01*
X69888161Y-70024825D01*
X69888161Y-70024824D01*
X69890484Y-70019843D01*
X69895618Y-70000685D01*
X69948319Y-69804002D01*
X69948319Y-69804000D01*
X69949743Y-69798687D01*
X69969698Y-69570600D01*
X72422702Y-69570600D01*
X72442657Y-69798687D01*
X72444081Y-69804000D01*
X72444081Y-69804002D01*
X72496783Y-70000685D01*
X72501916Y-70019843D01*
X72504239Y-70024824D01*
X72504239Y-70024825D01*
X72596351Y-70222362D01*
X72596354Y-70222367D01*
X72598677Y-70227349D01*
X72730002Y-70414900D01*
X72891900Y-70576798D01*
X72896408Y-70579955D01*
X72896411Y-70579957D01*
X72937742Y-70608897D01*
X73079451Y-70708123D01*
X73084433Y-70710446D01*
X73084438Y-70710449D01*
X73280965Y-70802090D01*
X73286957Y-70804884D01*
X73292265Y-70806306D01*
X73292267Y-70806307D01*
X73502798Y-70862719D01*
X73502800Y-70862719D01*
X73508113Y-70864143D01*
X73736200Y-70884098D01*
X73964287Y-70864143D01*
X73969600Y-70862719D01*
X73969602Y-70862719D01*
X74180133Y-70806307D01*
X74180135Y-70806306D01*
X74185443Y-70804884D01*
X74191435Y-70802090D01*
X74387962Y-70710449D01*
X74387967Y-70710446D01*
X74392949Y-70708123D01*
X74534658Y-70608897D01*
X74575989Y-70579957D01*
X74575992Y-70579955D01*
X74580500Y-70576798D01*
X74742398Y-70414900D01*
X74873723Y-70227349D01*
X74876046Y-70222367D01*
X74876049Y-70222362D01*
X74892281Y-70187551D01*
X74939198Y-70134266D01*
X75007475Y-70114805D01*
X75075435Y-70135347D01*
X75120671Y-70187551D01*
X75136786Y-70222111D01*
X75142269Y-70231607D01*
X75267228Y-70410067D01*
X75274284Y-70418475D01*
X75428325Y-70572516D01*
X75436733Y-70579572D01*
X75615193Y-70704531D01*
X75624689Y-70710014D01*
X75822147Y-70802090D01*
X75832439Y-70805836D01*
X76004703Y-70851994D01*
X76018799Y-70851658D01*
X76022200Y-70843716D01*
X76022200Y-70838567D01*
X76530200Y-70838567D01*
X76534173Y-70852098D01*
X76542722Y-70853327D01*
X76719961Y-70805836D01*
X76730253Y-70802090D01*
X76927711Y-70710014D01*
X76937207Y-70704531D01*
X77115667Y-70579572D01*
X77124075Y-70572516D01*
X77278116Y-70418475D01*
X77285172Y-70410067D01*
X77410131Y-70231607D01*
X77415614Y-70222111D01*
X77432005Y-70186959D01*
X77478922Y-70133674D01*
X77547199Y-70114213D01*
X77615159Y-70134755D01*
X77660395Y-70186959D01*
X77676786Y-70222111D01*
X77682269Y-70231607D01*
X77807228Y-70410067D01*
X77814284Y-70418475D01*
X77968325Y-70572516D01*
X77976733Y-70579572D01*
X78155193Y-70704531D01*
X78164689Y-70710014D01*
X78362147Y-70802090D01*
X78372439Y-70805836D01*
X78544703Y-70851994D01*
X78558799Y-70851658D01*
X78562200Y-70843716D01*
X78562200Y-70838567D01*
X79070200Y-70838567D01*
X79074173Y-70852098D01*
X79082722Y-70853327D01*
X79259961Y-70805836D01*
X79270253Y-70802090D01*
X79467711Y-70710014D01*
X79477207Y-70704531D01*
X79655667Y-70579572D01*
X79664075Y-70572516D01*
X79818116Y-70418475D01*
X79825172Y-70410067D01*
X79950131Y-70231607D01*
X79955614Y-70222111D01*
X79971729Y-70187551D01*
X80018646Y-70134266D01*
X80086923Y-70114805D01*
X80154883Y-70135347D01*
X80200119Y-70187551D01*
X80216351Y-70222362D01*
X80216354Y-70222367D01*
X80218677Y-70227349D01*
X80350002Y-70414900D01*
X80511900Y-70576798D01*
X80516408Y-70579955D01*
X80516411Y-70579957D01*
X80557742Y-70608897D01*
X80699451Y-70708123D01*
X80704433Y-70710446D01*
X80704438Y-70710449D01*
X80900965Y-70802090D01*
X80906957Y-70804884D01*
X80912265Y-70806306D01*
X80912267Y-70806307D01*
X81122798Y-70862719D01*
X81122800Y-70862719D01*
X81128113Y-70864143D01*
X81356200Y-70884098D01*
X81584287Y-70864143D01*
X81589600Y-70862719D01*
X81589602Y-70862719D01*
X81800133Y-70806307D01*
X81800135Y-70806306D01*
X81805443Y-70804884D01*
X81811435Y-70802090D01*
X82007962Y-70710449D01*
X82007967Y-70710446D01*
X82012949Y-70708123D01*
X82154658Y-70608897D01*
X82195989Y-70579957D01*
X82195992Y-70579955D01*
X82200500Y-70576798D01*
X82362398Y-70414900D01*
X82493723Y-70227349D01*
X82496046Y-70222367D01*
X82496049Y-70222362D01*
X82512005Y-70188143D01*
X82558922Y-70134858D01*
X82627199Y-70115397D01*
X82695159Y-70135939D01*
X82740395Y-70188143D01*
X82756351Y-70222362D01*
X82756354Y-70222367D01*
X82758677Y-70227349D01*
X82890002Y-70414900D01*
X83051900Y-70576798D01*
X83056408Y-70579955D01*
X83056411Y-70579957D01*
X83097742Y-70608897D01*
X83239451Y-70708123D01*
X83244433Y-70710446D01*
X83244438Y-70710449D01*
X83440965Y-70802090D01*
X83446957Y-70804884D01*
X83452265Y-70806306D01*
X83452267Y-70806307D01*
X83662798Y-70862719D01*
X83662800Y-70862719D01*
X83668113Y-70864143D01*
X83896200Y-70884098D01*
X84124287Y-70864143D01*
X84129600Y-70862719D01*
X84129602Y-70862719D01*
X84340133Y-70806307D01*
X84340135Y-70806306D01*
X84345443Y-70804884D01*
X84351435Y-70802090D01*
X84547962Y-70710449D01*
X84547967Y-70710446D01*
X84552949Y-70708123D01*
X84694658Y-70608897D01*
X84735989Y-70579957D01*
X84735992Y-70579955D01*
X84740500Y-70576798D01*
X84902398Y-70414900D01*
X85033723Y-70227349D01*
X85036046Y-70222367D01*
X85036049Y-70222362D01*
X85052005Y-70188143D01*
X85098922Y-70134858D01*
X85167199Y-70115397D01*
X85235159Y-70135939D01*
X85280395Y-70188143D01*
X85296351Y-70222362D01*
X85296354Y-70222367D01*
X85298677Y-70227349D01*
X85430002Y-70414900D01*
X85591900Y-70576798D01*
X85596408Y-70579955D01*
X85596411Y-70579957D01*
X85637742Y-70608897D01*
X85779451Y-70708123D01*
X85784433Y-70710446D01*
X85784438Y-70710449D01*
X85980965Y-70802090D01*
X85986957Y-70804884D01*
X85992265Y-70806306D01*
X85992267Y-70806307D01*
X86202798Y-70862719D01*
X86202800Y-70862719D01*
X86208113Y-70864143D01*
X86436200Y-70884098D01*
X86664287Y-70864143D01*
X86669600Y-70862719D01*
X86669602Y-70862719D01*
X86880133Y-70806307D01*
X86880135Y-70806306D01*
X86885443Y-70804884D01*
X86891435Y-70802090D01*
X87087962Y-70710449D01*
X87087967Y-70710446D01*
X87092949Y-70708123D01*
X87234658Y-70608897D01*
X87275989Y-70579957D01*
X87275992Y-70579955D01*
X87280500Y-70576798D01*
X87442398Y-70414900D01*
X87573723Y-70227349D01*
X87576046Y-70222367D01*
X87576049Y-70222362D01*
X87592005Y-70188143D01*
X87638922Y-70134858D01*
X87707199Y-70115397D01*
X87775159Y-70135939D01*
X87820395Y-70188143D01*
X87836351Y-70222362D01*
X87836354Y-70222367D01*
X87838677Y-70227349D01*
X87970002Y-70414900D01*
X88131900Y-70576798D01*
X88136408Y-70579955D01*
X88136411Y-70579957D01*
X88177742Y-70608897D01*
X88319451Y-70708123D01*
X88324433Y-70710446D01*
X88324438Y-70710449D01*
X88520965Y-70802090D01*
X88526957Y-70804884D01*
X88532265Y-70806306D01*
X88532267Y-70806307D01*
X88742798Y-70862719D01*
X88742800Y-70862719D01*
X88748113Y-70864143D01*
X88976200Y-70884098D01*
X89204287Y-70864143D01*
X89209600Y-70862719D01*
X89209602Y-70862719D01*
X89420133Y-70806307D01*
X89420135Y-70806306D01*
X89425443Y-70804884D01*
X89431435Y-70802090D01*
X89627962Y-70710449D01*
X89627967Y-70710446D01*
X89632949Y-70708123D01*
X89774658Y-70608897D01*
X89815989Y-70579957D01*
X89815992Y-70579955D01*
X89820500Y-70576798D01*
X89982398Y-70414900D01*
X89985557Y-70410389D01*
X89989092Y-70406176D01*
X89990226Y-70407127D01*
X90040271Y-70367129D01*
X90110890Y-70359824D01*
X90174249Y-70391858D01*
X90210230Y-70453062D01*
X90213282Y-70470117D01*
X90214455Y-70480916D01*
X90265585Y-70617305D01*
X90352939Y-70733861D01*
X90469495Y-70821215D01*
X90605884Y-70872345D01*
X90668066Y-70879100D01*
X92364334Y-70879100D01*
X92426516Y-70872345D01*
X92562905Y-70821215D01*
X92679461Y-70733861D01*
X92766815Y-70617305D01*
X92817945Y-70480916D01*
X92824700Y-70418734D01*
X92824700Y-68722466D01*
X92817945Y-68660284D01*
X92766815Y-68523895D01*
X92679461Y-68407339D01*
X92562905Y-68319985D01*
X92426516Y-68268855D01*
X92364334Y-68262100D01*
X90668066Y-68262100D01*
X90605884Y-68268855D01*
X90469495Y-68319985D01*
X90352939Y-68407339D01*
X90265585Y-68523895D01*
X90214455Y-68660284D01*
X90213283Y-68671074D01*
X90212397Y-68673206D01*
X90211775Y-68675822D01*
X90211352Y-68675721D01*
X90186045Y-68736635D01*
X90127683Y-68777063D01*
X90056729Y-68779522D01*
X89995710Y-68743229D01*
X89988711Y-68734569D01*
X89985554Y-68730807D01*
X89982398Y-68726300D01*
X89820500Y-68564402D01*
X89815992Y-68561245D01*
X89815989Y-68561243D01*
X89737811Y-68506502D01*
X89632949Y-68433077D01*
X89627967Y-68430754D01*
X89627962Y-68430751D01*
X89430425Y-68338639D01*
X89430424Y-68338639D01*
X89425443Y-68336316D01*
X89420135Y-68334894D01*
X89420133Y-68334893D01*
X89209602Y-68278481D01*
X89209600Y-68278481D01*
X89204287Y-68277057D01*
X88976200Y-68257102D01*
X88748113Y-68277057D01*
X88742800Y-68278481D01*
X88742798Y-68278481D01*
X88532267Y-68334893D01*
X88532265Y-68334894D01*
X88526957Y-68336316D01*
X88521976Y-68338639D01*
X88521975Y-68338639D01*
X88324438Y-68430751D01*
X88324433Y-68430754D01*
X88319451Y-68433077D01*
X88214589Y-68506502D01*
X88136411Y-68561243D01*
X88136408Y-68561245D01*
X88131900Y-68564402D01*
X87970002Y-68726300D01*
X87838677Y-68913851D01*
X87836354Y-68918833D01*
X87836351Y-68918838D01*
X87820395Y-68953057D01*
X87773478Y-69006342D01*
X87705201Y-69025803D01*
X87637241Y-69005261D01*
X87592005Y-68953057D01*
X87576049Y-68918838D01*
X87576046Y-68918833D01*
X87573723Y-68913851D01*
X87442398Y-68726300D01*
X87280500Y-68564402D01*
X87275992Y-68561245D01*
X87275989Y-68561243D01*
X87197811Y-68506502D01*
X87092949Y-68433077D01*
X87087967Y-68430754D01*
X87087962Y-68430751D01*
X86890425Y-68338639D01*
X86890424Y-68338639D01*
X86885443Y-68336316D01*
X86880135Y-68334894D01*
X86880133Y-68334893D01*
X86669602Y-68278481D01*
X86669600Y-68278481D01*
X86664287Y-68277057D01*
X86436200Y-68257102D01*
X86208113Y-68277057D01*
X86202800Y-68278481D01*
X86202798Y-68278481D01*
X85992267Y-68334893D01*
X85992265Y-68334894D01*
X85986957Y-68336316D01*
X85981976Y-68338639D01*
X85981975Y-68338639D01*
X85784438Y-68430751D01*
X85784433Y-68430754D01*
X85779451Y-68433077D01*
X85674589Y-68506502D01*
X85596411Y-68561243D01*
X85596408Y-68561245D01*
X85591900Y-68564402D01*
X85430002Y-68726300D01*
X85298677Y-68913851D01*
X85296354Y-68918833D01*
X85296351Y-68918838D01*
X85280395Y-68953057D01*
X85233478Y-69006342D01*
X85165201Y-69025803D01*
X85097241Y-69005261D01*
X85052005Y-68953057D01*
X85036049Y-68918838D01*
X85036046Y-68918833D01*
X85033723Y-68913851D01*
X84902398Y-68726300D01*
X84740500Y-68564402D01*
X84735992Y-68561245D01*
X84735989Y-68561243D01*
X84657811Y-68506502D01*
X84552949Y-68433077D01*
X84547967Y-68430754D01*
X84547962Y-68430751D01*
X84350425Y-68338639D01*
X84350424Y-68338639D01*
X84345443Y-68336316D01*
X84340135Y-68334894D01*
X84340133Y-68334893D01*
X84129602Y-68278481D01*
X84129600Y-68278481D01*
X84124287Y-68277057D01*
X83896200Y-68257102D01*
X83668113Y-68277057D01*
X83662800Y-68278481D01*
X83662798Y-68278481D01*
X83452267Y-68334893D01*
X83452265Y-68334894D01*
X83446957Y-68336316D01*
X83441976Y-68338639D01*
X83441975Y-68338639D01*
X83244438Y-68430751D01*
X83244433Y-68430754D01*
X83239451Y-68433077D01*
X83134589Y-68506502D01*
X83056411Y-68561243D01*
X83056408Y-68561245D01*
X83051900Y-68564402D01*
X82890002Y-68726300D01*
X82758677Y-68913851D01*
X82756354Y-68918833D01*
X82756351Y-68918838D01*
X82740395Y-68953057D01*
X82693478Y-69006342D01*
X82625201Y-69025803D01*
X82557241Y-69005261D01*
X82512005Y-68953057D01*
X82496049Y-68918838D01*
X82496046Y-68918833D01*
X82493723Y-68913851D01*
X82362398Y-68726300D01*
X82200500Y-68564402D01*
X82195992Y-68561245D01*
X82195989Y-68561243D01*
X82117811Y-68506502D01*
X82012949Y-68433077D01*
X82007967Y-68430754D01*
X82007962Y-68430751D01*
X81810425Y-68338639D01*
X81810424Y-68338639D01*
X81805443Y-68336316D01*
X81800135Y-68334894D01*
X81800133Y-68334893D01*
X81589602Y-68278481D01*
X81589600Y-68278481D01*
X81584287Y-68277057D01*
X81356200Y-68257102D01*
X81128113Y-68277057D01*
X81122800Y-68278481D01*
X81122798Y-68278481D01*
X80912267Y-68334893D01*
X80912265Y-68334894D01*
X80906957Y-68336316D01*
X80901976Y-68338639D01*
X80901975Y-68338639D01*
X80704438Y-68430751D01*
X80704433Y-68430754D01*
X80699451Y-68433077D01*
X80594589Y-68506502D01*
X80516411Y-68561243D01*
X80516408Y-68561245D01*
X80511900Y-68564402D01*
X80350002Y-68726300D01*
X80218677Y-68913851D01*
X80216354Y-68918833D01*
X80216351Y-68918838D01*
X80200119Y-68953649D01*
X80153202Y-69006934D01*
X80084925Y-69026395D01*
X80016965Y-69005853D01*
X79971729Y-68953649D01*
X79955614Y-68919089D01*
X79950131Y-68909593D01*
X79825172Y-68731133D01*
X79818116Y-68722725D01*
X79664075Y-68568684D01*
X79655667Y-68561628D01*
X79477207Y-68436669D01*
X79467711Y-68431186D01*
X79270253Y-68339110D01*
X79259961Y-68335364D01*
X79087697Y-68289206D01*
X79073601Y-68289542D01*
X79070200Y-68297484D01*
X79070200Y-70838567D01*
X78562200Y-70838567D01*
X78562200Y-69842715D01*
X78557725Y-69827476D01*
X78556335Y-69826271D01*
X78548652Y-69824600D01*
X76548315Y-69824600D01*
X76533076Y-69829075D01*
X76531871Y-69830465D01*
X76530200Y-69838148D01*
X76530200Y-70838567D01*
X76022200Y-70838567D01*
X76022200Y-69298485D01*
X76530200Y-69298485D01*
X76534675Y-69313724D01*
X76536065Y-69314929D01*
X76543748Y-69316600D01*
X78544085Y-69316600D01*
X78559324Y-69312125D01*
X78560529Y-69310735D01*
X78562200Y-69303052D01*
X78562200Y-68302633D01*
X78558227Y-68289102D01*
X78549678Y-68287873D01*
X78372439Y-68335364D01*
X78362147Y-68339110D01*
X78164689Y-68431186D01*
X78155193Y-68436669D01*
X77976733Y-68561628D01*
X77968325Y-68568684D01*
X77814284Y-68722725D01*
X77807228Y-68731133D01*
X77682269Y-68909593D01*
X77676786Y-68919089D01*
X77660395Y-68954241D01*
X77613478Y-69007526D01*
X77545201Y-69026987D01*
X77477241Y-69006445D01*
X77432005Y-68954241D01*
X77415614Y-68919089D01*
X77410131Y-68909593D01*
X77285172Y-68731133D01*
X77278116Y-68722725D01*
X77124075Y-68568684D01*
X77115667Y-68561628D01*
X76937207Y-68436669D01*
X76927711Y-68431186D01*
X76730253Y-68339110D01*
X76719961Y-68335364D01*
X76547697Y-68289206D01*
X76533601Y-68289542D01*
X76530200Y-68297484D01*
X76530200Y-69298485D01*
X76022200Y-69298485D01*
X76022200Y-68302633D01*
X76018227Y-68289102D01*
X76009678Y-68287873D01*
X75832439Y-68335364D01*
X75822147Y-68339110D01*
X75624689Y-68431186D01*
X75615193Y-68436669D01*
X75436733Y-68561628D01*
X75428325Y-68568684D01*
X75274284Y-68722725D01*
X75267228Y-68731133D01*
X75142269Y-68909593D01*
X75136786Y-68919089D01*
X75120671Y-68953649D01*
X75073754Y-69006934D01*
X75005477Y-69026395D01*
X74937517Y-69005853D01*
X74892281Y-68953649D01*
X74876049Y-68918838D01*
X74876046Y-68918833D01*
X74873723Y-68913851D01*
X74742398Y-68726300D01*
X74580500Y-68564402D01*
X74575992Y-68561245D01*
X74575989Y-68561243D01*
X74497811Y-68506502D01*
X74392949Y-68433077D01*
X74387967Y-68430754D01*
X74387962Y-68430751D01*
X74190425Y-68338639D01*
X74190424Y-68338639D01*
X74185443Y-68336316D01*
X74180135Y-68334894D01*
X74180133Y-68334893D01*
X73969602Y-68278481D01*
X73969600Y-68278481D01*
X73964287Y-68277057D01*
X73736200Y-68257102D01*
X73508113Y-68277057D01*
X73502800Y-68278481D01*
X73502798Y-68278481D01*
X73292267Y-68334893D01*
X73292265Y-68334894D01*
X73286957Y-68336316D01*
X73281976Y-68338639D01*
X73281975Y-68338639D01*
X73084438Y-68430751D01*
X73084433Y-68430754D01*
X73079451Y-68433077D01*
X72974589Y-68506502D01*
X72896411Y-68561243D01*
X72896408Y-68561245D01*
X72891900Y-68564402D01*
X72730002Y-68726300D01*
X72598677Y-68913851D01*
X72596354Y-68918833D01*
X72596351Y-68918838D01*
X72556052Y-69005261D01*
X72501916Y-69121357D01*
X72500494Y-69126665D01*
X72500493Y-69126667D01*
X72444081Y-69337198D01*
X72442657Y-69342513D01*
X72422702Y-69570600D01*
X69969698Y-69570600D01*
X69949743Y-69342513D01*
X69948319Y-69337198D01*
X69891907Y-69126667D01*
X69891906Y-69126665D01*
X69890484Y-69121357D01*
X69836348Y-69005261D01*
X69796049Y-68918838D01*
X69796046Y-68918833D01*
X69793723Y-68913851D01*
X69662398Y-68726300D01*
X69500500Y-68564402D01*
X69495992Y-68561245D01*
X69495989Y-68561243D01*
X69417811Y-68506502D01*
X69312949Y-68433077D01*
X69307967Y-68430754D01*
X69307962Y-68430751D01*
X69110425Y-68338639D01*
X69110424Y-68338639D01*
X69105443Y-68336316D01*
X69100135Y-68334894D01*
X69100133Y-68334893D01*
X68889602Y-68278481D01*
X68889600Y-68278481D01*
X68884287Y-68277057D01*
X68656200Y-68257102D01*
X68428113Y-68277057D01*
X68422800Y-68278481D01*
X68422798Y-68278481D01*
X68212267Y-68334893D01*
X68212265Y-68334894D01*
X68206957Y-68336316D01*
X68201976Y-68338639D01*
X68201975Y-68338639D01*
X68004438Y-68430751D01*
X68004433Y-68430754D01*
X67999451Y-68433077D01*
X67894589Y-68506502D01*
X67816411Y-68561243D01*
X67816408Y-68561245D01*
X67811900Y-68564402D01*
X67650002Y-68726300D01*
X67518677Y-68913851D01*
X67516354Y-68918833D01*
X67516351Y-68918838D01*
X67500395Y-68953057D01*
X67453478Y-69006342D01*
X67385201Y-69025803D01*
X67317241Y-69005261D01*
X67272005Y-68953057D01*
X67256049Y-68918838D01*
X67256046Y-68918833D01*
X67253723Y-68913851D01*
X67122398Y-68726300D01*
X66960500Y-68564402D01*
X66955992Y-68561245D01*
X66955989Y-68561243D01*
X66877811Y-68506502D01*
X66772949Y-68433077D01*
X66767967Y-68430754D01*
X66767962Y-68430751D01*
X66570425Y-68338639D01*
X66570424Y-68338639D01*
X66565443Y-68336316D01*
X66560135Y-68334894D01*
X66560133Y-68334893D01*
X66349602Y-68278481D01*
X66349600Y-68278481D01*
X66344287Y-68277057D01*
X66116200Y-68257102D01*
X65888113Y-68277057D01*
X65882800Y-68278481D01*
X65882798Y-68278481D01*
X65672267Y-68334893D01*
X65672265Y-68334894D01*
X65666957Y-68336316D01*
X65661976Y-68338639D01*
X65661975Y-68338639D01*
X65464438Y-68430751D01*
X65464433Y-68430754D01*
X65459451Y-68433077D01*
X65354589Y-68506502D01*
X65276411Y-68561243D01*
X65276408Y-68561245D01*
X65271900Y-68564402D01*
X65110002Y-68726300D01*
X64978677Y-68913851D01*
X64976354Y-68918833D01*
X64976351Y-68918838D01*
X64960395Y-68953057D01*
X64913478Y-69006342D01*
X64845201Y-69025803D01*
X64777241Y-69005261D01*
X64732005Y-68953057D01*
X64716049Y-68918838D01*
X64716046Y-68918833D01*
X64713723Y-68913851D01*
X64582398Y-68726300D01*
X64420500Y-68564402D01*
X64415992Y-68561245D01*
X64415989Y-68561243D01*
X64337811Y-68506502D01*
X64232949Y-68433077D01*
X64227967Y-68430754D01*
X64227962Y-68430751D01*
X64030425Y-68338639D01*
X64030424Y-68338639D01*
X64025443Y-68336316D01*
X64020135Y-68334894D01*
X64020133Y-68334893D01*
X63809602Y-68278481D01*
X63809600Y-68278481D01*
X63804287Y-68277057D01*
X63576200Y-68257102D01*
X63348113Y-68277057D01*
X63342800Y-68278481D01*
X63342798Y-68278481D01*
X63132267Y-68334893D01*
X63132265Y-68334894D01*
X63126957Y-68336316D01*
X63121976Y-68338639D01*
X63121975Y-68338639D01*
X62924438Y-68430751D01*
X62924433Y-68430754D01*
X62919451Y-68433077D01*
X62814589Y-68506502D01*
X62736411Y-68561243D01*
X62736408Y-68561245D01*
X62731900Y-68564402D01*
X62570002Y-68726300D01*
X62438677Y-68913851D01*
X62436354Y-68918833D01*
X62436351Y-68918838D01*
X62420395Y-68953057D01*
X62373478Y-69006342D01*
X62305201Y-69025803D01*
X62237241Y-69005261D01*
X62192005Y-68953057D01*
X62176049Y-68918838D01*
X62176046Y-68918833D01*
X62173723Y-68913851D01*
X62042398Y-68726300D01*
X61880500Y-68564402D01*
X61875992Y-68561245D01*
X61875989Y-68561243D01*
X61797811Y-68506502D01*
X61692949Y-68433077D01*
X61687967Y-68430754D01*
X61687962Y-68430751D01*
X61490425Y-68338639D01*
X61490424Y-68338639D01*
X61485443Y-68336316D01*
X61480135Y-68334894D01*
X61480133Y-68334893D01*
X61269602Y-68278481D01*
X61269600Y-68278481D01*
X61264287Y-68277057D01*
X61036200Y-68257102D01*
X60808113Y-68277057D01*
X60802800Y-68278481D01*
X60802798Y-68278481D01*
X60592267Y-68334893D01*
X60592265Y-68334894D01*
X60586957Y-68336316D01*
X60581976Y-68338639D01*
X60581975Y-68338639D01*
X60384438Y-68430751D01*
X60384433Y-68430754D01*
X60379451Y-68433077D01*
X60274589Y-68506502D01*
X60196411Y-68561243D01*
X60196408Y-68561245D01*
X60191900Y-68564402D01*
X60030002Y-68726300D01*
X59898677Y-68913851D01*
X59896354Y-68918833D01*
X59896351Y-68918838D01*
X59880395Y-68953057D01*
X59833478Y-69006342D01*
X59765201Y-69025803D01*
X59697241Y-69005261D01*
X59652005Y-68953057D01*
X59636049Y-68918838D01*
X59636046Y-68918833D01*
X59633723Y-68913851D01*
X59502398Y-68726300D01*
X59340500Y-68564402D01*
X59335992Y-68561245D01*
X59335989Y-68561243D01*
X59257811Y-68506502D01*
X59152949Y-68433077D01*
X59147967Y-68430754D01*
X59147962Y-68430751D01*
X58950425Y-68338639D01*
X58950424Y-68338639D01*
X58945443Y-68336316D01*
X58940135Y-68334894D01*
X58940133Y-68334893D01*
X58729602Y-68278481D01*
X58729600Y-68278481D01*
X58724287Y-68277057D01*
X58496200Y-68257102D01*
X58268113Y-68277057D01*
X58262800Y-68278481D01*
X58262798Y-68278481D01*
X58052267Y-68334893D01*
X58052265Y-68334894D01*
X58046957Y-68336316D01*
X58041976Y-68338639D01*
X58041975Y-68338639D01*
X57844438Y-68430751D01*
X57844433Y-68430754D01*
X57839451Y-68433077D01*
X57734589Y-68506502D01*
X57656411Y-68561243D01*
X57656408Y-68561245D01*
X57651900Y-68564402D01*
X57490002Y-68726300D01*
X57358677Y-68913851D01*
X57356354Y-68918833D01*
X57356351Y-68918838D01*
X57340395Y-68953057D01*
X57293478Y-69006342D01*
X57225201Y-69025803D01*
X57157241Y-69005261D01*
X57112005Y-68953057D01*
X57096049Y-68918838D01*
X57096046Y-68918833D01*
X57093723Y-68913851D01*
X56962398Y-68726300D01*
X56800500Y-68564402D01*
X56795992Y-68561245D01*
X56795989Y-68561243D01*
X56717811Y-68506502D01*
X56612949Y-68433077D01*
X56607967Y-68430754D01*
X56607962Y-68430751D01*
X56410425Y-68338639D01*
X56410424Y-68338639D01*
X56405443Y-68336316D01*
X56400135Y-68334894D01*
X56400133Y-68334893D01*
X56189602Y-68278481D01*
X56189600Y-68278481D01*
X56184287Y-68277057D01*
X55956200Y-68257102D01*
X55728113Y-68277057D01*
X55722800Y-68278481D01*
X55722798Y-68278481D01*
X55512267Y-68334893D01*
X55512265Y-68334894D01*
X55506957Y-68336316D01*
X55501976Y-68338639D01*
X55501975Y-68338639D01*
X55304438Y-68430751D01*
X55304433Y-68430754D01*
X55299451Y-68433077D01*
X55194589Y-68506502D01*
X55116411Y-68561243D01*
X55116408Y-68561245D01*
X55111900Y-68564402D01*
X54950002Y-68726300D01*
X54818677Y-68913851D01*
X54816354Y-68918833D01*
X54816351Y-68918838D01*
X54776052Y-69005261D01*
X54721916Y-69121357D01*
X54720494Y-69126665D01*
X54720493Y-69126667D01*
X54664081Y-69337198D01*
X54662657Y-69342513D01*
X54642702Y-69570600D01*
X53564880Y-69570600D01*
X53565852Y-69557511D01*
X53567006Y-69547463D01*
X53568350Y-69538829D01*
X53569100Y-69534014D01*
X53569100Y-69518477D01*
X53569447Y-69509139D01*
X53572474Y-69468410D01*
X53572474Y-69468409D01*
X53573139Y-69459459D01*
X53571266Y-69450684D01*
X53570703Y-69442427D01*
X53569100Y-69427238D01*
X53569100Y-67309500D01*
X53589102Y-67241379D01*
X53642758Y-67194886D01*
X53695100Y-67183500D01*
X119177300Y-67183500D01*
X119245421Y-67203502D01*
G37*
%TD.AperFunction*%
%TD*%
M02*
