%TF.GenerationSoftware,KiCad,Pcbnew,(6.0.6)*%
%TF.CreationDate,2022-11-26T18:27:24-08:00*%
%TF.ProjectId,AS-EXTN-UNO-01,41532d45-5854-44e2-9d55-4e4f2d30312e,rev?*%
%TF.SameCoordinates,Original*%
%TF.FileFunction,Legend,Top*%
%TF.FilePolarity,Positive*%
%FSLAX46Y46*%
G04 Gerber Fmt 4.6, Leading zero omitted, Abs format (unit mm)*
G04 Created by KiCad (PCBNEW (6.0.6)) date 2022-11-26 18:27:24*
%MOMM*%
%LPD*%
G01*
G04 APERTURE LIST*
%ADD10C,0.300000*%
%ADD11C,0.150000*%
%ADD12C,0.120000*%
%ADD13C,0.254000*%
G04 APERTURE END LIST*
D10*
X64102800Y-109746171D02*
X64102800Y-108246171D01*
X64102800Y-108960457D02*
X64959942Y-108960457D01*
X64959942Y-109746171D02*
X64959942Y-108246171D01*
X65959942Y-108246171D02*
X66245657Y-108246171D01*
X66388514Y-108317600D01*
X66531371Y-108460457D01*
X66602800Y-108746171D01*
X66602800Y-109246171D01*
X66531371Y-109531885D01*
X66388514Y-109674742D01*
X66245657Y-109746171D01*
X65959942Y-109746171D01*
X65817085Y-109674742D01*
X65674228Y-109531885D01*
X65602800Y-109246171D01*
X65602800Y-108746171D01*
X65674228Y-108460457D01*
X65817085Y-108317600D01*
X65959942Y-108246171D01*
X67245657Y-109746171D02*
X67245657Y-108246171D01*
X67745657Y-109317600D01*
X68245657Y-108246171D01*
X68245657Y-109746171D01*
X68959942Y-108960457D02*
X69459942Y-108960457D01*
X69674228Y-109746171D02*
X68959942Y-109746171D01*
X68959942Y-108246171D01*
X69674228Y-108246171D01*
X97664142Y-91811771D02*
X97664142Y-90311771D01*
X98235571Y-90311771D01*
X98378428Y-90383200D01*
X98449857Y-90454628D01*
X98521285Y-90597485D01*
X98521285Y-90811771D01*
X98449857Y-90954628D01*
X98378428Y-91026057D01*
X98235571Y-91097485D01*
X97664142Y-91097485D01*
X99378428Y-91811771D02*
X99235571Y-91740342D01*
X99164142Y-91597485D01*
X99164142Y-90311771D01*
X100521285Y-91740342D02*
X100378428Y-91811771D01*
X100092714Y-91811771D01*
X99949857Y-91740342D01*
X99878428Y-91597485D01*
X99878428Y-91026057D01*
X99949857Y-90883200D01*
X100092714Y-90811771D01*
X100378428Y-90811771D01*
X100521285Y-90883200D01*
X100592714Y-91026057D01*
X100592714Y-91168914D01*
X99878428Y-91311771D01*
X101878428Y-91811771D02*
X101878428Y-91026057D01*
X101807000Y-90883200D01*
X101664142Y-90811771D01*
X101378428Y-90811771D01*
X101235571Y-90883200D01*
X101878428Y-91740342D02*
X101735571Y-91811771D01*
X101378428Y-91811771D01*
X101235571Y-91740342D01*
X101164142Y-91597485D01*
X101164142Y-91454628D01*
X101235571Y-91311771D01*
X101378428Y-91240342D01*
X101735571Y-91240342D01*
X101878428Y-91168914D01*
X102521285Y-91740342D02*
X102664142Y-91811771D01*
X102949857Y-91811771D01*
X103092714Y-91740342D01*
X103164142Y-91597485D01*
X103164142Y-91526057D01*
X103092714Y-91383200D01*
X102949857Y-91311771D01*
X102735571Y-91311771D01*
X102592714Y-91240342D01*
X102521285Y-91097485D01*
X102521285Y-91026057D01*
X102592714Y-90883200D01*
X102735571Y-90811771D01*
X102949857Y-90811771D01*
X103092714Y-90883200D01*
X104378428Y-91740342D02*
X104235571Y-91811771D01*
X103949857Y-91811771D01*
X103807000Y-91740342D01*
X103735571Y-91597485D01*
X103735571Y-91026057D01*
X103807000Y-90883200D01*
X103949857Y-90811771D01*
X104235571Y-90811771D01*
X104378428Y-90883200D01*
X104449857Y-91026057D01*
X104449857Y-91168914D01*
X103735571Y-91311771D01*
X106235571Y-90811771D02*
X106235571Y-91811771D01*
X106235571Y-90954628D02*
X106307000Y-90883200D01*
X106449857Y-90811771D01*
X106664142Y-90811771D01*
X106807000Y-90883200D01*
X106878428Y-91026057D01*
X106878428Y-91811771D01*
X107807000Y-91811771D02*
X107664142Y-91740342D01*
X107592714Y-91668914D01*
X107521285Y-91526057D01*
X107521285Y-91097485D01*
X107592714Y-90954628D01*
X107664142Y-90883200D01*
X107807000Y-90811771D01*
X108021285Y-90811771D01*
X108164142Y-90883200D01*
X108235571Y-90954628D01*
X108307000Y-91097485D01*
X108307000Y-91526057D01*
X108235571Y-91668914D01*
X108164142Y-91740342D01*
X108021285Y-91811771D01*
X107807000Y-91811771D01*
X108735571Y-90811771D02*
X109307000Y-90811771D01*
X108949857Y-90311771D02*
X108949857Y-91597485D01*
X109021285Y-91740342D01*
X109164142Y-91811771D01*
X109307000Y-91811771D01*
X110378428Y-91740342D02*
X110235571Y-91811771D01*
X109949857Y-91811771D01*
X109807000Y-91740342D01*
X109735571Y-91597485D01*
X109735571Y-91026057D01*
X109807000Y-90883200D01*
X109949857Y-90811771D01*
X110235571Y-90811771D01*
X110378428Y-90883200D01*
X110449857Y-91026057D01*
X110449857Y-91168914D01*
X109735571Y-91311771D01*
X112021285Y-90811771D02*
X112592714Y-90811771D01*
X112235571Y-90311771D02*
X112235571Y-91597485D01*
X112307000Y-91740342D01*
X112449857Y-91811771D01*
X112592714Y-91811771D01*
X113092714Y-91811771D02*
X113092714Y-90311771D01*
X113735571Y-91811771D02*
X113735571Y-91026057D01*
X113664142Y-90883200D01*
X113521285Y-90811771D01*
X113307000Y-90811771D01*
X113164142Y-90883200D01*
X113092714Y-90954628D01*
X115092714Y-91811771D02*
X115092714Y-91026057D01*
X115021285Y-90883200D01*
X114878428Y-90811771D01*
X114592714Y-90811771D01*
X114449857Y-90883200D01*
X115092714Y-91740342D02*
X114949857Y-91811771D01*
X114592714Y-91811771D01*
X114449857Y-91740342D01*
X114378428Y-91597485D01*
X114378428Y-91454628D01*
X114449857Y-91311771D01*
X114592714Y-91240342D01*
X114949857Y-91240342D01*
X115092714Y-91168914D01*
X115592714Y-90811771D02*
X116164142Y-90811771D01*
X115807000Y-90311771D02*
X115807000Y-91597485D01*
X115878428Y-91740342D01*
X116021285Y-91811771D01*
X116164142Y-91811771D01*
X95842714Y-93226771D02*
X96414142Y-93226771D01*
X96057000Y-92726771D02*
X96057000Y-94012485D01*
X96128428Y-94155342D01*
X96271285Y-94226771D01*
X96414142Y-94226771D01*
X96914142Y-94226771D02*
X96914142Y-92726771D01*
X97557000Y-94226771D02*
X97557000Y-93441057D01*
X97485571Y-93298200D01*
X97342714Y-93226771D01*
X97128428Y-93226771D01*
X96985571Y-93298200D01*
X96914142Y-93369628D01*
X98842714Y-94155342D02*
X98699857Y-94226771D01*
X98414142Y-94226771D01*
X98271285Y-94155342D01*
X98199857Y-94012485D01*
X98199857Y-93441057D01*
X98271285Y-93298200D01*
X98414142Y-93226771D01*
X98699857Y-93226771D01*
X98842714Y-93298200D01*
X98914142Y-93441057D01*
X98914142Y-93583914D01*
X98199857Y-93726771D01*
X101271285Y-94155342D02*
X101128428Y-94226771D01*
X100842714Y-94226771D01*
X100699857Y-94155342D01*
X100628428Y-94012485D01*
X100628428Y-93441057D01*
X100699857Y-93298200D01*
X100842714Y-93226771D01*
X101128428Y-93226771D01*
X101271285Y-93298200D01*
X101342714Y-93441057D01*
X101342714Y-93583914D01*
X100628428Y-93726771D01*
X101842714Y-94226771D02*
X102628428Y-93226771D01*
X101842714Y-93226771D02*
X102628428Y-94226771D01*
X103199857Y-93226771D02*
X103199857Y-94726771D01*
X103199857Y-93298200D02*
X103342714Y-93226771D01*
X103628428Y-93226771D01*
X103771285Y-93298200D01*
X103842714Y-93369628D01*
X103914142Y-93512485D01*
X103914142Y-93941057D01*
X103842714Y-94083914D01*
X103771285Y-94155342D01*
X103628428Y-94226771D01*
X103342714Y-94226771D01*
X103199857Y-94155342D01*
X105128428Y-94155342D02*
X104985571Y-94226771D01*
X104699857Y-94226771D01*
X104557000Y-94155342D01*
X104485571Y-94012485D01*
X104485571Y-93441057D01*
X104557000Y-93298200D01*
X104699857Y-93226771D01*
X104985571Y-93226771D01*
X105128428Y-93298200D01*
X105199857Y-93441057D01*
X105199857Y-93583914D01*
X104485571Y-93726771D01*
X106485571Y-94155342D02*
X106342714Y-94226771D01*
X106057000Y-94226771D01*
X105914142Y-94155342D01*
X105842714Y-94083914D01*
X105771285Y-93941057D01*
X105771285Y-93512485D01*
X105842714Y-93369628D01*
X105914142Y-93298200D01*
X106057000Y-93226771D01*
X106342714Y-93226771D01*
X106485571Y-93298200D01*
X106914142Y-93226771D02*
X107485571Y-93226771D01*
X107128428Y-92726771D02*
X107128428Y-94012485D01*
X107199857Y-94155342D01*
X107342714Y-94226771D01*
X107485571Y-94226771D01*
X108557000Y-94155342D02*
X108414142Y-94226771D01*
X108128428Y-94226771D01*
X107985571Y-94155342D01*
X107914142Y-94012485D01*
X107914142Y-93441057D01*
X107985571Y-93298200D01*
X108128428Y-93226771D01*
X108414142Y-93226771D01*
X108557000Y-93298200D01*
X108628428Y-93441057D01*
X108628428Y-93583914D01*
X107914142Y-93726771D01*
X109914142Y-94226771D02*
X109914142Y-92726771D01*
X109914142Y-94155342D02*
X109771285Y-94226771D01*
X109485571Y-94226771D01*
X109342714Y-94155342D01*
X109271285Y-94083914D01*
X109199857Y-93941057D01*
X109199857Y-93512485D01*
X109271285Y-93369628D01*
X109342714Y-93298200D01*
X109485571Y-93226771D01*
X109771285Y-93226771D01*
X109914142Y-93298200D01*
X111771285Y-93226771D02*
X111771285Y-94726771D01*
X111771285Y-93298200D02*
X111914142Y-93226771D01*
X112199857Y-93226771D01*
X112342714Y-93298200D01*
X112414142Y-93369628D01*
X112485571Y-93512485D01*
X112485571Y-93941057D01*
X112414142Y-94083914D01*
X112342714Y-94155342D01*
X112199857Y-94226771D01*
X111914142Y-94226771D01*
X111771285Y-94155342D01*
X113342714Y-94226771D02*
X113199857Y-94155342D01*
X113128428Y-94083914D01*
X113057000Y-93941057D01*
X113057000Y-93512485D01*
X113128428Y-93369628D01*
X113199857Y-93298200D01*
X113342714Y-93226771D01*
X113557000Y-93226771D01*
X113699857Y-93298200D01*
X113771285Y-93369628D01*
X113842714Y-93512485D01*
X113842714Y-93941057D01*
X113771285Y-94083914D01*
X113699857Y-94155342D01*
X113557000Y-94226771D01*
X113342714Y-94226771D01*
X114342714Y-93226771D02*
X114628428Y-94226771D01*
X114914142Y-93512485D01*
X115199857Y-94226771D01*
X115485571Y-93226771D01*
X116628428Y-94155342D02*
X116485571Y-94226771D01*
X116199857Y-94226771D01*
X116057000Y-94155342D01*
X115985571Y-94012485D01*
X115985571Y-93441057D01*
X116057000Y-93298200D01*
X116199857Y-93226771D01*
X116485571Y-93226771D01*
X116628428Y-93298200D01*
X116699857Y-93441057D01*
X116699857Y-93583914D01*
X115985571Y-93726771D01*
X117342714Y-94226771D02*
X117342714Y-93226771D01*
X117342714Y-93512485D02*
X117414142Y-93369628D01*
X117485571Y-93298200D01*
X117628428Y-93226771D01*
X117771285Y-93226771D01*
X96985571Y-96570342D02*
X97128428Y-96641771D01*
X97414142Y-96641771D01*
X97557000Y-96570342D01*
X97628428Y-96427485D01*
X97628428Y-96356057D01*
X97557000Y-96213200D01*
X97414142Y-96141771D01*
X97199857Y-96141771D01*
X97057000Y-96070342D01*
X96985571Y-95927485D01*
X96985571Y-95856057D01*
X97057000Y-95713200D01*
X97199857Y-95641771D01*
X97414142Y-95641771D01*
X97557000Y-95713200D01*
X98485571Y-96641771D02*
X98342714Y-96570342D01*
X98271285Y-96498914D01*
X98199857Y-96356057D01*
X98199857Y-95927485D01*
X98271285Y-95784628D01*
X98342714Y-95713200D01*
X98485571Y-95641771D01*
X98699857Y-95641771D01*
X98842714Y-95713200D01*
X98914142Y-95784628D01*
X98985571Y-95927485D01*
X98985571Y-96356057D01*
X98914142Y-96498914D01*
X98842714Y-96570342D01*
X98699857Y-96641771D01*
X98485571Y-96641771D01*
X100271285Y-95641771D02*
X100271285Y-96641771D01*
X99628428Y-95641771D02*
X99628428Y-96427485D01*
X99699857Y-96570342D01*
X99842714Y-96641771D01*
X100057000Y-96641771D01*
X100199857Y-96570342D01*
X100271285Y-96498914D01*
X100985571Y-96641771D02*
X100985571Y-95641771D01*
X100985571Y-95927485D02*
X101057000Y-95784628D01*
X101128428Y-95713200D01*
X101271285Y-95641771D01*
X101414142Y-95641771D01*
X102557000Y-96570342D02*
X102414142Y-96641771D01*
X102128428Y-96641771D01*
X101985571Y-96570342D01*
X101914142Y-96498914D01*
X101842714Y-96356057D01*
X101842714Y-95927485D01*
X101914142Y-95784628D01*
X101985571Y-95713200D01*
X102128428Y-95641771D01*
X102414142Y-95641771D01*
X102557000Y-95713200D01*
X103771285Y-96570342D02*
X103628428Y-96641771D01*
X103342714Y-96641771D01*
X103199857Y-96570342D01*
X103128428Y-96427485D01*
X103128428Y-95856057D01*
X103199857Y-95713200D01*
X103342714Y-95641771D01*
X103628428Y-95641771D01*
X103771285Y-95713200D01*
X103842714Y-95856057D01*
X103842714Y-95998914D01*
X103128428Y-96141771D01*
X105628428Y-96641771D02*
X105628428Y-95641771D01*
X105628428Y-95141771D02*
X105557000Y-95213200D01*
X105628428Y-95284628D01*
X105699857Y-95213200D01*
X105628428Y-95141771D01*
X105628428Y-95284628D01*
X106271285Y-96570342D02*
X106414142Y-96641771D01*
X106699857Y-96641771D01*
X106842714Y-96570342D01*
X106914142Y-96427485D01*
X106914142Y-96356057D01*
X106842714Y-96213200D01*
X106699857Y-96141771D01*
X106485571Y-96141771D01*
X106342714Y-96070342D01*
X106271285Y-95927485D01*
X106271285Y-95856057D01*
X106342714Y-95713200D01*
X106485571Y-95641771D01*
X106699857Y-95641771D01*
X106842714Y-95713200D01*
X108557000Y-95141771D02*
X109485571Y-95141771D01*
X108985571Y-95713200D01*
X109199857Y-95713200D01*
X109342714Y-95784628D01*
X109414142Y-95856057D01*
X109485571Y-95998914D01*
X109485571Y-96356057D01*
X109414142Y-96498914D01*
X109342714Y-96570342D01*
X109199857Y-96641771D01*
X108771285Y-96641771D01*
X108628428Y-96570342D01*
X108557000Y-96498914D01*
X110128428Y-96498914D02*
X110199857Y-96570342D01*
X110128428Y-96641771D01*
X110057000Y-96570342D01*
X110128428Y-96498914D01*
X110128428Y-96641771D01*
X110699857Y-95141771D02*
X111628428Y-95141771D01*
X111128428Y-95713200D01*
X111342714Y-95713200D01*
X111485571Y-95784628D01*
X111557000Y-95856057D01*
X111628428Y-95998914D01*
X111628428Y-96356057D01*
X111557000Y-96498914D01*
X111485571Y-96570342D01*
X111342714Y-96641771D01*
X110914142Y-96641771D01*
X110771285Y-96570342D01*
X110699857Y-96498914D01*
X112057000Y-95141771D02*
X112557000Y-96641771D01*
X113057000Y-95141771D01*
X113557000Y-96641771D02*
X113557000Y-95141771D01*
X113914142Y-95141771D01*
X114128428Y-95213200D01*
X114271285Y-95356057D01*
X114342714Y-95498914D01*
X114414142Y-95784628D01*
X114414142Y-95998914D01*
X114342714Y-96284628D01*
X114271285Y-96427485D01*
X114128428Y-96570342D01*
X113914142Y-96641771D01*
X113557000Y-96641771D01*
X115914142Y-96498914D02*
X115842714Y-96570342D01*
X115628428Y-96641771D01*
X115485571Y-96641771D01*
X115271285Y-96570342D01*
X115128428Y-96427485D01*
X115057000Y-96284628D01*
X114985571Y-95998914D01*
X114985571Y-95784628D01*
X115057000Y-95498914D01*
X115128428Y-95356057D01*
X115271285Y-95213200D01*
X115485571Y-95141771D01*
X115628428Y-95141771D01*
X115842714Y-95213200D01*
X115914142Y-95284628D01*
X116557000Y-96498914D02*
X116628428Y-96570342D01*
X116557000Y-96641771D01*
X116485571Y-96570342D01*
X116557000Y-96498914D01*
X116557000Y-96641771D01*
X99839485Y-87037171D02*
X100125200Y-87037171D01*
X100268057Y-87108600D01*
X100410914Y-87251457D01*
X100482342Y-87537171D01*
X100482342Y-88037171D01*
X100410914Y-88322885D01*
X100268057Y-88465742D01*
X100125200Y-88537171D01*
X99839485Y-88537171D01*
X99696628Y-88465742D01*
X99553771Y-88322885D01*
X99482342Y-88037171D01*
X99482342Y-87537171D01*
X99553771Y-87251457D01*
X99696628Y-87108600D01*
X99839485Y-87037171D01*
X101125200Y-87537171D02*
X101125200Y-89037171D01*
X101125200Y-87608600D02*
X101268057Y-87537171D01*
X101553771Y-87537171D01*
X101696628Y-87608600D01*
X101768057Y-87680028D01*
X101839485Y-87822885D01*
X101839485Y-88251457D01*
X101768057Y-88394314D01*
X101696628Y-88465742D01*
X101553771Y-88537171D01*
X101268057Y-88537171D01*
X101125200Y-88465742D01*
X103053771Y-88465742D02*
X102910914Y-88537171D01*
X102625200Y-88537171D01*
X102482342Y-88465742D01*
X102410914Y-88322885D01*
X102410914Y-87751457D01*
X102482342Y-87608600D01*
X102625200Y-87537171D01*
X102910914Y-87537171D01*
X103053771Y-87608600D01*
X103125200Y-87751457D01*
X103125200Y-87894314D01*
X102410914Y-88037171D01*
X103768057Y-87537171D02*
X103768057Y-88537171D01*
X103768057Y-87680028D02*
X103839485Y-87608600D01*
X103982342Y-87537171D01*
X104196628Y-87537171D01*
X104339485Y-87608600D01*
X104410914Y-87751457D01*
X104410914Y-88537171D01*
X106196628Y-88465742D02*
X106410914Y-88537171D01*
X106768057Y-88537171D01*
X106910914Y-88465742D01*
X106982342Y-88394314D01*
X107053771Y-88251457D01*
X107053771Y-88108600D01*
X106982342Y-87965742D01*
X106910914Y-87894314D01*
X106768057Y-87822885D01*
X106482342Y-87751457D01*
X106339485Y-87680028D01*
X106268057Y-87608600D01*
X106196628Y-87465742D01*
X106196628Y-87322885D01*
X106268057Y-87180028D01*
X106339485Y-87108600D01*
X106482342Y-87037171D01*
X106839485Y-87037171D01*
X107053771Y-87108600D01*
X107910914Y-88537171D02*
X107768057Y-88465742D01*
X107696628Y-88394314D01*
X107625200Y-88251457D01*
X107625200Y-87822885D01*
X107696628Y-87680028D01*
X107768057Y-87608600D01*
X107910914Y-87537171D01*
X108125200Y-87537171D01*
X108268057Y-87608600D01*
X108339485Y-87680028D01*
X108410914Y-87822885D01*
X108410914Y-88251457D01*
X108339485Y-88394314D01*
X108268057Y-88465742D01*
X108125200Y-88537171D01*
X107910914Y-88537171D01*
X109696628Y-87537171D02*
X109696628Y-88537171D01*
X109053771Y-87537171D02*
X109053771Y-88322885D01*
X109125200Y-88465742D01*
X109268057Y-88537171D01*
X109482342Y-88537171D01*
X109625200Y-88465742D01*
X109696628Y-88394314D01*
X110410914Y-88537171D02*
X110410914Y-87537171D01*
X110410914Y-87822885D02*
X110482342Y-87680028D01*
X110553771Y-87608600D01*
X110696628Y-87537171D01*
X110839485Y-87537171D01*
X111982342Y-88465742D02*
X111839485Y-88537171D01*
X111553771Y-88537171D01*
X111410914Y-88465742D01*
X111339485Y-88394314D01*
X111268057Y-88251457D01*
X111268057Y-87822885D01*
X111339485Y-87680028D01*
X111410914Y-87608600D01*
X111553771Y-87537171D01*
X111839485Y-87537171D01*
X111982342Y-87608600D01*
X113196628Y-88465742D02*
X113053771Y-88537171D01*
X112768057Y-88537171D01*
X112625200Y-88465742D01*
X112553771Y-88322885D01*
X112553771Y-87751457D01*
X112625200Y-87608600D01*
X112768057Y-87537171D01*
X113053771Y-87537171D01*
X113196628Y-87608600D01*
X113268057Y-87751457D01*
X113268057Y-87894314D01*
X112553771Y-88037171D01*
X104241885Y-83506571D02*
X104741885Y-85006571D01*
X105241885Y-83506571D01*
X106527600Y-85006571D02*
X105670457Y-85006571D01*
X106099028Y-85006571D02*
X106099028Y-83506571D01*
X105956171Y-83720857D01*
X105813314Y-83863714D01*
X105670457Y-83935142D01*
X107170457Y-84863714D02*
X107241885Y-84935142D01*
X107170457Y-85006571D01*
X107099028Y-84935142D01*
X107170457Y-84863714D01*
X107170457Y-85006571D01*
X108170457Y-83506571D02*
X108313314Y-83506571D01*
X108456171Y-83578000D01*
X108527600Y-83649428D01*
X108599028Y-83792285D01*
X108670457Y-84078000D01*
X108670457Y-84435142D01*
X108599028Y-84720857D01*
X108527600Y-84863714D01*
X108456171Y-84935142D01*
X108313314Y-85006571D01*
X108170457Y-85006571D01*
X108027600Y-84935142D01*
X107956171Y-84863714D01*
X107884742Y-84720857D01*
X107813314Y-84435142D01*
X107813314Y-84078000D01*
X107884742Y-83792285D01*
X107956171Y-83649428D01*
X108027600Y-83578000D01*
X108170457Y-83506571D01*
X97774371Y-77462914D02*
X97631514Y-77391485D01*
X97345800Y-77391485D01*
X97202942Y-77462914D01*
X97060085Y-77605771D01*
X96988657Y-77748628D01*
X96988657Y-78034342D01*
X97060085Y-78177200D01*
X97202942Y-78320057D01*
X97345800Y-78391485D01*
X97631514Y-78391485D01*
X97774371Y-78320057D01*
X97488657Y-76891485D02*
X97131514Y-76962914D01*
X96774371Y-77177200D01*
X96560085Y-77534342D01*
X96488657Y-77891485D01*
X96560085Y-78248628D01*
X96774371Y-78605771D01*
X97131514Y-78820057D01*
X97488657Y-78891485D01*
X97845800Y-78820057D01*
X98202942Y-78605771D01*
X98417228Y-78248628D01*
X98488657Y-77891485D01*
X98417228Y-77534342D01*
X98202942Y-77177200D01*
X97845800Y-76962914D01*
X97488657Y-76891485D01*
X99060085Y-78177200D02*
X99774371Y-78177200D01*
X98917228Y-78605771D02*
X99417228Y-77105771D01*
X99917228Y-78605771D01*
X100417228Y-78605771D02*
X100417228Y-77105771D01*
X100560085Y-78034342D02*
X100988657Y-78605771D01*
X100988657Y-77605771D02*
X100417228Y-78177200D01*
X102202942Y-78534342D02*
X102060085Y-78605771D01*
X101774371Y-78605771D01*
X101631514Y-78534342D01*
X101560085Y-78391485D01*
X101560085Y-77820057D01*
X101631514Y-77677200D01*
X101774371Y-77605771D01*
X102060085Y-77605771D01*
X102202942Y-77677200D01*
X102274371Y-77820057D01*
X102274371Y-77962914D01*
X101560085Y-78105771D01*
X102917228Y-78605771D02*
X102917228Y-77605771D01*
X102917228Y-77891485D02*
X102988657Y-77748628D01*
X103060085Y-77677200D01*
X103202942Y-77605771D01*
X103345800Y-77605771D01*
X104488657Y-78605771D02*
X104488657Y-77820057D01*
X104417228Y-77677200D01*
X104274371Y-77605771D01*
X103988657Y-77605771D01*
X103845800Y-77677200D01*
X104488657Y-78534342D02*
X104345800Y-78605771D01*
X103988657Y-78605771D01*
X103845800Y-78534342D01*
X103774371Y-78391485D01*
X103774371Y-78248628D01*
X103845800Y-78105771D01*
X103988657Y-78034342D01*
X104345800Y-78034342D01*
X104488657Y-77962914D01*
X105131514Y-78534342D02*
X105274371Y-78605771D01*
X105560085Y-78605771D01*
X105702942Y-78534342D01*
X105774371Y-78391485D01*
X105774371Y-78320057D01*
X105702942Y-78177200D01*
X105560085Y-78105771D01*
X105345800Y-78105771D01*
X105202942Y-78034342D01*
X105131514Y-77891485D01*
X105131514Y-77820057D01*
X105202942Y-77677200D01*
X105345800Y-77605771D01*
X105560085Y-77605771D01*
X105702942Y-77677200D01*
X106631514Y-78605771D02*
X106488657Y-78534342D01*
X106417228Y-78462914D01*
X106345800Y-78320057D01*
X106345800Y-77891485D01*
X106417228Y-77748628D01*
X106488657Y-77677200D01*
X106631514Y-77605771D01*
X106845800Y-77605771D01*
X106988657Y-77677200D01*
X107060085Y-77748628D01*
X107131514Y-77891485D01*
X107131514Y-78320057D01*
X107060085Y-78462914D01*
X106988657Y-78534342D01*
X106845800Y-78605771D01*
X106631514Y-78605771D01*
X107560085Y-77605771D02*
X108131514Y-77605771D01*
X107774371Y-78605771D02*
X107774371Y-77320057D01*
X107845800Y-77177200D01*
X107988657Y-77105771D01*
X108131514Y-77105771D01*
X108417228Y-77605771D02*
X108988657Y-77605771D01*
X108631514Y-77105771D02*
X108631514Y-78391485D01*
X108702942Y-78534342D01*
X108845800Y-78605771D01*
X108988657Y-78605771D01*
X110560085Y-77248628D02*
X110631514Y-77177200D01*
X110774371Y-77105771D01*
X111131514Y-77105771D01*
X111274371Y-77177200D01*
X111345800Y-77248628D01*
X111417228Y-77391485D01*
X111417228Y-77534342D01*
X111345800Y-77748628D01*
X110488657Y-78605771D01*
X111417228Y-78605771D01*
X112345800Y-77105771D02*
X112488657Y-77105771D01*
X112631514Y-77177200D01*
X112702942Y-77248628D01*
X112774371Y-77391485D01*
X112845800Y-77677200D01*
X112845800Y-78034342D01*
X112774371Y-78320057D01*
X112702942Y-78462914D01*
X112631514Y-78534342D01*
X112488657Y-78605771D01*
X112345800Y-78605771D01*
X112202942Y-78534342D01*
X112131514Y-78462914D01*
X112060085Y-78320057D01*
X111988657Y-78034342D01*
X111988657Y-77677200D01*
X112060085Y-77391485D01*
X112131514Y-77248628D01*
X112202942Y-77177200D01*
X112345800Y-77105771D01*
X113417228Y-77248628D02*
X113488657Y-77177200D01*
X113631514Y-77105771D01*
X113988657Y-77105771D01*
X114131514Y-77177200D01*
X114202942Y-77248628D01*
X114274371Y-77391485D01*
X114274371Y-77534342D01*
X114202942Y-77748628D01*
X113345800Y-78605771D01*
X114274371Y-78605771D01*
X114845800Y-77248628D02*
X114917228Y-77177200D01*
X115060085Y-77105771D01*
X115417228Y-77105771D01*
X115560085Y-77177200D01*
X115631514Y-77248628D01*
X115702942Y-77391485D01*
X115702942Y-77534342D01*
X115631514Y-77748628D01*
X114774371Y-78605771D01*
X115702942Y-78605771D01*
X96414142Y-81657000D02*
X97128428Y-81657000D01*
X96271285Y-82085571D02*
X96771285Y-80585571D01*
X97271285Y-82085571D01*
X97699857Y-82014142D02*
X97914142Y-82085571D01*
X98271285Y-82085571D01*
X98414142Y-82014142D01*
X98485571Y-81942714D01*
X98557000Y-81799857D01*
X98557000Y-81657000D01*
X98485571Y-81514142D01*
X98414142Y-81442714D01*
X98271285Y-81371285D01*
X97985571Y-81299857D01*
X97842714Y-81228428D01*
X97771285Y-81157000D01*
X97699857Y-81014142D01*
X97699857Y-80871285D01*
X97771285Y-80728428D01*
X97842714Y-80657000D01*
X97985571Y-80585571D01*
X98342714Y-80585571D01*
X98557000Y-80657000D01*
X99199857Y-81514142D02*
X100342714Y-81514142D01*
X101057000Y-81299857D02*
X101557000Y-81299857D01*
X101771285Y-82085571D02*
X101057000Y-82085571D01*
X101057000Y-80585571D01*
X101771285Y-80585571D01*
X102271285Y-80585571D02*
X103271285Y-82085571D01*
X103271285Y-80585571D02*
X102271285Y-82085571D01*
X103628428Y-80585571D02*
X104485571Y-80585571D01*
X104057000Y-82085571D02*
X104057000Y-80585571D01*
X104985571Y-82085571D02*
X104985571Y-80585571D01*
X105842714Y-82085571D01*
X105842714Y-80585571D01*
X106557000Y-81514142D02*
X107699857Y-81514142D01*
X108414142Y-80585571D02*
X108414142Y-81799857D01*
X108485571Y-81942714D01*
X108557000Y-82014142D01*
X108699857Y-82085571D01*
X108985571Y-82085571D01*
X109128428Y-82014142D01*
X109199857Y-81942714D01*
X109271285Y-81799857D01*
X109271285Y-80585571D01*
X109985571Y-82085571D02*
X109985571Y-80585571D01*
X110842714Y-82085571D01*
X110842714Y-80585571D01*
X111842714Y-80585571D02*
X112128428Y-80585571D01*
X112271285Y-80657000D01*
X112414142Y-80799857D01*
X112485571Y-81085571D01*
X112485571Y-81585571D01*
X112414142Y-81871285D01*
X112271285Y-82014142D01*
X112128428Y-82085571D01*
X111842714Y-82085571D01*
X111699857Y-82014142D01*
X111557000Y-81871285D01*
X111485571Y-81585571D01*
X111485571Y-81085571D01*
X111557000Y-80799857D01*
X111699857Y-80657000D01*
X111842714Y-80585571D01*
X113128428Y-81514142D02*
X114271285Y-81514142D01*
X115271285Y-80585571D02*
X115414142Y-80585571D01*
X115557000Y-80657000D01*
X115628428Y-80728428D01*
X115699857Y-80871285D01*
X115771285Y-81157000D01*
X115771285Y-81514142D01*
X115699857Y-81799857D01*
X115628428Y-81942714D01*
X115557000Y-82014142D01*
X115414142Y-82085571D01*
X115271285Y-82085571D01*
X115128428Y-82014142D01*
X115057000Y-81942714D01*
X114985571Y-81799857D01*
X114914142Y-81514142D01*
X114914142Y-81157000D01*
X114985571Y-80871285D01*
X115057000Y-80728428D01*
X115128428Y-80657000D01*
X115271285Y-80585571D01*
X117199857Y-82085571D02*
X116342714Y-82085571D01*
X116771285Y-82085571D02*
X116771285Y-80585571D01*
X116628428Y-80799857D01*
X116485571Y-80942714D01*
X116342714Y-81014142D01*
X100180057Y-102786085D02*
X100108628Y-103000371D01*
X100108628Y-103357514D01*
X100180057Y-103500371D01*
X100251485Y-103571800D01*
X100394342Y-103643228D01*
X100537200Y-103643228D01*
X100680057Y-103571800D01*
X100751485Y-103500371D01*
X100822914Y-103357514D01*
X100894342Y-103071800D01*
X100965771Y-102928942D01*
X101037200Y-102857514D01*
X101180057Y-102786085D01*
X101322914Y-102786085D01*
X101465771Y-102857514D01*
X101537200Y-102928942D01*
X101608628Y-103071800D01*
X101608628Y-103428942D01*
X101537200Y-103643228D01*
X100251485Y-105143228D02*
X100180057Y-105071800D01*
X100108628Y-104857514D01*
X100108628Y-104714657D01*
X100180057Y-104500371D01*
X100322914Y-104357514D01*
X100465771Y-104286085D01*
X100751485Y-104214657D01*
X100965771Y-104214657D01*
X101251485Y-104286085D01*
X101394342Y-104357514D01*
X101537200Y-104500371D01*
X101608628Y-104714657D01*
X101608628Y-104857514D01*
X101537200Y-105071800D01*
X101465771Y-105143228D01*
X100108628Y-106500371D02*
X100108628Y-105786085D01*
X101608628Y-105786085D01*
X104051800Y-103505142D02*
X104123228Y-103362285D01*
X104123228Y-103148000D01*
X104051800Y-102933714D01*
X103908942Y-102790857D01*
X103766085Y-102719428D01*
X103480371Y-102648000D01*
X103266085Y-102648000D01*
X102980371Y-102719428D01*
X102837514Y-102790857D01*
X102694657Y-102933714D01*
X102623228Y-103148000D01*
X102623228Y-103290857D01*
X102694657Y-103505142D01*
X102766085Y-103576571D01*
X103266085Y-103576571D01*
X103266085Y-103290857D01*
X102623228Y-104219428D02*
X104123228Y-104219428D01*
X102623228Y-105076571D01*
X104123228Y-105076571D01*
X102623228Y-105790857D02*
X104123228Y-105790857D01*
X104123228Y-106148000D01*
X104051800Y-106362285D01*
X103908942Y-106505142D01*
X103766085Y-106576571D01*
X103480371Y-106648000D01*
X103266085Y-106648000D01*
X102980371Y-106576571D01*
X102837514Y-106505142D01*
X102694657Y-106362285D01*
X102623228Y-106148000D01*
X102623228Y-105790857D01*
X59385342Y-84238400D02*
X59242485Y-84166971D01*
X59028200Y-84166971D01*
X58813914Y-84238400D01*
X58671057Y-84381257D01*
X58599628Y-84524114D01*
X58528200Y-84809828D01*
X58528200Y-85024114D01*
X58599628Y-85309828D01*
X58671057Y-85452685D01*
X58813914Y-85595542D01*
X59028200Y-85666971D01*
X59171057Y-85666971D01*
X59385342Y-85595542D01*
X59456771Y-85524114D01*
X59456771Y-85024114D01*
X59171057Y-85024114D01*
X60099628Y-85666971D02*
X60099628Y-84166971D01*
X60956771Y-85666971D01*
X60956771Y-84166971D01*
X61671057Y-85666971D02*
X61671057Y-84166971D01*
X62028200Y-84166971D01*
X62242485Y-84238400D01*
X62385342Y-84381257D01*
X62456771Y-84524114D01*
X62528200Y-84809828D01*
X62528200Y-85024114D01*
X62456771Y-85309828D01*
X62385342Y-85452685D01*
X62242485Y-85595542D01*
X62028200Y-85666971D01*
X61671057Y-85666971D01*
X57821000Y-93159971D02*
X57821000Y-91659971D01*
X58178142Y-91659971D01*
X58392428Y-91731400D01*
X58535285Y-91874257D01*
X58606714Y-92017114D01*
X58678142Y-92302828D01*
X58678142Y-92517114D01*
X58606714Y-92802828D01*
X58535285Y-92945685D01*
X58392428Y-93088542D01*
X58178142Y-93159971D01*
X57821000Y-93159971D01*
X59249571Y-92731400D02*
X59963857Y-92731400D01*
X59106714Y-93159971D02*
X59606714Y-91659971D01*
X60106714Y-93159971D01*
X60392428Y-91659971D02*
X61249571Y-91659971D01*
X60821000Y-93159971D02*
X60821000Y-91659971D01*
X61678142Y-92731400D02*
X62392428Y-92731400D01*
X61535285Y-93159971D02*
X62035285Y-91659971D01*
X62535285Y-93159971D01*
X97665457Y-102775771D02*
X97594028Y-102990057D01*
X97594028Y-103347200D01*
X97665457Y-103490057D01*
X97736885Y-103561485D01*
X97879742Y-103632914D01*
X98022600Y-103632914D01*
X98165457Y-103561485D01*
X98236885Y-103490057D01*
X98308314Y-103347200D01*
X98379742Y-103061485D01*
X98451171Y-102918628D01*
X98522600Y-102847200D01*
X98665457Y-102775771D01*
X98808314Y-102775771D01*
X98951171Y-102847200D01*
X99022600Y-102918628D01*
X99094028Y-103061485D01*
X99094028Y-103418628D01*
X99022600Y-103632914D01*
X97594028Y-104275771D02*
X99094028Y-104275771D01*
X99094028Y-104632914D01*
X99022600Y-104847200D01*
X98879742Y-104990057D01*
X98736885Y-105061485D01*
X98451171Y-105132914D01*
X98236885Y-105132914D01*
X97951171Y-105061485D01*
X97808314Y-104990057D01*
X97665457Y-104847200D01*
X97594028Y-104632914D01*
X97594028Y-104275771D01*
X98022600Y-105704342D02*
X98022600Y-106418628D01*
X97594028Y-105561485D02*
X99094028Y-106061485D01*
X97594028Y-106561485D01*
X59736942Y-88114914D02*
X59665514Y-88186342D01*
X59451228Y-88257771D01*
X59308371Y-88257771D01*
X59094085Y-88186342D01*
X58951228Y-88043485D01*
X58879800Y-87900628D01*
X58808371Y-87614914D01*
X58808371Y-87400628D01*
X58879800Y-87114914D01*
X58951228Y-86972057D01*
X59094085Y-86829200D01*
X59308371Y-86757771D01*
X59451228Y-86757771D01*
X59665514Y-86829200D01*
X59736942Y-86900628D01*
X61094085Y-88257771D02*
X60379800Y-88257771D01*
X60379800Y-86757771D01*
X61594085Y-88257771D02*
X61594085Y-86757771D01*
X62451228Y-88257771D02*
X61808371Y-87400628D01*
X62451228Y-86757771D02*
X61594085Y-87614914D01*
X96630228Y-102698800D02*
X95130228Y-103198800D01*
X96630228Y-103698800D01*
X95273085Y-105055942D02*
X95201657Y-104984514D01*
X95130228Y-104770228D01*
X95130228Y-104627371D01*
X95201657Y-104413085D01*
X95344514Y-104270228D01*
X95487371Y-104198800D01*
X95773085Y-104127371D01*
X95987371Y-104127371D01*
X96273085Y-104198800D01*
X96415942Y-104270228D01*
X96558800Y-104413085D01*
X96630228Y-104627371D01*
X96630228Y-104770228D01*
X96558800Y-104984514D01*
X96487371Y-105055942D01*
X95273085Y-106555942D02*
X95201657Y-106484514D01*
X95130228Y-106270228D01*
X95130228Y-106127371D01*
X95201657Y-105913085D01*
X95344514Y-105770228D01*
X95487371Y-105698800D01*
X95773085Y-105627371D01*
X95987371Y-105627371D01*
X96273085Y-105698800D01*
X96415942Y-105770228D01*
X96558800Y-105913085D01*
X96630228Y-106127371D01*
X96630228Y-106270228D01*
X96558800Y-106484514D01*
X96487371Y-106555942D01*
X57328085Y-90848571D02*
X56613800Y-90848571D01*
X56613800Y-89348571D01*
X57756657Y-90420000D02*
X58470942Y-90420000D01*
X57613800Y-90848571D02*
X58113800Y-89348571D01*
X58613800Y-90848571D01*
X58899514Y-89348571D02*
X59756657Y-89348571D01*
X59328085Y-90848571D02*
X59328085Y-89348571D01*
X61113800Y-90705714D02*
X61042371Y-90777142D01*
X60828085Y-90848571D01*
X60685228Y-90848571D01*
X60470942Y-90777142D01*
X60328085Y-90634285D01*
X60256657Y-90491428D01*
X60185228Y-90205714D01*
X60185228Y-89991428D01*
X60256657Y-89705714D01*
X60328085Y-89562857D01*
X60470942Y-89420000D01*
X60685228Y-89348571D01*
X60828085Y-89348571D01*
X61042371Y-89420000D01*
X61113800Y-89491428D01*
X61756657Y-90848571D02*
X61756657Y-89348571D01*
X61756657Y-90062857D02*
X62613800Y-90062857D01*
X62613800Y-90848571D02*
X62613800Y-89348571D01*
X58553600Y-94225371D02*
X59053600Y-95725371D01*
X59553600Y-94225371D01*
X60910742Y-95582514D02*
X60839314Y-95653942D01*
X60625028Y-95725371D01*
X60482171Y-95725371D01*
X60267885Y-95653942D01*
X60125028Y-95511085D01*
X60053600Y-95368228D01*
X59982171Y-95082514D01*
X59982171Y-94868228D01*
X60053600Y-94582514D01*
X60125028Y-94439657D01*
X60267885Y-94296800D01*
X60482171Y-94225371D01*
X60625028Y-94225371D01*
X60839314Y-94296800D01*
X60910742Y-94368228D01*
X62410742Y-95582514D02*
X62339314Y-95653942D01*
X62125028Y-95725371D01*
X61982171Y-95725371D01*
X61767885Y-95653942D01*
X61625028Y-95511085D01*
X61553600Y-95368228D01*
X61482171Y-95082514D01*
X61482171Y-94868228D01*
X61553600Y-94582514D01*
X61625028Y-94439657D01*
X61767885Y-94296800D01*
X61982171Y-94225371D01*
X62125028Y-94225371D01*
X62339314Y-94296800D01*
X62410742Y-94368228D01*
D11*
%TO.C,SW1*%
X57467666Y-105298561D02*
X57610523Y-105346180D01*
X57848619Y-105346180D01*
X57943857Y-105298561D01*
X57991476Y-105250942D01*
X58039095Y-105155704D01*
X58039095Y-105060466D01*
X57991476Y-104965228D01*
X57943857Y-104917609D01*
X57848619Y-104869990D01*
X57658142Y-104822371D01*
X57562904Y-104774752D01*
X57515285Y-104727133D01*
X57467666Y-104631895D01*
X57467666Y-104536657D01*
X57515285Y-104441419D01*
X57562904Y-104393800D01*
X57658142Y-104346180D01*
X57896238Y-104346180D01*
X58039095Y-104393800D01*
X58372428Y-104346180D02*
X58610523Y-105346180D01*
X58801000Y-104631895D01*
X58991476Y-105346180D01*
X59229571Y-104346180D01*
X60134333Y-105346180D02*
X59562904Y-105346180D01*
X59848619Y-105346180D02*
X59848619Y-104346180D01*
X59753380Y-104489038D01*
X59658142Y-104584276D01*
X59562904Y-104631895D01*
%TO.C,J1*%
X80725680Y-89482333D02*
X81439966Y-89482333D01*
X81582823Y-89529952D01*
X81678061Y-89625190D01*
X81725680Y-89768047D01*
X81725680Y-89863285D01*
X81725680Y-88482333D02*
X81725680Y-89053761D01*
X81725680Y-88768047D02*
X80725680Y-88768047D01*
X80868538Y-88863285D01*
X80963776Y-88958523D01*
X81011395Y-89053761D01*
%TO.C,R1*%
X61275933Y-104193780D02*
X60942600Y-103717590D01*
X60704504Y-104193780D02*
X60704504Y-103193780D01*
X61085457Y-103193780D01*
X61180695Y-103241400D01*
X61228314Y-103289019D01*
X61275933Y-103384257D01*
X61275933Y-103527114D01*
X61228314Y-103622352D01*
X61180695Y-103669971D01*
X61085457Y-103717590D01*
X60704504Y-103717590D01*
X62228314Y-104193780D02*
X61656885Y-104193780D01*
X61942600Y-104193780D02*
X61942600Y-103193780D01*
X61847361Y-103336638D01*
X61752123Y-103431876D01*
X61656885Y-103479495D01*
%TO.C,J2*%
X69886580Y-90300133D02*
X70600866Y-90300133D01*
X70743723Y-90347752D01*
X70838961Y-90442990D01*
X70886580Y-90585847D01*
X70886580Y-90681085D01*
X69981819Y-89871561D02*
X69934200Y-89823942D01*
X69886580Y-89728704D01*
X69886580Y-89490609D01*
X69934200Y-89395371D01*
X69981819Y-89347752D01*
X70077057Y-89300133D01*
X70172295Y-89300133D01*
X70315152Y-89347752D01*
X70886580Y-89919180D01*
X70886580Y-89300133D01*
%TO.C,J3*%
X107311866Y-108773980D02*
X107311866Y-109488266D01*
X107264247Y-109631123D01*
X107169009Y-109726361D01*
X107026152Y-109773980D01*
X106930914Y-109773980D01*
X107692819Y-108773980D02*
X108311866Y-108773980D01*
X107978533Y-109154933D01*
X108121390Y-109154933D01*
X108216628Y-109202552D01*
X108264247Y-109250171D01*
X108311866Y-109345409D01*
X108311866Y-109583504D01*
X108264247Y-109678742D01*
X108216628Y-109726361D01*
X108121390Y-109773980D01*
X107835676Y-109773980D01*
X107740438Y-109726361D01*
X107692819Y-109678742D01*
D12*
%TO.C,SW1*%
X55301000Y-108393800D02*
X55301000Y-109893800D01*
X62301000Y-109893800D02*
X62301000Y-108393800D01*
X56551000Y-112393800D02*
X61051000Y-112393800D01*
X61051000Y-105893800D02*
X56551000Y-105893800D01*
D13*
%TO.C,J1*%
X87826700Y-73997900D02*
X83745500Y-73997900D01*
X83745500Y-73997900D02*
X83745500Y-76410900D01*
X83745500Y-76410900D02*
X87826700Y-76410900D01*
X87826700Y-76410900D02*
X87826700Y-73997900D01*
X87521900Y-101582300D02*
X83923300Y-101582300D01*
X83923300Y-101582300D02*
X83923300Y-103995300D01*
X83923300Y-103995300D02*
X87521900Y-103995300D01*
X87521900Y-103995300D02*
X87521900Y-101582300D01*
X94184900Y-76596600D02*
X77751100Y-76596600D01*
X77751100Y-76596600D02*
X77751100Y-101396600D01*
X77751100Y-101396600D02*
X94184900Y-101396600D01*
X94184900Y-101396600D02*
X94184900Y-76596600D01*
D12*
%TO.C,R1*%
X64712600Y-100331400D02*
X64712600Y-100001400D01*
X64712600Y-102741400D02*
X58172600Y-102741400D01*
X64712600Y-102411400D02*
X64712600Y-102741400D01*
X58172600Y-100001400D02*
X58172600Y-100331400D01*
X64712600Y-100001400D02*
X58172600Y-100001400D01*
X58172600Y-102741400D02*
X58172600Y-102411400D01*
%TO.C,J2*%
X63359800Y-97552200D02*
X69329800Y-97552200D01*
X69329800Y-97552200D02*
X69329800Y-82432200D01*
X63369800Y-94242200D02*
X64119800Y-94242200D01*
X63369800Y-97542200D02*
X64119800Y-97542200D01*
X64119800Y-82442200D02*
X63369800Y-82442200D01*
X64119800Y-95742200D02*
X63369800Y-95742200D01*
X63359800Y-82432200D02*
X63359800Y-97552200D01*
X64119800Y-85742200D02*
X63369800Y-85742200D01*
X64119800Y-84242200D02*
X64119800Y-82442200D01*
X64119800Y-97542200D02*
X64119800Y-95742200D01*
X63069800Y-97842200D02*
X64319800Y-97842200D01*
X68569800Y-96792200D02*
X68569800Y-89992200D01*
X63069800Y-96592200D02*
X63069800Y-97842200D01*
X63369800Y-85742200D02*
X63369800Y-94242200D01*
X64119800Y-94242200D02*
X64119800Y-85742200D01*
X65619800Y-96792200D02*
X68569800Y-96792200D01*
X65619800Y-82442200D02*
X65619800Y-83192200D01*
X63369800Y-82442200D02*
X63369800Y-84242200D01*
X68569800Y-83192200D02*
X68569800Y-89992200D01*
X65619800Y-97542200D02*
X65619800Y-96792200D01*
X63369800Y-95742200D02*
X63369800Y-97542200D01*
X69329800Y-82432200D02*
X63359800Y-82432200D01*
X65619800Y-83192200D02*
X68569800Y-83192200D01*
X63369800Y-84242200D02*
X64119800Y-84242200D01*
%TO.C,J3*%
X104118800Y-108011000D02*
X105918800Y-108011000D01*
X105168800Y-109511000D02*
X105168800Y-112461000D01*
X102618800Y-108011000D02*
X102618800Y-107261000D01*
X93318800Y-108011000D02*
X95118800Y-108011000D01*
X95118800Y-108011000D02*
X95118800Y-107261000D01*
X96618800Y-107261000D02*
X96618800Y-108011000D01*
X105918800Y-109511000D02*
X105168800Y-109511000D01*
X93318800Y-109511000D02*
X94068800Y-109511000D01*
X102618800Y-107261000D02*
X96618800Y-107261000D01*
X95118800Y-107261000D02*
X93318800Y-107261000D01*
X93308800Y-107251000D02*
X93308800Y-113221000D01*
X93018800Y-106961000D02*
X93018800Y-108211000D01*
X94068800Y-109511000D02*
X94068800Y-112461000D01*
X93308800Y-113221000D02*
X105928800Y-113221000D01*
X105928800Y-113221000D02*
X105928800Y-107251000D01*
X105918800Y-108011000D02*
X105918800Y-107261000D01*
X104118800Y-107261000D02*
X104118800Y-108011000D01*
X96618800Y-108011000D02*
X102618800Y-108011000D01*
X94068800Y-112461000D02*
X99618800Y-112461000D01*
X105168800Y-112461000D02*
X99618800Y-112461000D01*
X105928800Y-107251000D02*
X93308800Y-107251000D01*
X94268800Y-106961000D02*
X93018800Y-106961000D01*
X93318800Y-107261000D02*
X93318800Y-108011000D01*
X105918800Y-107261000D02*
X104118800Y-107261000D01*
%TD*%
M02*
