%FSLAX45Y45*%
G04 Gerber Fmt 4.5, Leading zero omitted, Abs format (unit mm)*
G04 Created by KiCad (PCBNEW (6.0.6)) date 2022-11-26 18:27:29*
%MOMM*%
%LPD*%
G01*
G04 APERTURE LIST*
%TA.AperFunction,Profile*%
%ADD10C,0.100000*%
%TD*%
%ADD11C,0.200000*%
G04 APERTURE END LIST*
D10*
X12176760Y-6982460D02*
X12176760Y-7947660D01*
X12623800Y-11125200D02*
X11983720Y-11125200D01*
X11981180Y-6982460D02*
X12176760Y-6982460D01*
X11978640Y-7947660D02*
X11978640Y-9906000D01*
X11978640Y-9906000D02*
X12626340Y-9906000D01*
X5306060Y-6949440D02*
X5306060Y-6667500D01*
X12176760Y-7947660D02*
X11978640Y-7947660D01*
X5052060Y-7203440D02*
X5306060Y-6949440D01*
X5306060Y-10751820D02*
X5052060Y-10492740D01*
X5052060Y-10492740D02*
X5052060Y-7203440D01*
X11981180Y-6667500D02*
X11981180Y-6982460D01*
X5306060Y-11889740D02*
X5306060Y-10751820D01*
X5488940Y-12077700D02*
X5306060Y-11889740D01*
X11983720Y-12077700D02*
X5488940Y-12077700D01*
X5306060Y-6667500D02*
X11981180Y-6667500D01*
X12626340Y-9906000D02*
X12623800Y-11125200D01*
X11983720Y-11125200D02*
X11983720Y-12077700D01*
D11*
X5304679Y-12393176D02*
X5304679Y-12193176D01*
X5352298Y-12193176D01*
X5380870Y-12202700D01*
X5399917Y-12221748D01*
X5409441Y-12240795D01*
X5418965Y-12278890D01*
X5418965Y-12307462D01*
X5409441Y-12345557D01*
X5399917Y-12364605D01*
X5380870Y-12383652D01*
X5352298Y-12393176D01*
X5304679Y-12393176D01*
X5504679Y-12393176D02*
X5504679Y-12259843D01*
X5504679Y-12297938D02*
X5514203Y-12278890D01*
X5523727Y-12269367D01*
X5542774Y-12259843D01*
X5561822Y-12259843D01*
X5628488Y-12393176D02*
X5628488Y-12259843D01*
X5628488Y-12193176D02*
X5618965Y-12202700D01*
X5628488Y-12212224D01*
X5638012Y-12202700D01*
X5628488Y-12193176D01*
X5628488Y-12212224D01*
X5752298Y-12393176D02*
X5733250Y-12383652D01*
X5723727Y-12364605D01*
X5723727Y-12193176D01*
X5857060Y-12393176D02*
X5838012Y-12383652D01*
X5828488Y-12364605D01*
X5828488Y-12193176D01*
X6085631Y-12393176D02*
X6085631Y-12193176D01*
X6152298Y-12336033D01*
X6218965Y-12193176D01*
X6218965Y-12393176D01*
X6399917Y-12393176D02*
X6399917Y-12288414D01*
X6390393Y-12269367D01*
X6371346Y-12259843D01*
X6333250Y-12259843D01*
X6314203Y-12269367D01*
X6399917Y-12383652D02*
X6380869Y-12393176D01*
X6333250Y-12393176D01*
X6314203Y-12383652D01*
X6304679Y-12364605D01*
X6304679Y-12345557D01*
X6314203Y-12326509D01*
X6333250Y-12316986D01*
X6380869Y-12316986D01*
X6399917Y-12307462D01*
X6495155Y-12259843D02*
X6495155Y-12459843D01*
X6495155Y-12269367D02*
X6514203Y-12259843D01*
X6552298Y-12259843D01*
X6571346Y-12269367D01*
X6580869Y-12278890D01*
X6590393Y-12297938D01*
X6590393Y-12355081D01*
X6580869Y-12374128D01*
X6571346Y-12383652D01*
X6552298Y-12393176D01*
X6514203Y-12393176D01*
X6495155Y-12383652D01*
X6676108Y-12374128D02*
X6685631Y-12383652D01*
X6676108Y-12393176D01*
X6666584Y-12383652D01*
X6676108Y-12374128D01*
X6676108Y-12393176D01*
X6676108Y-12269367D02*
X6685631Y-12278890D01*
X6676108Y-12288414D01*
X6666584Y-12278890D01*
X6676108Y-12269367D01*
X6676108Y-12288414D01*
M02*
