M48
; DRILL file {KiCad (6.0.6)} date Sat Nov 26 18:27:28 2022
; FORMAT={-:-/ absolute / inch / decimal}
; #@! TF.CreationDate,2022-11-26T18:27:28-08:00
; #@! TF.GenerationSoftware,Kicad,Pcbnew,(6.0.6)
; #@! TF.FileFunction,Plated,1,2,PTH
FMAT,2
INCH
; #@! TA.AperFunction,Plated,PTH,ComponentDrill
T1C0.0315
; #@! TA.AperFunction,Plated,PTH,ComponentDrill
T2C0.0374
; #@! TA.AperFunction,Plated,PTH,ComponentDrill
T3C0.0394
; #@! TA.AperFunction,Plated,PTH,ComponentDrill
T4C0.0433
; #@! TA.AperFunction,Plated,PTH,ComponentDrill
T5C0.0630
%
G90
G05
T1
X2.269Y-3.991
X2.569Y-3.991
T2
X2.5913Y-3.3461
X2.5913Y-3.4446
X2.5913Y-3.543
X2.5913Y-3.6414
X2.5913Y-3.7399
X3.7744Y-4.3193
X3.8728Y-4.3193
X3.9712Y-4.3193
X4.0696Y-4.3193
T3
X2.203Y-2.739
X2.203Y-4.639
X2.303Y-2.739
X2.303Y-4.639
X2.403Y-2.739
X2.403Y-4.639
X2.503Y-2.739
X2.503Y-4.639
X2.603Y-2.739
X2.603Y-4.639
X2.703Y-2.739
X2.703Y-4.639
X2.803Y-4.639
X2.903Y-2.739
X2.903Y-4.639
X3.003Y-2.739
X3.0628Y-4.639
X3.103Y-2.739
X3.1628Y-4.639
X3.203Y-2.739
X3.2628Y-4.639
X3.303Y-2.739
X3.3628Y-4.639
X3.403Y-2.739
X3.4628Y-4.639
X3.503Y-2.739
X3.5628Y-4.639
X3.603Y-2.739
X3.6628Y-4.639
X3.7628Y-4.639
X3.8628Y-4.639
X3.9628Y-4.639
T4
X2.187Y-4.2084
X2.187Y-4.3856
X2.443Y-4.2084
X2.443Y-4.3856
T5
X3.2883Y-3.2638
X3.2883Y-3.4288
X3.2883Y-3.5938
X3.2883Y-3.7588
X3.4583Y-3.4288
X3.4583Y-3.5938
X3.4583Y-3.7588
T0
M30
