%TF.GenerationSoftware,KiCad,Pcbnew,(6.0.6)*%
%TF.CreationDate,2022-11-26T18:27:25-08:00*%
%TF.ProjectId,AS-EXTN-UNO-01,41532d45-5854-44e2-9d55-4e4f2d30312e,rev?*%
%TF.SameCoordinates,Original*%
%TF.FileFunction,Legend,Bot*%
%TF.FilePolarity,Positive*%
%FSLAX46Y46*%
G04 Gerber Fmt 4.6, Leading zero omitted, Abs format (unit mm)*
G04 Created by KiCad (PCBNEW (6.0.6)) date 2022-11-26 18:27:25*
%MOMM*%
%LPD*%
G01*
G04 APERTURE LIST*
%ADD10C,0.150000*%
%ADD11C,0.120000*%
G04 APERTURE END LIST*
D10*
%TO.C,A1*%
X90960485Y-65927266D02*
X90484295Y-65927266D01*
X91055723Y-66212980D02*
X90722390Y-65212980D01*
X90389057Y-66212980D01*
X89531914Y-66212980D02*
X90103342Y-66212980D01*
X89817628Y-66212980D02*
X89817628Y-65212980D01*
X89912866Y-65355838D01*
X90008104Y-65451076D01*
X90103342Y-65498695D01*
D11*
X53286200Y-107420600D02*
X50746200Y-104880600D01*
X53286200Y-118850600D02*
X53286200Y-107420600D01*
X119586200Y-66900600D02*
X119586200Y-70080600D01*
X119586200Y-110970600D02*
X119586200Y-120500600D01*
X50746200Y-72110600D02*
X53286200Y-69570600D01*
X119586200Y-70080600D02*
X121486200Y-70080600D01*
X121486200Y-70080600D02*
X121486200Y-79220600D01*
X53286200Y-66900600D02*
X119586200Y-66900600D01*
X119586200Y-120500600D02*
X54936200Y-120500600D01*
X119586200Y-79220600D02*
X119586200Y-99290600D01*
X125936200Y-99290600D02*
X125936200Y-110970600D01*
X119586200Y-99290600D02*
X125936200Y-99290600D01*
X54936200Y-120500600D02*
X53286200Y-118850600D01*
X121486200Y-79220600D02*
X119586200Y-79220600D01*
X53286200Y-69570600D02*
X53286200Y-66900600D01*
X50746200Y-104880600D02*
X50746200Y-72110600D01*
X125936200Y-110970600D02*
X119586200Y-110970600D01*
%TD*%
M02*
